<?xml version="1.0" encoding="UTF-8" standalone="no"?>
<!-- Created with Inkscape (http://www.inkscape.org/) -->

<svg
   xmlns:dc="http://purl.org/dc/elements/1.1/"
   xmlns:cc="http://creativecommons.org/ns#"
   xmlns:rdf="http://www.w3.org/1999/02/22-rdf-syntax-ns#"
   xmlns:svg="http://www.w3.org/2000/svg"
   xmlns="http://www.w3.org/2000/svg"
   xmlns:sodipodi="http://sodipodi.sourceforge.net/DTD/sodipodi-0.dtd"
   xmlns:inkscape="http://www.inkscape.org/namespaces/inkscape"
   width="201.97035mm"
   height="52.084545mm"
   viewBox="0 0 715.64298 184.55154"
   id="svg4182"
   version="1.1"
   inkscape:version="0.91 r13725"
   sodipodi:docname="fading-suns.svg">
  <defs
     id="defs4184" />
  <sodipodi:namedview
     id="base"
     pagecolor="#ffffff"
     bordercolor="#666666"
     borderopacity="1.0"
     inkscape:pageopacity="0.0"
     inkscape:pageshadow="2"
     inkscape:zoom="0.49497475"
     inkscape:cx="130.77419"
     inkscape:cy="-32.63819"
     inkscape:document-units="px"
     inkscape:current-layer="layer1"
     showgrid="false"
     inkscape:window-width="1215"
     inkscape:window-height="1000"
     inkscape:window-x="65"
     inkscape:window-y="24"
     inkscape:window-maximized="1"
     fit-margin-top="0.1"
     fit-margin-left="0.1"
     fit-margin-right="0.1"
     fit-margin-bottom="0.1" />
  <metadata
     id="metadata4187">
    <rdf:RDF>
      <cc:Work
         rdf:about="">
        <dc:format>image/svg+xml</dc:format>
        <dc:type
           rdf:resource="http://purl.org/dc/dcmitype/StillImage" />
        <dc:title></dc:title>
      </cc:Work>
    </rdf:RDF>
  </metadata>
  <g
     inkscape:label="Capa 1"
     inkscape:groupmode="layer"
     id="layer1"
     transform="translate(-12.448728,-23.338363)">
    <path
       style="fill:#000000"
       d="m 394.25497,202.81617 c -1.09157,-2.85819 -3.48081,-6.12721 -6.05823,-8.28895 l -4.2558,-3.56947 8.58875,-0.0206 c 8.49183,-0.0206 8.58184,-0.048 7.97626,-2.46061 -0.50345,-2.00591 -0.0466,-2.67454 2.56564,-3.75669 3.89981,-1.61536 10.16063,-8.38607 12.14402,-13.13303 1.63469,-3.9124 1.76254,-3.97864 4.67219,-2.42145 1.97513,1.05706 2.04215,0.78848 1.74937,-7.01091 l -0.30433,-8.1101 -5.10044,-0.51938 -5.10043,-0.5193 -0.18828,-5.28636 c -0.2345,-6.58373 -0.55063,-7.08098 -6.7549,-10.62444 -3.87105,-2.21082 -4.82736,-3.23639 -4.09588,-4.39265 1.47372,-2.32968 1.1793,-3.06643 -1.22545,-3.06643 -2.09782,0 -2.1741,0.33343 -1.48445,6.49164 0.39983,3.5704 1.17855,6.65319 1.73051,6.85064 4.33131,1.54952 11.29093,11.17834 9.81071,13.57337 -0.29167,0.47176 -1.99619,1.46501 -3.78815,2.20723 l -3.25811,1.34954 3.75513,1.92653 c 2.06537,1.05956 3.75514,2.40133 3.75514,2.98174 0,2.72396 -4.44873,9.29407 -7.62059,11.25437 -4.91063,3.03495 -6.2603,2.75992 -8.39178,-1.70983 l -1.85589,-3.89179 -1.99664,3.89179 c -1.0981,2.14051 -2.54078,3.89183 -3.20586,3.89183 -3.68066,0 -12.24372,-9.34212 -12.24372,-13.35767 0,-0.62162 1.51337,-1.91284 3.36302,-2.86932 3.11722,-1.612 3.21882,-1.8227 1.38951,-2.88301 -1.08547,-0.62912 -2.85518,-1.98448 -3.93273,-3.01189 -1.51143,-1.44111 -3.29928,-1.79714 -7.82387,-1.55799 l -5.86477,0.31015 -0.0575,7.03651 -0.0575,7.03649 2.81195,-0.61765 c 2.46277,-0.54094 2.99843,-0.17151 4.31339,2.97574 1.99558,4.77605 8.24182,11.57681 12.10112,13.1754 4.5136,1.86963 3.88517,5.68979 -1.0499,6.38227 -2.07321,0.29098 -2.91073,1.35793 -4.15463,5.29259 -0.85695,2.71052 -2.06075,4.93065 -2.67526,4.93366 -2.8689,0.0136 -7.20997,-6.98456 -10.30473,-16.61317 -2.15551,-6.70626 -3.25171,-8.30927 -5.68213,-8.30927 -2.86158,0 -5.30833,3.56333 -6.17296,8.99 l -0.80169,5.03196 -1.34669,-3.11596 c -2.12016,-4.90557 -1.94366,-16.15255 0.30739,-19.5892 1.48579,-2.26841 1.62443,-3.19767 0.65179,-4.36959 -1.77732,-2.14156 -3.50748,-1.8504 -7.13319,1.2005 -3.69244,3.10695 -4.0492,2.06862 -1.63771,-4.7663 0.85686,-2.42872 1.55797,-4.59075 1.55797,-4.80457 0,-0.21361 -7.82892,-0.37002 -17.39756,-0.34716 -16.70796,0.04 -17.27405,0.10912 -14.28158,1.74431 1.71377,0.9365 5.34513,1.70877 8.06958,1.71614 5.46477,0.0136 5.77445,0.9621 1.38093,4.22471 -2.54736,1.8917 -3.9886,2.08734 -12.39842,1.68299 -15.49925,-0.74527 -31.12062,-0.63894 -34.24562,0.23312 -1.60473,0.44776 -5.00602,2.7391 -7.55839,5.09183 -4.88868,4.50619 -5.26806,3.07231 -0.79041,-2.9872 2.14232,-2.89913 7.64995,-6.11059 18.01783,-10.50602 2.04315,-0.86622 0.0461,-1.11583 -9.36703,-1.17116 l -11.96357,-0.0701 -5.17425,4.28459 c -9.59702,7.9469 -24.86845,17.39463 -26.10999,16.15306 -0.26427,-0.26427 0.80101,-2.77586 2.36734,-5.58123 4.9431,-8.8536 3.21481,-9.68491 -15.70742,-7.55536 -12.66674,1.42552 -18.65764,3.30062 -26.27483,8.22387 -3.54367,2.29039 -6.44304,3.79123 -6.44304,3.33529 0,-2.06351 8.30487,-10.1902 15.73217,-15.39466 l 8.15705,-5.71581 0,-7.18413 0,-7.18419 -3.37568,-0.15919 c -5.29779,-0.24989 -15.64576,0.24442 -17.74675,0.84725 -1.61594,0.46378 -1.87524,1.52365 -1.69816,6.9406 0.11508,3.51627 0.15543,6.94429 0.0897,7.61785 -0.0884,0.9055 -9.25302,1.32372 -35.17427,1.60505 -29.56951,0.32075 -35.74556,0.65031 -39.46912,2.10493 -4.74408,1.85335 -5.27208,1.28769 -2.95757,-3.16852 2.04898,-3.94494 5.63402,-6.33278 21.27596,-14.17095 7.5395,-3.77808 13.98608,-7.5933 14.32566,-8.47831 1.27101,-3.31225 -2.17651,-4.70324 -14.32914,-5.78153 -20.33234,-1.80404 -35.578906,0.79402 -40.007221,6.8173 -1.591814,2.16512 -1.602011,2.16047 -0.890328,-0.40648 1.370696,-4.94348 6.955399,-9.17234 19.204879,-14.54225 11.70401,-5.13077 17.51269,-9.14071 16.23518,-11.20776 -0.4008,-0.6485 -3.66526,-0.0541 -8.69704,1.58407 -6.30059,2.05099 -9.75235,2.55732 -15.845325,2.32437 -13.810886,-0.5281 -19.181587,-0.45529 -20.773224,0.28139 -1.131926,0.52403 -2.126134,-0.47706 -3.635299,-3.66029 -1.142537,-2.40985 -3.245872,-4.99097 -4.673974,-5.73583 -4.062963,-2.119044 -15.086653,-0.798533 -27.186331,3.25659 -5.898635,1.97688 -10.958511,3.36254 -11.244146,3.07926 -1.168964,-1.15948 8.177754,-7.837446 17.03108,-12.168344 9.341276,-4.569498 32.391699,-14.105761 34.095578,-14.105761 0.483705,0 0.384935,0.924067 -0.219432,2.053492 -0.872896,1.631033 -0.666708,2.485814 1.00212,4.154638 4.149914,4.149912 16.832983,2.118259 22.565953,-3.614691 4.18916,-4.189142 4.2811,-6.051174 0.48621,-9.846064 -5.78992,-5.789948 -23.532718,-8.069613 -49.087645,-6.307027 -14.155155,0.976306 -35.782298,3.915012 -43.011612,5.844411 -1.893011,0.505201 -1.866208,0.370395 0.302271,-1.519125 3.011998,-2.624624 12.261769,-6.126931 20.990285,-7.947678 18.159275,-3.78801 23.957233,-4.065394 86.728171,-4.149297 59.74761,-0.07975 62.59831,-0.170819 69.07095,-2.206511 3.71321,-1.167732 10.37358,-2.44511 14.80092,-2.838575 l 8.04962,-0.715388 0,3.195072 0,3.195071 5.45296,-0.630524 c 15.17497,-1.754715 23.23394,-4.595823 26.29712,-9.270825 1.6603,-2.533874 1.24646,-6.788778 -0.66024,-6.788778 -0.53276,0 -0.96868,-0.411917 -0.96868,-0.915371 0,-0.503454 2.22015,-1.473222 4.93367,-2.155095 2.71349,-0.681873 10.30872,-2.912859 16.87823,-4.957725 10.4807,-3.262337 13.34485,-3.730157 23.36987,-3.81721 13.36981,-0.116049 17.36816,1.008176 24.00071,6.74859 2.57885,2.231978 5.12776,4.058135 5.66432,4.058135 1.31093,0 1.23471,-2.768161 -0.14759,-5.350541 -1.57191,-2.937131 -0.45715,-3.55232 2.69476,-1.48712 3.65121,2.392358 4.36588,4.776568 5.07819,16.940947 0.33752,5.765437 0.88439,11.187729 1.21507,12.049527 0.82281,2.144174 10.58798,4.471868 12.16107,2.898791 0.67071,-0.670713 4.80908,-1.162392 9.78327,-1.162392 l 8.62096,0 0,4.786566 c 0,4.699545 0.0521,4.773795 2.85632,4.084288 4.26763,-1.049253 7.22527,-3.27449 10.66689,-8.025487 3.58704,-4.95177 3.95588,-9.092576 1.04466,-11.727231 -1.89521,-1.715142 -2.24235,-1.730306 -4.57782,-0.199916 -2.26747,1.48568 -2.59043,1.491021 -3.14263,0.05202 -0.33855,-0.88213 -0.61547,-2.299212 -0.61547,-3.149063 0,-2.883318 27.18344,-28.406095 30.25437,-28.406095 0.47306,0 -0.99923,2.876847 -3.27181,6.392984 -2.27262,3.516171 -4.13202,6.958606 -4.13202,7.649892 0,0.691287 0.96875,2.488412 2.1527,3.993607 3.06366,3.894814 7.54771,3.691029 11.48305,-0.521803 1.67417,-1.792197 3.266,-3.036472 3.53741,-2.765078 0.67676,0.676771 -1.6165,7.062292 -2.53635,7.062292 -0.40693,0 -2.23079,1.457647 -4.05303,3.239231 -3.61179,3.531199 -4.1786,6.174753 -1.75512,8.186037 0.85686,0.711142 1.55794,2.495536 1.55794,3.965298 0,1.495883 1.2494,3.97639 2.8381,5.634636 2.33032,2.432342 2.57001,3.12801 1.33964,3.888413 -2.29849,1.420537 1.25688,4.764896 7.56835,7.119324 l 5.22641,1.949598 3.98039,-5.960733 c 4.0706,-6.09571 12.01052,-12.444261 18.25657,-14.597437 1.85663,-0.640008 3.3637,-1.702201 3.34904,-2.360386 -0.0102,-0.658184 -1.65047,-3.745732 -3.63529,-6.861213 -5.80267,-9.108325 -4.70585,-16.190129 3.09456,-19.979852 4.59325,-2.231567 7.33088,-1.996289 4.91241,0.422187 -1.78196,1.781999 -1.5068,6.619466 0.49011,8.616374 3.40617,3.406214 9.70608,4.746203 9.70608,2.064549 0,-2.43032 3.53493,-1.832248 6.24959,1.057401 4.73724,5.042554 21.05272,8.108536 51.91542,9.755895 32.46787,1.733012 118.04433,2.475647 137.12086,1.189915 16.99674,-1.145548 17.32811,-1.126618 35.81013,2.046613 10.26006,1.761594 23.80664,3.866914 30.10358,4.678527 l 11.44894,1.475652 -20.77321,-0.737227 c -38.98908,-1.383703 -41.57567,-1.248998 -49.67554,2.58738 -5.32532,2.522235 -7.00309,3.81512 -6.73946,5.193313 0.31357,1.638528 2.25192,1.903384 18.10397,2.473284 20.25435,0.728189 24.92563,1.267998 35.50577,4.10315 8.07925,2.164987 21.25147,8.291132 19.28342,8.968383 -0.64849,0.223195 -6.72467,-0.558433 -13.50259,-1.736811 -18.32305,-3.185588 -33.21884,-3.650498 -44.0027,-1.373331 -5.54475,1.170847 -8.82861,2.361927 -8.82861,3.202158 0,0.735824 1.83328,2.371716 4.07387,3.635333 7.43488,4.192806 5.27096,4.846027 -5.31408,1.604159 -6.31804,-1.935014 -13.58772,-3.334842 -19.14708,-3.68692 -9.48069,-0.600366 -18.56249,0.267354 -18.56249,1.773541 0,0.495751 2.68754,1.451997 5.97231,2.125003 3.28474,0.673007 11.09564,3.100968 17.35754,5.395456 8.87076,3.250424 13.61011,4.346611 21.45965,4.963443 5.5409,0.435435 10.59106,1.110979 11.22257,1.501259 3.49047,2.15725 -1.33,3.16546 -34.90157,7.2998 -23.7418,2.92385 -31.8451,5.04772 -32.3337,8.47478 -0.57102,4.00491 4.90303,6.86043 24.58177,12.82287 9.73853,2.95073 11.26673,3.76563 16.07138,8.5703 2.92024,2.92025 4.78855,5.48323 4.15172,5.6955 -0.63678,0.21224 -3.89608,-0.53553 -7.24281,-1.66174 -12.0911,-4.06875 -35.52027,-5.10277 -58.2777,-2.57201 l -5.45296,0.60639 0,6.63162 0,6.63162 -17.91692,0.12733 c -9.85427,0.0701 -22.82459,0.42052 -28.82283,0.779 l -10.90593,0.65171 3.49497,1.90601 c 2.12351,1.15809 3.86938,1.53166 4.4491,0.95197 0.5797,-0.57968 3.28412,-0.15338 6.89161,1.08688 4.11182,1.41338 9.92978,2.2096 18.92079,2.58932 11.62053,0.49079 12.65554,0.68401 9.86091,1.84038 -5.24275,2.16933 -29.00738,5.75092 -38.66191,5.82671 -5.01056,0.0393 -11.1027,-0.47196 -13.53809,-1.13627 -5.23077,-1.42681 -10.89747,-6.0927 -12.70795,-10.4636 -1.07606,-2.59771 -1.88082,-3.12074 -4.80197,-3.12074 -1.93008,0 -3.5093,0.21601 -3.5093,0.48039 0,0.26427 0.98357,3.10918 2.18575,6.32219 1.71889,4.59421 2.03561,7.04271 1.4832,11.46429 -0.38633,3.09226 -1.10436,5.62234 -1.59563,5.62234 -0.49126,0 -1.8823,-1.38901 -3.09117,-3.08677 -2.6183,-3.67701 -12.2157,-8.38402 -22.35202,-10.96236 -7.42758,-1.88935 -15.0606,-5.39416 -15.0606,-6.91538 0,-1.15147 0.74937,-1.0702 6.65671,0.72187 2.80427,0.85069 6.45913,1.54675 8.12186,1.54675 2.54103,0 2.97022,-0.3727 2.69124,-2.33702 -0.31083,-2.18774 -1.03896,-2.39605 -11.40545,-3.26239 -6.09044,-0.50901 -11.81606,-0.64053 -12.7236,-0.29235 -1.17171,0.44964 -1.65003,1.99759 -1.65003,5.33975 l 0,4.70657 -4.80382,0 c -5.36355,0 -5.12882,-0.88846 -2.56646,9.71231 1.09728,4.53959 0.91133,4.56766 -8.11933,1.22552 -4.06682,-1.50509 -4.75865,-1.52132 -6.13589,-0.14418 -1.3773,1.37726 -1.35982,2.05663 0.15475,6.02557 0.93893,2.46027 1.99081,6.81026 2.33761,9.66658 l 0.6306,5.19331 -2.78473,-3.39621 c -3.08217,-3.75906 -7.61651,-6.47109 -10.81919,-6.47109 -2.64938,0 -5.47517,3.02909 -8.56711,9.18333 -2.81471,5.60263 -7.92402,12.62854 -9.18353,12.62854 -0.47603,0 -1.67659,-2.12374 -2.66785,-4.71947 z m 49.40897,-46.65059 0,-4.63026 8.04962,-0.30329 8.04963,-0.3033 0.27898,-23.62953 0.27934,-23.62952 -4.17414,0 c -2.55339,0 -4.07331,-0.45372 -3.9145,-1.16852 0.14266,-0.64265 -0.39904,-1.40753 -1.20415,-1.69971 -1.01458,-0.3682 -1.26369,-0.0102 -0.8116,1.16852 0.57608,1.50123 -0.51416,1.69971 -9.3364,1.69971 l -9.98861,0 0.63101,-8.182619 c 0.34704,-4.500418 1.40538,-10.117937 2.35183,-12.483389 1.59067,-3.975464 5.73369,-8.416523 7.85172,-8.416523 0.49424,0 0.89863,2.570709 0.89863,5.712651 l 0,5.712617 8.82861,0 c 6.339,0 8.84525,-0.366115 8.88757,-1.298329 0.32657,-7.185016 -0.34703,-25.363598 -0.96258,-25.982689 -1.23538,-1.242529 -16.75251,1.24633 -21.94691,3.520177 -16.07353,7.036105 -22.39971,18.630891 -23.58961,43.235734 l -0.61533,12.72363 14.6991,0 14.69915,0 0,8.27997 0,8.27997 -14.28158,0.28892 -14.2816,0.28892 0,7.78997 0,7.78993 8.56891,0.30159 8.56897,0.30159 0,4.63197 0,4.63197 6.23199,0 6.23195,0 0,-4.6303 z m -8.30931,-3.67897 0,-5.19332 -8.30924,0 -8.30931,0 0,-4.12533 0,-4.12534 14.28158,-0.28892 14.28157,-0.28892 0,-11.9446 0,-11.94461 -14.40853,-0.28995 -14.40851,-0.28995 0.489,-12.17413 c 0.54824,-13.647421 2.47116,-20.160322 8.02139,-27.168117 4.17753,-5.274479 14.2775,-10.356229 22.21042,-11.174962 l 5.88617,-0.60752 0,9.493266 0,9.49323 -3.581,0 -3.58104,0 -0.31392,-5.452965 c -0.30467,-5.293475 -0.4107,-5.462345 -3.62341,-5.773515 -10.18199,-0.98613 -16.94438,10.628306 -16.94438,29.101969 l 0,8.091044 13.91078,0 c 10.19487,0 14.04432,0.34797 14.41063,1.30264 0.27489,0.71641 0.44181,9.48012 0.3708,19.47489 l -0.12904,18.17228 -8.04961,0.3033 -8.04958,0.3033 0,5.1496 c 0,4.45715 -0.27934,5.1496 -2.0774,5.1496 -1.80031,0 -2.07729,-0.69245 -2.07729,-5.19332 z m -76.86089,1.21176 c 0,-1.35243 -1.23471,-2.25188 -2.23916,-1.63111 -1.07417,0.6639 -0.14794,2.49666 1.26178,2.49666 0.53753,0 0.97738,-0.38949 0.97738,-0.86555 z m -176.80568,-19.12867 0.28618,-16.3589 10.3602,0 10.36023,0 0,-7.78997 0,-7.78997 -10.52985,0 -10.52985,0 0.70494,-7.779425 c 1.07517,-11.864948 3.84247,-18.555685 8.37413,-20.246793 1.93598,-0.722473 2.15694,-0.298507 2.63272,5.04981 l 0.51933,5.838524 8.56892,0.301587 8.56897,0.301586 0,-14.063961 0,-14.063895 -4.93363,0.01713 c -7.00201,0.02053 -17.31661,2.661252 -22.67797,5.803196 -6.32394,3.706123 -12.41544,10.952656 -14.98909,17.831396 -1.77317,4.739154 -3.96387,16.314256 -4.10695,21.699985 -0.0206,0.73497 -1.14898,1.02183 -2.88842,0.7336 -5.99162,-0.99281 -6.793,-0.82623 -8.80065,1.82971 -2.31551,3.06311 -1.80614,6.68906 1.0638,7.57294 0.97049,0.29885 3.75029,0.67335 6.17732,0.83212 l 4.41283,0.28858 0.001,17.7438 c 8.5e-4,9.75911 0.33102,18.07331 0.7338,18.47612 0.40281,0.40275 4.25881,0.59749 8.56897,0.43273 l 7.83714,-0.29953 0.28618,-16.35889 z m -11.98834,-16.55153 c 0.458,-34.720682 0.81385,-36.331962 10.06733,-45.58543 6.23961,-6.239625 11.79767,-8.799276 21.61131,-9.952663 l 5.4708,-0.642987 0,10.010277 0,10.010276 -4.10278,0 -4.10281,0 -0.31151,-5.962205 c -0.3661,-7.007179 -1.57259,-7.690661 -8.7423,-4.952522 -3.38961,1.294493 -5.21652,2.861751 -7.07596,6.070241 -3.16706,5.464844 -4.98209,14.840078 -4.55733,23.540383 l 0.32964,6.7513 9.8673,0 9.86724,0 0.32556,3.37564 0.32554,3.37565 -10.42606,0 -10.42603,0 -0.28618,16.35893 -0.28618,16.35889 -3.96776,0.32658 -3.96776,0.32658 0.38791,-29.40921 z m 75.57993,26.67846 0,-5.71261 -16.61859,0 -16.61858,0 0,5.71261 0,5.71266 16.61858,0 16.61859,0 0,-5.71266 z m -29.08249,0.51934 c 0,-1.95689 0.69241,-2.07731 11.9446,-2.07731 11.25212,0 11.94457,0.12049 11.94457,2.07731 0,1.95689 -0.69245,2.07732 -11.94457,2.07732 -11.25219,0 -11.9446,-0.12049 -11.9446,-2.07732 z m 68.55161,-0.51934 0,-5.71261 -16.61859,0 -16.61855,0 0,5.71261 0,5.71266 16.61855,0 16.61859,0 0,-5.71266 z m -28.56319,1.55799 c -1.50876,-2.44125 1.20335,-3.11596 12.52524,-3.11596 11.19082,0 11.8833,0.12117 11.8833,2.07731 0,1.95628 -0.69248,2.07732 -11.8833,2.07732 -6.80181,0 -12.15782,-0.44416 -12.52524,-1.03867 z m 60.76167,-1.55799 0,-5.71261 -12.46391,0 -12.46395,0 0,5.71261 0,5.71266 12.46395,0 12.46391,0 0,-5.71266 z m -20.77322,0.56302 c 0,-1.96041 0.63488,-2.12099 8.38548,-2.12099 7.42591,0 8.34572,0.20813 8.03834,1.81766 -0.28856,1.5119 -1.69914,1.86867 -8.38543,2.121 -7.50019,0.2831 -8.03839,0.16123 -8.03839,-1.81767 z m 59.20372,-0.56302 0,-5.71261 -16.61862,0 -16.61857,0 0,5.71261 0,5.71266 16.61857,0 16.61862,0 0,-5.71266 z m -29.08256,0.51934 c 0,-1.95689 0.69245,-2.07731 11.94461,-2.07731 11.25215,0 11.9446,0.12049 11.9446,2.07731 0,1.95689 -0.69245,2.07732 -11.9446,2.07732 -11.25216,0 -11.94461,-0.12049 -11.94461,-2.07732 z m 68.55168,-0.51934 0,-5.71261 -17.65725,0 -17.65722,0 0,5.71261 0,5.71266 17.65722,0 17.65725,0 0,-5.71266 z m -30.12116,0.51934 c 0,-1.96192 0.69245,-2.07731 12.46391,-2.07731 11.77149,0 12.46394,0.11536 12.46394,2.07731 0,1.96192 -0.69245,2.07732 -12.46394,2.07732 -11.77146,0 -12.46391,-0.11537 -12.46391,-2.07732 z m 133.98728,-0.51934 0,-5.71261 -17.13792,0 -17.13792,0 0,5.71261 0,5.71266 17.13792,0 17.13792,0 0,-5.71266 z m -29.42874,1.90421 c -0.38084,-0.38083 -0.69242,-1.31562 -0.69242,-2.07732 0,-1.0802 2.85627,-1.38486 12.98324,-1.38486 12.29085,0 12.98329,0.1109 12.98329,2.07731 0,1.96028 -0.69244,2.07732 -12.29082,2.07732 -6.76001,0 -12.60246,-0.31151 -12.98329,-0.69245 z m 69.9365,-1.90421 0,-5.71261 -17.13792,0 -17.13787,0 0,5.71261 0,5.71266 17.13787,0 17.13792,0 0,-5.71266 z m -29.42871,1.90421 c -0.38087,-0.38083 -0.69245,-1.31562 -0.69245,-2.07732 0,-1.07606 2.74092,-1.38486 12.29079,-1.38486 6.75996,0 12.57024,0.27933 12.91171,0.62087 0.34164,0.34163 0.36938,1.27628 0.062,2.07731 -0.43359,1.12981 -3.174,1.45645 -12.21933,1.45645 -6.41319,0 -11.97196,-0.31151 -12.3528,-0.69245 z m 67.85919,-1.90421 0,-5.71261 -5.71268,0 c -4.38543,0 -5.71258,-0.36197 -5.71258,-1.55802 0,-1.19604 1.32715,-1.55798 5.71258,-1.55798 l 5.71268,0 0,-17.13792 0,-17.13788 -10.38663,0 -10.38658,0 0.007,-4.414325 c 0.007,-5.921296 1.76344,-11.896166 4.21629,-14.349013 3.01644,-3.016893 4.08679,-2.455209 4.08679,2.144756 l 0,4.154636 6.23195,0 6.23195,0 0,-10.011542 0,-10.011543 -6.09009,0.552235 c -6.74668,0.611766 -14.90468,3.809507 -18.66797,7.317324 -1.34903,1.257422 -3.66785,4.623243 -5.15296,7.479552 -2.29568,4.415212 -2.76435,6.866177 -3.12808,16.35889 l -0.42783,11.16562 10.50152,0 10.50151,0 0,6.23199 0,6.23196 -10.38663,0 -10.38664,0 0,5.71261 0,5.71265 4.67402,0 c 3.38341,0 4.67398,0.41445 4.67398,1.50109 0,1.05388 -1.46981,1.5954 -4.93366,1.81763 l -4.93364,0.31665 -0.31391,5.453 -0.3139,5.45297 17.19221,0 17.19218,0 0,-5.71266 z m -29.42874,1.90421 c -0.38085,-0.38083 -0.69247,-1.31562 -0.69247,-2.07732 0,-0.98777 1.6536,-1.38486 5.76693,-1.38486 l 5.76694,0 -0.31392,-5.45297 -0.31391,-5.45296 -4.99833,-0.31939 c -3.86479,-0.24682 -4.92479,-0.68513 -4.674,-1.93252 0.26325,-1.30993 2.1795,-1.64048 10.19167,-1.7581 l 9.86726,-0.1448 0.29816,-9.56954 0.29817,-9.56953 -10.16543,-0.29782 -10.16541,-0.29782 -0.31357,-6.04053 c -0.72845,-14.035176 6.3481,-25.237695 17.44601,-27.617764 2.95483,-0.633675 5.6865,-0.957991 6.07048,-0.720692 0.38395,0.237229 0.67988,2.691137 0.65767,5.453033 -0.0308,3.899606 -0.43881,5.098319 -1.82359,5.364988 -1.45682,0.280705 -1.78312,-0.455872 -1.78312,-4.024177 l 0,-4.367562 -4.41429,0.591979 c -8.12631,1.089717 -12.18741,8.331798 -12.19851,21.753083 l -0.007,7.010982 10.3866,0 10.38662,0 0,12.92899 0,12.92899 -5.453,0.31391 -5.45297,0.31391 -0.31392,5.45296 -0.31389,5.45297 5.7669,0 c 5.0745,0 5.76694,0.24955 5.76694,2.07732 0,1.96028 -0.69244,2.07731 -12.29082,2.07731 -6.75999,0 -12.60246,-0.31151 -12.98326,-0.69245 z M 228.45855,129.81343 c 0.27762,-4.85175 0.0531,-5.60421 -1.81768,-6.09345 -1.82001,-0.47594 -2.13444,-1.38179 -2.13444,-6.14967 l 0,-5.5915 4.15463,0 4.15463,0 0,11.99644 0,11.99643 5.97234,-0.31152 5.97231,-0.31151 0.2742,-33.12307 0.2742,-33.123096 -6.20066,0.562267 c -7.31155,0.662975 -18.03186,4.567341 -19.37159,7.055139 -4.54908,8.447674 -5.86098,10.331032 -7.19623,10.331032 -0.84527,0 -1.5369,0.467408 -1.5369,1.038677 0,0.571268 0.35053,1.038299 0.77898,1.037854 0.42846,-4.46e-4 0.62304,10.536358 0.43243,23.415127 l -0.3466,23.41592 8.13654,-0.30501 8.13657,-0.30501 0.31664,-5.53526 z M 216.3843,111.19982 c 0.44276,-22.491507 0.8672,-24.272819 7.43108,-31.18829 2.88965,-3.044415 10.77191,-6.46316 14.90148,-6.46316 1.10092,0 1.36947,5.703135 1.36947,29.08249 0,25.15868 -0.21019,29.08253 -1.55799,29.08253 -1.29045,0 -1.55797,-1.96192 -1.55797,-11.42527 l 0,-11.4253 -8.82861,0 -8.82861,0 0,9.34798 c 0,9.2787 0.0206,9.34795 2.59662,9.34795 3.74535,0 3.24022,2.72759 -0.64915,3.50546 -1.78522,0.35704 -3.70359,0.64918 -4.26302,0.64918 -0.64315,0 -0.86867,-7.54384 -0.6133,-20.51357 z m 20.58607,-20.130984 0,-14.678022 -4.23529,0.568085 c -4.62827,0.620768 -7.63434,2.813963 -9.92291,7.239582 -1.65017,3.191033 -3.92193,18.985159 -2.95565,20.548619 0.33993,0.54984 4.32946,0.99976 8.86586,0.99976 l 8.24799,0 0,-14.678024 z m -12.12052,3.628998 c 0.67361,-7.213258 2.39721,-10.971655 5.88857,-12.840191 2.01316,-1.077427 2.07727,-0.789875 2.07727,9.311423 l 0,10.423154 -4.30481,0 -4.30484,0 0.64381,-6.894386 z m 44.47948,37.886116 c 6.93821,-2.98471 12.61131,-9.62821 14.75944,-17.28403 1.30304,-4.64405 1.69867,-10.69485 1.69867,-25.980115 l 0,-19.926071 -5.19332,0 c -4.50085,0 -5.19332,-0.27694 -5.19332,-2.077354 0,-1.84649 -0.69244,-2.077318 -6.23198,-2.077318 -5.53951,0 -6.23192,0.230726 -6.23192,2.077318 0,1.892669 -0.69245,2.077354 -7.78997,2.077354 l -7.78996,0 0,5.712615 c 0,5.401035 0.14163,5.712651 2.59664,5.712651 l 2.59666,0 0,27.6675 0,27.66753 5.83401,-0.68567 c 3.2087,-0.3771 8.134,-1.67509 10.94505,-2.88441 z m -12.62438,-28.46039 0,-27.45923 -2.59669,0 c -1.6157,0 -2.59663,-0.588555 -2.59663,-1.557981 0,-1.246397 1.55799,-1.557979 7.78998,-1.557979 7.09747,0 7.78992,-0.184513 7.78992,-2.077318 0,-1.384868 0.69246,-2.077318 2.07729,-2.077318 1.38491,0 2.07736,0.69245 2.07736,2.077318 0,1.800344 0.69244,2.077318 5.19331,2.077318 l 5.19332,0 -0.0136,16.878233 c -0.0206,18.978147 -1.36833,26.876087 -5.52604,32.327167 -2.99259,3.9235 -9.49304,7.39085 -15.49059,8.26275 l -3.89499,0.56627 0,-27.45923 z m 16.19611,19.78473 c 3.79232,-4.75603 4.5771,-9.71564 4.5771,-28.92821 l 0,-18.31575 -8.30934,0 -8.30924,0 0,25.27411 c 0,13.90075 0.24648,25.52056 0.54776,25.82187 1.44206,1.44203 9.39868,-1.22452 11.49372,-3.85202 z m -7.88684,-21.7206 0,-21.36869 4.25938,0 4.25935,0 -0.3644,17.397572 c -0.32006,15.278658 -0.62425,17.839918 -2.49792,21.029478 -1.17348,1.99756 -2.92622,3.78459 -3.89499,3.97112 -1.61004,0.31015 -1.76142,-1.49732 -1.76142,-21.02948 z m 51.41373,27.44838 c 0,-5.45988 -0.12666,-5.72717 -2.85635,-6.04132 l -2.8563,-0.32863 0,-8.82091 c 0,-4.97795 0.40822,-8.56865 0.93697,-8.24183 0.51533,0.31836 1.93032,-1.10447 3.14437,-3.16218 1.93347,-3.276985 2.05674,-4.211185 0.99366,-7.52874 -0.66752,-2.083136 -1.38689,-4.424386 -1.59866,-5.202795 -0.30809,-1.133055 -0.69323,-1.159482 -1.93066,-0.132476 -1.32489,1.099541 -1.53399,0.708231 -1.46366,-2.739337 0.0451,-2.212195 0.31767,-3.43795 0.60583,-2.723864 0.80922,2.005397 3.2659,1.537064 4.55308,-0.867961 1.50405,-2.810367 0.87339,-3.32577 -2.50024,-2.043119 l -2.74069,1.04203 0,-6.725585 0,-6.725584 -9.34797,0 -9.34794,0 0,5.712618 c 0,5.654934 0.0308,5.712651 3.11599,5.712651 2.93875,0 3.116,0.23449 3.116,4.122012 0,3.104836 -0.35859,3.984468 -1.45296,3.564507 -0.79911,-0.306722 -1.78089,-0.02739 -2.18183,0.62183 -0.43105,0.697482 0.16224,1.41256 1.45295,1.749955 1.73076,0.452618 2.18184,1.381443 2.18184,4.492954 0,2.528397 -0.55371,4.134851 -1.55801,4.520237 -0.85691,0.328977 -1.55799,1.328277 -1.55799,2.221027 0,0.89274 0.70108,1.89222 1.55799,2.22106 1.28864,0.49448 1.55801,3.27925 1.55801,16.10708 l 0,15.50925 9.0883,-0.30022 9.08827,-0.30021 0,-5.71262 z m -14.02193,-25.3903 0,-27.58144 -3.11599,0 c -2.07733,0 -3.116,-0.519304 -3.116,-1.557981 0,-1.177146 1.26946,-1.557979 5.1933,-1.557979 l 5.19332,0 0,27.00517 0,27.00521 3.19214,0 c 2.4792,0 3.11502,0.40596 2.84699,1.81763 -0.26017,1.3696 -1.55905,1.89568 -5.26948,2.13425 l -4.92428,0.31665 0,-27.58144 z m 32.19848,4.06122 c 0,-27.239222 0.024,-27.548101 2.07733,-26.449347 4.94344,2.645677 5.69173,5.604854 6.05753,23.956207 0.33754,16.93937 0.29816,17.31558 -1.8748,17.88384 -1.97127,0.5155 -2.18423,1.19991 -1.90287,6.11574 l 0.31666,5.53526 8.12147,0.30466 8.12151,0.30467 -0.33172,-23.15517 c -0.31117,-21.743532 -0.47528,-23.424338 -2.68959,-27.569526 l -2.35813,-4.414288 2.61779,0 c 2.48064,0 2.6178,-0.299191 2.6178,-5.712651 l 0,-5.712651 -5.80991,0 c -4.98963,0 -5.88874,0.301586 -6.36846,2.136095 -0.3882,1.48438 -1.07148,1.921595 -2.23976,1.433134 -4.80949,-2.010942 -11.28382,-3.569229 -14.82949,-3.569229 l -3.98957,0 0,33.237166 0,33.23716 6.23199,0 6.23195,0 0,-27.56107 z m -7.62869,-5.41648 c 0.32726,-15.852528 0.71315,-28.955554 0.85788,-29.117781 0.14453,-0.162268 2.54535,0.212924 5.33466,0.833864 7.3166,1.628533 11.45554,4.838358 14.70706,11.405686 2.7333,5.52078 2.84028,6.384186 3.18357,25.706881 l 0.35526,19.99423 -4.25021,0 c -3.5578,0 -4.25025,-0.33856 -4.25025,-2.07732 0,-1.3849 0.69245,-2.07732 2.07732,-2.07732 2.25874,0 2.50926,-2.96715 2.27808,-26.97621 -0.14827,-15.382764 -3.9124,-22.460531 -12.5626,-23.620765 l -4.25674,-0.570961 0,27.661306 c 0,26.7741 -0.0654,27.66127 -2.03436,27.66127 -1.98544,0 -2.02005,-0.69293 -1.43967,-28.82288 z m 21.13128,-27.784161 c 0,-0.856902 0.70108,-1.557979 1.55798,-1.557979 0.85694,0 1.55802,0.701077 1.55802,1.557979 0,0.856904 -0.70108,1.557981 -1.55802,1.557981 -0.8569,0 -1.55798,-0.701077 -1.55798,-1.557981 z m 25.02248,59.328541 c 2.51867,-0.78823 5.33592,-1.74948 6.26057,-2.13606 1.16824,-0.4885 1.85152,-0.0514 2.23974,1.43313 0.47971,1.83448 1.37882,2.13606 6.36845,2.13606 l 5.80987,0 0,-5.71265 c 0,-5.401 -0.14163,-5.71261 -2.59666,-5.71261 -3.05825,0 -3.02205,0.13315 -1.04193,-3.83601 1.64196,-3.29136 3.63859,-12.40051 3.63859,-16.60009 0,-2.4674 -0.10163,-2.49194 -9.0883,-2.19522 l -9.08827,0.30022 -0.31664,4.93363 c -0.30398,4.73963 -0.2071,4.93366 2.4729,4.93366 2.6288,0 2.75409,0.21806 2.17536,3.78424 -0.57629,3.55136 -4.16316,8.67967 -6.07069,8.67967 -1.26244,0 -1.04466,-28.108311 0.26496,-34.215455 0.76697,-3.576317 2.00119,-5.928931 3.89498,-7.424574 l 2.77224,-2.18943 0.3194,4.257506 0.31937,4.257505 6.17225,0 6.17227,0 0,-10.011542 0,-10.011545 -6.38867,0.579314 c -13.29957,1.20597 -23.12128,9.437263 -25.72013,21.555289 -0.62063,2.893759 -1.12837,14.118902 -1.12837,24.944762 l 0,19.68347 3.98957,0 c 2.19429,0 6.05031,-0.64494 8.56895,-1.43317 z m -8.39788,-18.56109 c 0.003,-8.71178 0.46488,-18.643973 1.02565,-22.07155 1.76301,-10.775848 9.0126,-18.139421 19.51162,-19.81824 l 4.3846,-0.701145 0,5.845369 c 0,5.152952 -0.24613,5.845404 -2.07731,5.845404 -1.74213,0 -2.07732,-0.692452 -2.07732,-4.29143 l 0,-4.291394 -4.25672,0.570961 c -9.96784,1.336975 -12.36187,7.752005 -12.36187,33.124745 0,17.91595 0.0678,18.51087 2.11069,18.51087 7.30819,0 13.27553,-6.87545 13.75366,-15.84678 0.20606,-3.86438 -0.0528,-4.44797 -2.10208,-4.73901 -3.95222,-0.56131 -2.58508,-2.26474 1.81766,-2.26474 4.01327,0 4.15462,0.11741 4.15462,3.45027 0,9.83638 -6.9543,19.06653 -16.10062,21.36958 -8.27453,2.08355 -7.78929,2.99967 -7.78258,-14.69291 z m 20.76724,14.28157 c 0,-0.86553 0.92326,-1.55798 2.07732,-1.55798 1.15407,0 2.07731,0.69245 2.07731,1.55798 0,0.86557 -0.92324,1.55802 -2.07731,1.55802 -1.15406,0 -2.07732,-0.69245 -2.07732,-1.55802 z m 113.21406,-27.52451 0,-33.237126 -6.24858,0 -6.24857,0 0.10401,26.571586 c 0.0572,14.61438 -0.10231,26.77773 -0.3541,27.02965 -1.24367,1.24366 -3.89383,-1.2479 -5.45017,-5.12399 -1.25344,-3.12182 -1.9005,-8.91012 -2.31313,-20.693085 L 477.62953,80.819 l 2.75177,0 c 2.64547,0 2.75179,-0.222166 2.75179,-5.754653 l 0,-5.754621 -8.56896,0.301588 -8.56899,0.301586 0.0976,21.292556 c 0.10503,22.968844 0.81188,26.870294 6.13279,33.846324 4.50619,5.90795 14.50144,10.44541 23.6314,10.72775 l 2.8563,0.0883 0,-33.23716 z m -9.34794,28.06737 c -6.30899,-1.34711 -8.93802,-2.84967 -12.72272,-7.27122 -5.0856,-5.94135 -5.97321,-10.64353 -5.97321,-31.642686 l 0,-18.235954 4.15463,0 c 4.56738,0 6.05402,2.701749 1.81767,3.303382 -2.32519,0.330342 -2.33694,0.426227 -2.32519,19.027816 0.0102,16.904352 0.22524,19.160262 2.23981,23.541922 2.54881,5.54365 6.07496,8.27672 10.96765,8.50084 l 3.39934,0.15575 0.27694,-27.26486 c 0.23654,-23.28289 0.50194,-27.264825 1.81763,-27.264825 1.32526,0 1.5408,4.068509 1.5408,29.082525 0,15.99535 -0.35058,29.02875 -0.779,28.96306 -0.42848,-0.0657 -2.41488,-0.46878 -4.41432,-0.89573 z m 28.04382,-21.83541 c 0,-28.361905 0.25605,-29.809555 4.45286,-25.172175 2.70065,2.984201 3.80406,10.274036 3.83105,25.310705 0.024,13.4241 -0.0856,14.18946 -2.10909,14.71863 -1.87087,0.48924 -2.09534,1.2417 -1.81767,6.09345 l 0.31664,5.53526 8.04963,0.30329 8.04962,0.3033 0,-19.60504 c 0,-20.179903 -1.26595,-30.704074 -4.02418,-33.454058 -1.39031,-1.386134 -1.25454,-1.594231 1.23076,-1.886645 2.64906,-0.311512 2.79342,-0.620287 2.79342,-5.972301 l 0,-5.64364 -6.23195,0 c -5.64502,0 -6.23196,0.206079 -6.23196,2.188437 0,1.679539 -0.42271,2.01279 -1.81766,1.433134 -4.98949,-2.073312 -11.38758,-3.621571 -14.966,-3.621571 l -3.98957,0 0,33.237164 0,33.23713 6.23197,0 6.23196,0 0,-27.00518 z m -8.30928,-6.36471 0,-29.215245 4.24994,0.679578 c 5.20592,0.832462 11.08167,3.75412 14.1367,7.029295 4.98727,5.346639 5.83575,9.468001 6.3262,30.727422 l 0.46125,19.99423 -4.27775,0 c -3.58534,0 -4.27776,-0.33616 -4.27776,-2.07732 0,-1.3849 0.69242,-2.07732 2.07731,-2.07732 1.995,0 2.07732,-0.69245 2.07732,-17.46874 0,-25.016174 -2.5352,-31.810224 -12.36186,-33.128235 l -4.25672,-0.570961 0,27.661306 c 0,26.96882 -0.0521,27.66127 -2.07731,27.66127 -2.02809,0 -2.07732,-0.69245 -2.07732,-29.21528 z M 529.8728,75.106349 c 0,-0.865529 0.92329,-1.557979 2.07733,-1.557979 1.15404,0 2.07729,0.69245 2.07729,1.557979 0,0.86553 -0.92325,1.557981 -2.07729,1.557981 -1.15404,0 -2.07733,-0.692451 -2.07733,-1.557981 z M 162.18681,101.24599 c 0,-1.953599 -0.99959,-2.71958 -2.69823,-2.067764 -2.20929,0.847794 -1.74085,3.452634 0.62087,3.452634 1.1425,0 2.07736,-0.6232 2.07736,-1.38487 z m 27.00516,-0.0459 c 0,-0.21567 -0.81797,-1.03361 -1.81769,-1.817672 -1.64737,-1.29196 -1.6841,-1.255229 -0.39214,0.392167 1.35687,1.730135 2.20983,2.280345 2.20983,1.425505 z M 150.7615,97.928363 c 0,-1.810717 -6.09144,-3.124038 -7.58101,-1.634488 -1.35697,1.356968 -0.12087,2.823445 2.90706,3.447876 2.7925,0.575989 4.67395,-0.154045 4.67395,-1.813388 z m 295.8278,1.726369 c 0.75208,-0.476889 1.53426,-1.755089 1.7382,-2.840424 0.20369,-1.085335 0.40656,-2.090189 0.45027,-2.233006 0.67051,-2.190834 -2.33557,-2.443571 -6.37641,-0.536078 -2.03533,0.960798 -2.63476,1.835228 -2.15308,3.14095 1.16078,3.146736 3.7078,4.138306 6.34102,2.468558 z m 16.80922,-3.89625 c 0,-0.790254 -0.46742,-1.436832 -1.03871,-1.436832 -0.5712,0 -1.03865,0.467406 -1.03865,1.038675 0,0.571234 -0.35053,0.983289 -0.77898,0.915646 -1.67509,-0.264616 -2.43347,0.165349 -1.87789,1.064144 0.85749,1.387505 4.73423,0.09242 4.73423,-1.581633 z m -304.32771,1.221134 c 0,-0.251951 -0.46741,-0.746915 -1.03869,-1.099987 -0.57125,-0.353038 -1.03863,-0.147202 -1.03863,0.458029 0,0.604987 0.46738,1.099987 1.03863,1.099987 0.57128,0 1.03869,-0.20608 1.03869,-0.458029 z m 298.56022,-2.746689 c -0.33446,-0.541112 -1.05077,-0.710218 -1.59188,-0.375804 -0.54111,0.33445 -0.71022,1.050761 -0.37579,1.59187 0.33444,0.541112 1.05079,0.710218 1.5919,0.375804 0.5411,-0.33445 0.71018,-1.05076 0.37577,-1.59187 z m -3.58046,-4.004632 c 0,-1.4026 -1.89345,-2.3749 -3.13298,-1.608815 -0.58054,0.358788 -0.78666,1.087492 -0.45798,1.619289 0.77967,1.261564 3.59096,1.253348 3.59096,-0.01021 z M 288.9034,87.051024 c 0,-0.571268 -0.46738,-1.038675 -1.03864,-1.038675 -0.57127,0 -1.03865,0.467407 -1.03865,1.038675 0,0.571235 0.46738,1.038643 1.03865,1.038643 0.57126,0 1.03864,-0.467408 1.03864,-1.038643 z M 161.14808,86.012349 c 0,-0.571269 -0.46733,-1.038677 -1.03863,-1.038677 -0.57128,0 -1.03864,0.467408 -1.03864,1.038677 0,0.571268 0.46736,1.038641 1.03864,1.038641 0.5713,0 1.03863,-0.467373 1.03863,-1.038641 z m -9.34794,-8.969342 c 0,-0.906985 -0.73099,-1.427828 -1.73154,-1.233766 -2.53192,0.491029 -2.79883,2.462124 -0.35831,2.645952 1.24153,0.09346 2.08985,-0.479698 2.08985,-1.412186 z m 5.19335,0.660068 c 0,-0.571268 -0.20609,-1.038676 -0.45804,-1.038676 -0.25194,0 -0.7469,0.467408 -1.09998,1.038676 -0.35307,0.571235 -0.14692,1.038641 0.45803,1.038641 0.605,0 1.09999,-0.467406 1.09999,-1.038641 z m 144.37384,-22.85057 c 0,-0.571269 -0.70111,-1.038643 -1.55797,-1.038643 -0.85691,0 -1.55798,0.467374 -1.55798,1.038643 0,0.571268 0.70107,1.038676 1.55798,1.038676 0.85686,0 1.55797,-0.467408 1.55797,-1.038676 z m 7.27068,-1.038643 c 0,-0.571269 -0.20609,-1.038675 -0.45807,-1.038675 -0.25195,0 -0.74687,0.467406 -1.09999,1.038675 -0.35303,0.571234 -0.14691,1.038643 0.45807,1.038643 0.60496,0 1.09999,-0.467409 1.09999,-1.038643 z m 72.34782,-5.757461 c 0.78598,-2.048153 0.0538,-2.768365 -2.00922,-1.976641 -2.5946,0.995611 -3.08769,3.579432 -0.68311,3.579432 1.14253,0 2.35406,-0.72124 2.69233,-1.602791 z"
       id="path4147"
       inkscape:connector-curvature="0" />
  </g>
</svg>
