<?xml version="1.0" encoding="UTF-8" standalone="no"?>
<!-- Created with Inkscape (http://www.inkscape.org/) -->

<svg
   xmlns:dc="http://purl.org/dc/elements/1.1/"
   xmlns:cc="http://creativecommons.org/ns#"
   xmlns:rdf="http://www.w3.org/1999/02/22-rdf-syntax-ns#"
   xmlns:svg="http://www.w3.org/2000/svg"
   xmlns="http://www.w3.org/2000/svg"
   xmlns:sodipodi="http://sodipodi.sourceforge.net/DTD/sodipodi-0.dtd"
   xmlns:inkscape="http://www.inkscape.org/namespaces/inkscape"
   width="446.2742mm"
   height="114.75787mm"
   viewBox="0 0 1581.2865 406.62236"
   id="svg4151"
   version="1.1"
   inkscape:version="0.91 r13725"
   sodipodi:docname="fading-suns-black.svg">
  <defs
     id="defs4153" />
  <sodipodi:namedview
     id="base"
     pagecolor="#ffffff"
     bordercolor="#666666"
     borderopacity="1.0"
     inkscape:pageopacity="0.0"
     inkscape:pageshadow="2"
     inkscape:zoom="0.04"
     inkscape:cx="-720.52745"
     inkscape:cy="751.80591"
     inkscape:document-units="px"
     inkscape:current-layer="layer1"
     showgrid="false"
     fit-margin-top="0"
     fit-margin-left="0"
     fit-margin-right="0"
     fit-margin-bottom="0"
     inkscape:window-width="834"
     inkscape:window-height="385"
     inkscape:window-x="2862"
     inkscape:window-y="269"
     inkscape:window-maximized="0" />
  <metadata
     id="metadata4156">
    <rdf:RDF>
      <cc:Work
         rdf:about="">
        <dc:format>image/svg+xml</dc:format>
        <dc:type
           rdf:resource="http://purl.org/dc/dcmitype/StillImage" />
        <dc:title></dc:title>
      </cc:Work>
    </rdf:RDF>
  </metadata>
  <g
     inkscape:label="Capa 1"
     inkscape:groupmode="layer"
     id="layer1"
     transform="translate(-3143.0184,-60.906241)">
    <g
       transform="matrix(2.2117928,0,0,2.2117928,3114.7007,8.5029107)"
       id="layer1-6"
       inkscape:label="Capa 1">
      <path
         inkscape:connector-curvature="0"
         id="path4147"
         d="m 394.25497,202.81617 c -1.09157,-2.85819 -3.48081,-6.12721 -6.05823,-8.28895 l -4.2558,-3.56947 c 3.01066,-5.77881 -2.38881,-7.73784 -3.62456,-6.26813 4.5136,1.86963 3.88517,5.68979 -1.0499,6.38227 -2.07321,0.29098 -2.91073,1.35793 -4.15463,5.29259 -0.85695,2.71052 -2.06075,4.93065 -2.67526,4.93366 -2.8689,0.0136 -7.20997,-6.98456 -10.30473,-16.61317 -2.15551,-6.70626 -3.25171,-8.30927 -5.68213,-8.30927 -2.86158,0 -5.30833,3.56333 -6.17296,8.99 l -0.80169,5.03196 -1.34669,-3.11596 c -2.12016,-4.90557 -1.94366,-16.15255 0.30739,-19.5892 1.48579,-2.26841 1.62443,-3.19767 0.65179,-4.36959 -1.77732,-2.14156 -3.50748,-1.8504 -7.13319,1.2005 -3.69244,3.10695 -4.0492,2.06862 -1.63771,-4.7663 0.85686,-2.42872 1.55797,-4.59075 1.55797,-4.80457 0,-0.21361 -7.82892,-0.37002 -17.39756,-0.34716 -16.70796,0.04 -17.27405,0.10912 -14.28158,1.74431 1.71377,0.9365 5.34513,1.70877 8.06958,1.71614 5.46477,0.0136 5.77445,0.9621 1.38093,4.22471 -2.54736,1.8917 -3.9886,2.08734 -12.39842,1.68299 -15.49925,-0.74527 -31.12062,-0.63894 -34.24562,0.23312 -1.60473,0.44776 -5.00602,2.7391 -7.55839,5.09183 -4.88868,4.50619 -5.26806,3.07231 -0.79041,-2.9872 2.14232,-2.89913 7.64995,-6.11059 18.01783,-10.50602 2.04315,-0.86622 0.0461,-1.11583 -9.36703,-1.17116 l -11.96357,-0.0701 -5.17425,4.28459 c -9.59702,7.9469 -24.86845,17.39463 -26.10999,16.15306 -0.26427,-0.26427 0.80101,-2.77586 2.36734,-5.58123 4.9431,-8.8536 3.21481,-9.68491 -15.70742,-7.55536 -12.66674,1.42552 -18.65764,3.30062 -26.27483,8.22387 -3.54367,2.29039 -6.44304,3.79123 -6.44304,3.33529 0,-2.06351 8.30487,-10.1902 15.73217,-15.39466 l 8.15705,-5.71581 0,-7.18413 0,-7.18419 -3.37568,-0.15919 c -5.29779,-0.24989 -15.64576,0.24442 -17.74675,0.84725 -1.61594,0.46378 -1.87524,1.52365 -1.69816,6.9406 0.11508,3.51627 0.15543,6.94429 0.0897,7.61785 -0.0884,0.9055 -9.25302,1.32372 -35.17427,1.60505 -29.56951,0.32075 -35.74556,0.65031 -39.46912,2.10493 -4.74408,1.85335 -5.27208,1.28769 -2.95757,-3.16852 2.04898,-3.94494 5.63402,-6.33278 21.27596,-14.17095 7.5395,-3.77808 13.98608,-7.5933 14.32566,-8.47831 1.27101,-3.31225 -2.17651,-4.70324 -14.32914,-5.78153 -20.33234,-1.80404 -35.578906,0.79402 -40.007221,6.8173 -1.591814,2.16512 -1.602011,2.16047 -0.890328,-0.40648 1.370696,-4.94348 6.955399,-9.17234 19.204879,-14.54225 11.70401,-5.13077 17.51269,-9.14071 16.23518,-11.20776 -0.4008,-0.6485 -3.66526,-0.0541 -8.69704,1.58407 -6.30059,2.05099 -9.75235,2.55732 -15.845325,2.32437 -13.810886,-0.5281 -19.181587,-0.45529 -20.773224,0.28139 -1.131926,0.52403 -2.126134,-0.47706 -3.635299,-3.66029 -1.142537,-2.40985 -3.245872,-4.99097 -4.673974,-5.73583 -4.062963,-2.119044 -15.086653,-0.798533 -27.186331,3.25659 -5.898635,1.97688 -10.958511,3.36254 -11.244146,3.07926 -1.168964,-1.15948 8.177754,-7.837446 17.03108,-12.168344 9.341276,-4.569498 32.391699,-14.105761 34.095578,-14.105761 0.483705,0 0.384935,0.924067 -0.219432,2.053492 -0.872896,1.631033 -0.666708,2.485814 1.00212,4.154638 4.149914,4.149912 16.832983,2.118259 22.565953,-3.614691 4.18916,-4.189142 4.2811,-6.051174 0.48621,-9.846064 -5.78992,-5.789948 -23.532718,-8.069613 -49.087645,-6.307027 -14.155155,0.976306 -35.782298,3.915012 -43.011612,5.844411 -1.893011,0.505201 -1.866208,0.370395 0.302271,-1.519125 3.011998,-2.624624 12.261769,-6.126931 20.990285,-7.947678 18.159275,-3.78801 23.957233,-4.065394 86.728171,-4.149297 59.74761,-0.07975 62.59831,-0.170819 69.07095,-2.206511 3.71321,-1.167732 10.37358,-2.44511 14.80092,-2.838575 l 8.04962,-0.715388 0,3.195072 0,3.195071 5.45296,-0.630524 c 15.17497,-1.754715 23.23394,-4.595823 26.29712,-9.270825 1.6603,-2.533874 1.24646,-6.788778 -0.66024,-6.788778 -0.53276,0 -0.96868,-0.411917 -0.96868,-0.915371 0,-0.503454 2.22015,-1.473222 4.93367,-2.155095 2.71349,-0.681873 10.30872,-2.912859 16.87823,-4.957725 10.4807,-3.262337 13.34485,-3.730157 23.36987,-3.81721 13.36981,-0.116049 17.36816,1.008176 24.00071,6.74859 2.57885,2.231978 5.12776,4.058135 5.66432,4.058135 1.31093,0 1.23471,-2.768161 -0.14759,-5.350541 -1.57191,-2.937131 -0.45715,-3.55232 2.69476,-1.48712 3.65121,2.392358 4.36588,4.776568 5.07819,16.940947 0.33752,5.765437 0.88439,11.187729 1.21507,12.049527 0.82281,2.144174 10.58798,4.471868 12.16107,2.898791 0.67071,-0.670713 4.80908,-1.162392 9.78327,-1.162392 l 8.62096,0 0,4.786566 c 0,4.699545 0.0521,4.773795 2.85632,4.084288 4.26763,-1.049253 7.22527,-3.27449 10.66689,-8.025487 3.58704,-4.95177 3.95588,-9.092576 1.04466,-11.727231 -1.89521,-1.715142 -2.24235,-1.730306 -4.57782,-0.199916 -2.26747,1.48568 -2.59043,1.491021 -3.14263,0.05202 -0.33855,-0.88213 -0.61547,-2.299212 -0.61547,-3.149063 0,-2.883318 27.18344,-28.406095 30.25437,-28.406095 0.47306,0 -0.99923,2.876847 -3.27181,6.392984 -2.27262,3.516171 -4.13202,6.958606 -4.13202,7.649892 0,0.691287 0.96875,2.488412 2.1527,3.993607 3.06366,3.894814 7.54771,3.691029 11.48305,-0.521803 1.67417,-1.792197 3.266,-3.036472 3.53741,-2.765078 0.67676,0.676771 -1.6165,7.062292 -2.53635,7.062292 -0.40693,0 -2.23079,1.457647 -4.05303,3.239231 -3.61179,3.531199 -4.1786,6.174753 -1.75512,8.186037 0.85686,0.711142 1.55794,2.495536 1.55794,3.965298 0,1.495883 1.2494,3.97639 2.8381,5.634636 2.33032,2.432342 2.57001,3.12801 1.33964,3.888413 -2.29849,1.420537 1.25688,4.764896 7.56835,7.119324 l 5.22641,1.949598 3.98039,-5.960733 c 4.0706,-6.09571 12.01052,-12.444261 18.25657,-14.597437 1.85663,-0.640008 3.3637,-1.702201 3.34904,-2.360386 -0.0102,-0.658184 -1.65047,-3.745732 -3.63529,-6.861213 -5.80267,-9.108325 -4.70585,-16.190129 3.09456,-19.979852 4.59325,-2.231567 7.33088,-1.996289 4.91241,0.422187 -1.78196,1.781999 -1.5068,6.619466 0.49011,8.616374 3.40617,3.406214 9.70608,4.746203 9.70608,2.064549 0,-2.43032 3.53493,-1.832248 6.24959,1.057401 4.73724,5.042554 21.05272,8.108536 51.91542,9.755895 32.46787,1.733012 118.04433,2.475647 137.12086,1.189915 16.99674,-1.145548 17.32811,-1.126618 35.81013,2.046613 10.26006,1.761594 23.80664,3.866914 30.10358,4.678527 l 11.44894,1.475652 -20.77321,-0.737227 c -38.98908,-1.383703 -41.57567,-1.248998 -49.67554,2.58738 -5.32532,2.522235 -7.00309,3.81512 -6.73946,5.193313 0.31357,1.638528 2.25192,1.903384 18.10397,2.473284 20.25435,0.728189 24.92563,1.267998 35.50577,4.10315 8.07925,2.164987 21.25147,8.291132 19.28342,8.968383 -0.64849,0.223195 -6.72467,-0.558433 -13.50259,-1.736811 -18.32305,-3.185588 -33.21884,-3.650498 -44.0027,-1.373331 -5.54475,1.170847 -8.82861,2.361927 -8.82861,3.202158 0,0.735824 1.83328,2.371716 4.07387,3.635333 7.43488,4.192806 5.27096,4.846027 -5.31408,1.604159 -6.31804,-1.935014 -13.58772,-3.334842 -19.14708,-3.68692 -9.48069,-0.600366 -18.56249,0.267354 -18.56249,1.773541 0,0.495751 2.68754,1.451997 5.97231,2.125003 3.28474,0.673007 11.09564,3.100968 17.35754,5.395456 8.87076,3.250424 13.61011,4.346611 21.45965,4.963443 5.5409,0.435435 10.59106,1.110979 11.22257,1.501259 3.49047,2.15725 -1.33,3.16546 -34.90157,7.2998 -23.7418,2.92385 -31.8451,5.04772 -32.3337,8.47478 -0.57102,4.00491 4.90303,6.86043 24.58177,12.82287 9.73853,2.95073 11.26673,3.76563 16.07138,8.5703 2.92024,2.92025 4.78855,5.48323 4.15172,5.6955 -0.63678,0.21224 -3.89608,-0.53553 -7.24281,-1.66174 -12.0911,-4.06875 -35.52027,-5.10277 -58.2777,-2.57201 l -5.45296,0.60639 0,6.63162 0,6.63162 -17.91692,0.12733 c -9.85427,0.0701 -22.82459,0.42052 -28.82283,0.779 l -10.90593,0.65171 3.49497,1.90601 c 2.12351,1.15809 3.86938,1.53166 4.4491,0.95197 0.5797,-0.57968 3.28412,-0.15338 6.89161,1.08688 4.11182,1.41338 9.92978,2.2096 18.92079,2.58932 11.62053,0.49079 12.65554,0.68401 9.86091,1.84038 -5.24275,2.16933 -29.00738,5.75092 -38.66191,5.82671 -5.01056,0.0393 -11.1027,-0.47196 -13.53809,-1.13627 -5.23077,-1.42681 -10.89747,-6.0927 -12.70795,-10.4636 -1.07606,-2.59771 -1.88082,-3.12074 -4.80197,-3.12074 -1.93008,0 -3.5093,0.21601 -3.5093,0.48039 0,0.26427 0.98357,3.10918 2.18575,6.32219 1.71889,4.59421 2.03561,7.04271 1.4832,11.46429 -0.38633,3.09226 -1.10436,5.62234 -1.59563,5.62234 -0.49126,0 -1.8823,-1.38901 -3.09117,-3.08677 -2.6183,-3.67701 -12.2157,-8.38402 -22.35202,-10.96236 -7.42758,-1.88935 -15.0606,-5.39416 -15.0606,-6.91538 0,-1.15147 0.74937,-1.0702 6.65671,0.72187 2.80427,0.85069 6.45913,1.54675 8.12186,1.54675 2.54103,0 2.97022,-0.3727 2.69124,-2.33702 -0.31083,-2.18774 -1.03896,-2.39605 -11.40545,-3.26239 -6.09044,-0.50901 -11.81606,-0.64053 -12.7236,-0.29235 -1.17171,0.44964 -1.65003,1.99759 -1.65003,5.33975 l 0,4.70657 -4.80382,0 c -5.36355,0 -5.12882,-0.88846 -2.56646,9.71231 1.09728,4.53959 0.91133,4.56766 -8.11933,1.22552 -4.06682,-1.50509 -4.75865,-1.52132 -6.13589,-0.14418 -1.3773,1.37726 -1.35982,2.05663 0.15475,6.02557 0.93893,2.46027 1.99081,6.81026 2.33761,9.66658 l 0.6306,5.19331 -2.78473,-3.39621 c -3.08217,-3.75906 -7.61651,-6.47109 -10.81919,-6.47109 -2.64938,0 -5.47517,3.02909 -8.56711,9.18333 -2.81471,5.60263 -7.92402,12.62854 -9.18353,12.62854 -0.47603,0 -1.67659,-2.12374 -2.66785,-4.71947 z M 380.98583,48.056401 c 0.78598,-2.048153 0.0538,-2.768365 -2.00922,-1.976641 -2.5946,0.995611 -3.08769,3.579432 -0.68311,3.579432 1.14253,0 2.35406,-0.72124 2.69233,-1.602791 z"
         style="fill:#000000"
         sodipodi:nodetypes="cscccccssscsccccssccsscsscccsscsssscccccccscsscsscsscscscscsscssssscsscscccssssssssscsccsscscssccsssscscsscsssscsscsssssssssscsscsscssscsssssscsssscsscccsscsscsssscsscsscsssscscscsssccccsscsccccsc" />
    </g>
  </g>
</svg>
