<?xml version="1.0" encoding="UTF-8" standalone="no"?>
<!-- Created with Inkscape (http://www.inkscape.org/) -->

<svg
   xmlns:dc="http://purl.org/dc/elements/1.1/"
   xmlns:cc="http://creativecommons.org/ns#"
   xmlns:rdf="http://www.w3.org/1999/02/22-rdf-syntax-ns#"
   xmlns:svg="http://www.w3.org/2000/svg"
   xmlns="http://www.w3.org/2000/svg"
   xmlns:sodipodi="http://sodipodi.sourceforge.net/DTD/sodipodi-0.dtd"
   xmlns:inkscape="http://www.inkscape.org/namespaces/inkscape"
   width="865.80609mm"
   height="258.41742mm"
   viewBox="0 0 3067.8169 915.65227"
   id="svg2"
   version="1.1"
   inkscape:version="0.92.5 (2060ec1f9f, 2020-04-08)"
   sodipodi:docname="ThinkMachine_logo_fenix.svg"
   inkscape:export-filename="/home/jhortelano/workspace/ThinkMachine/images/ThinkMachine_logo_fenix.png"
   inkscape:export-xdpi="96"
   inkscape:export-ydpi="96">
  <defs
     id="defs4">
    <filter
       style="color-interpolation-filters:sRGB"
       height="1.4"
       width="1.4"
       y="-0.2"
       x="-0.2"
       inkscape:label="Outline"
       id="filter4594">
      <feGaussianBlur
         in="SourceAlpha"
         stdDeviation="20"
         result="blur1"
         id="feGaussianBlur4596" />
      <feComposite
         in="blur1"
         in2="SourceGraphic"
         operator="out"
         result="composite1"
         id="feComposite4598" />
      <feColorMatrix
         values="1 0 0 0 0 0 1 0 0 0 0 0 1 0 0 0 0 0 100 -12.1 "
         result="colormatrix1"
         id="feColorMatrix4600" />
      <feGaussianBlur
         stdDeviation="3.4"
         result="blur2"
         id="feGaussianBlur4602" />
      <feComposite
         in="SourceGraphic"
         in2="blur2"
         operator="atop"
         result="composite2"
         id="feComposite4604" />
      <feColorMatrix
         values="1 0 0 0 0 0 1 0 0 0 0 0 1 0 0 0 0 0 100 -12.2 "
         result="colormatrix2"
         id="feColorMatrix4606" />
      <feGaussianBlur
         stdDeviation="1"
         result="blur3"
         id="feGaussianBlur4608" />
      <feColorMatrix
         values="1 0 0 0 0 0 1 0 0 0 0 0 1 0 0 0 0 0 5 -1 "
         result="colormatrix3"
         id="feColorMatrix4610" />
      <feFlood
         flood-opacity="1"
         flood-color="rgb(0,0,0)"
         result="flood"
         id="feFlood4612" />
      <feComposite
         in="flood"
         in2="colormatrix3"
         operator="in"
         result="composite3"
         id="feComposite4614" />
      <feComposite
         in="SourceGraphic"
         in2="colormatrix3"
         operator="out"
         result="composite4"
         id="feComposite4616" />
      <feComposite
         in="composite4"
         in2="composite3"
         k2="1"
         k3="1"
         operator="arithmetic"
         result="composite5"
         id="feComposite4618"
         k1="0"
         k4="0" />
    </filter>
    <clipPath
       clipPathUnits="userSpaceOnUse"
       id="clipPath4168">
      <path
         sodipodi:nodetypes="cscccccssscsccccssccsscsscccsscsssscccccccscsscsscsscscscscsscssssscsscscccssssssssscsccsscscssccsssscscsscsssscsscsssssssssscsscsscssscsssssscsssscsscccsscsscsssscsscsscsssscscscsssccccsscsccccsc"
         style="fill:#000000"
         d="m 1097.7617,591.11079 c -3.6112,-9.4558 -11.5156,-20.27075 -20.0425,-27.42248 l -14.0795,-11.80894 c 9.9602,-19.11813 -7.903,-25.59923 -11.9912,-20.73696 14.9324,6.18533 12.8533,18.82363 -3.4734,21.11458 -6.8589,0.96265 -9.6297,4.49246 -13.7449,17.50956 -2.835,8.96726 -6.8176,16.31216 -8.8506,16.32212 -9.4912,0.045 -23.8528,-23.10714 -34.09133,-54.96164 -7.1311,-22.18644 -10.7577,-27.4897 -18.7983,-27.4897 -9.46699,0 -17.5616,11.78862 -20.4221,29.74177 l -2.6522,16.64732 -4.45532,-10.30859 c -7.01415,-16.22918 -6.43024,-53.43776 1.01694,-64.80729 4.91548,-7.50462 5.37418,-10.5789 2.15638,-14.45599 -5.87999,-7.08496 -11.60391,-6.12171 -23.59889,3.97164 -12.21578,10.27877 -13.39604,6.84365 -5.41808,-15.76844 2.83477,-8.03497 5.15426,-15.18765 5.15426,-15.89504 0,-0.70669 -25.90054,-1.22414 -57.55665,-1.14851 -55.27523,0.13233 -57.14804,0.361 -47.248,5.77073 5.6697,3.09824 17.68339,5.65315 26.69673,5.67753 18.0792,0.045 19.10372,3.18294 4.56856,13.97669 -8.42747,6.25834 -13.19556,6.90558 -41.01791,5.56786 -51.27644,-2.46559 -102.95689,-2.11382 -113.29538,0.77124 -5.30896,1.48133 -16.56151,9.06181 -25.00556,16.84539 -16.1733,14.9079 -17.42841,10.16417 -2.61492,-9.88261 7.08748,-9.59124 25.30846,-20.21577 59.6087,-34.75725 6.7594,-2.86573 0.15252,-3.69152 -30.9891,-3.87457 l -39.5793,-0.23191 -17.11806,14.17478 c -31.74999,26.29087 -82.27272,57.54696 -86.38013,53.43945 -0.87428,-0.87429 2.64999,-9.18342 7.83191,-18.46448 16.35334,-29.29052 10.63562,-32.04075 -51.96513,-24.99553 -41.9056,4.71608 -61.7254,10.9195 -86.92548,27.20717 -11.72358,7.57734 -21.31562,12.5426 -21.31562,11.0342 0,-6.82674 27.47515,-33.71241 52.04701,-50.93042 l 26.98611,-18.90971 0,-23.76738 0,-23.76759 -11.16782,-0.52665 c -17.52677,-0.82671 -51.76114,0.80862 -58.71188,2.80298 -5.34604,1.53433 -6.20389,5.04071 -5.61805,22.9617 0.38072,11.63294 0.51421,22.97392 0.29675,25.20227 -0.29245,2.99568 -30.61192,4.37928 -116.36765,5.31001 -97.82532,1.06115 -118.25765,2.15144 -130.57637,6.96378 -15.69493,6.13147 -17.44172,4.26009 -9.78458,-10.48247 6.77867,-13.05111 18.63912,-20.95085 70.38763,-46.882 24.94305,-12.49909 46.27039,-25.12105 47.39383,-28.04894 4.2049,-10.95798 -7.20059,-15.55981 -47.40535,-19.12714 -67.26583,-5.96833 -117.70631,2.62687 -132.356575,22.5538 -5.26623,7.1629 -5.29996,7.14752 -2.94549,-1.34477 4.5347,-16.3546 23.010665,-30.34501 63.535825,-48.11038 38.72058,-16.97421 57.93754,-30.24037 53.71113,-37.07883 -1.32597,-2.14544 -12.12584,-0.17898 -28.77257,5.24061 -20.84435,6.78533 -32.26386,8.46043 -52.42136,7.68975 -45.690785,-1.74712 -63.458775,-1.50624 -68.724415,0.93093 -3.74477,1.73366 -7.033924,-1.57826 -12.026721,-12.1094 -3.779875,-7.97255 -10.738375,-16.51171 -15.46299,-18.97595 -13.441571,-7.01047 -49.911436,-2.6418 -89.941012,10.77384 -19.514556,6.54014 -36.254232,11.12435 -37.199202,10.18717 -3.86731,-3.83593 27.054604,-25.92876 56.344217,-40.25675 30.903906,-15.11735 107.162018,-46.66633 112.798998,-46.66633 1.60025,0 1.27348,3.05711 -0.72595,6.7936 -2.88782,5.39598 -2.20569,8.22386 3.31533,13.74486 13.72923,13.72923 55.688855,7.00788 74.655335,-11.95854 13.85907,-13.85901 14.16324,-20.01921 1.60854,-32.57391 -19.15489,-19.15498 -77.853705,-26.69684 -162.397517,-20.86564 -46.829746,3.22993 -118.379203,12.9521 -142.296063,19.33516 -6.26268,1.67137 -6.174,1.22539 1.00001,-5.02575 9.96464,-8.68308 40.56582,-20.26983 69.442522,-26.29344 60.076646,-12.53194 79.258131,-13.44961 286.924318,-13.72719 197.66406,-0.26384 207.09508,-0.56512 228.50862,-7.29984 12.28448,-3.86323 34.31911,-8.0892 48.96614,-9.3909 l 26.63071,-2.366731 0,10.570311 0,10.57031 18.04012,-2.08598 c 50.20362,-5.80515 76.86525,-15.20444 86.99922,-30.670831 5.4928,-8.38286 4.12369,-22.45943 -2.18428,-22.45943 -1.76254,0 -3.2047,-1.36275 -3.2047,-3.02834 0,-1.66558 7.34496,-4.87388 16.32214,-7.12974 8.97709,-2.25585 34.10452,-9.636659 55.83855,-16.401725 34.67348,-10.792846 44.14899,-12.340543 77.31494,-12.628542 44.23158,-0.383927 57.45939,3.335366 79.40197,22.326477 8.53165,7.38409 16.96426,13.4256 18.73937,13.4256 4.33697,0 4.08481,-9.15796 -0.48828,-17.701289 -5.20037,-9.716961 -1.51239,-11.752202 8.91512,-4.919865 12.07937,7.914684 14.44372,15.802404 16.80027,56.046034 1.11662,19.073891 2.92584,37.012551 4.01984,39.863661 2.72211,7.0936 35.02839,14.79435 40.23268,9.59012 2.21892,-2.21893 15.90996,-3.84556 32.36614,-3.84556 l 28.5209,0 0,15.83547 c 0,15.54759 0.1724,15.79323 9.4496,13.51213 14.11872,-3.47127 23.90352,-10.83306 35.28952,-26.55086 11.867,-16.38203 13.0873,-30.08113 3.456,-38.79741 -6.2699,-5.674231 -7.4184,-5.724401 -15.1449,-0.66138 -7.5015,4.9151 -8.5699,4.93277 -10.3968,0.1721 -1.12,-2.918371 -2.0361,-7.606521 -2.0361,-10.418101 0,-9.53893 89.9314,-93.97638 100.091,-93.97638 1.565,0 -3.3058,9.517523 -10.8242,21.15002 -7.5185,11.63261 -13.67,23.021277 -13.67,25.30827 0,2.287 3.2049,8.23246 7.1218,13.21212 10.1356,12.88528 24.9702,12.2111 37.9896,-1.72629 5.5387,-5.92916 10.805,-10.04561 11.7029,-9.14776 2.2389,2.23898 -5.3479,23.36431 -8.3911,23.36431 -1.3462,0 -7.3802,4.82236 -13.4087,10.7164 -11.9489,11.68233 -13.8241,20.428051 -5.8065,27.082011 2.8348,2.35268 5.1542,8.25603 5.1542,13.11847 0,4.94885 4.1334,13.15516 9.3893,18.64116 7.7094,8.04696 8.5024,10.34845 4.432,12.8641 -7.6042,4.69959 4.1581,15.76379 25.0385,23.55299 l 17.2906,6.44989 13.1684,-19.72 c 13.4668,-20.16654 39.7346,-41.16957 60.3985,-48.29295 6.1423,-2.11735 11.1282,-5.63143 11.0797,-7.80891 -0.034,-2.17748 -5.4603,-12.392071 -12.0267,-22.699071 -19.1971,-30.13323 -15.5684,-53.562087 10.2378,-66.099693 15.1959,-7.382732 24.2529,-6.604358 16.2518,1.396728 -5.8953,5.895419 -4.985,21.899295 1.6214,28.505705 11.2687,11.26883 32.1108,15.70194 32.1108,6.83018 0,-8.04027 11.6947,-6.06166 20.6757,3.49822 15.6723,16.68237 69.649,26.82561 171.7526,32.27559 107.4141,5.73336 390.5282,8.19023 453.6394,3.93662 56.2306,-3.78984 57.3269,-3.72721 118.4712,6.770851 33.9436,5.82791 78.76,12.79297 99.5922,15.47805 l 37.8768,4.88192 -68.7244,-2.43898 c -128.9883,-4.57773 -137.5455,-4.13208 -164.3425,8.55988 -17.6178,8.34435 -23.1684,12.62162 -22.2962,17.18112 1.0374,5.42078 7.45,6.297 59.8937,8.18241 67.0078,2.40908 82.4618,4.19494 117.4643,13.57453 26.7287,7.16246 70.3066,27.42969 63.7957,29.67025 -2.1454,0.7384 -22.2474,-1.84747 -44.6709,-5.74592 -60.6184,-10.53894 -109.8984,-12.077 -145.5749,-4.54341 -18.3438,3.87353 -29.2078,7.814 -29.2078,10.59375 0,2.43434 6.0651,7.84639 13.4776,12.02684 24.597,13.87113 17.4381,16.03219 -17.5806,5.30706 -20.9021,-6.40164 -44.9525,-11.03271 -63.3446,-12.1975 -31.3652,-1.9862 -61.4106,0.88449 -61.4106,5.86744 0,1.6401 8.8912,4.80367 19.7583,7.03018 10.8669,2.22652 36.7079,10.25899 57.4242,17.84988 29.3473,10.75344 45.0266,14.37997 70.9953,16.42065 18.3311,1.44056 35.0386,3.67547 37.1279,4.96664 11.5475,7.13687 -4.4001,10.47235 -115.4655,24.15006 -78.5454,9.67302 -105.3537,16.69946 -106.9702,28.03726 -1.8891,13.24951 16.2208,22.69648 81.3243,42.42212 32.2182,9.76195 37.274,12.4579 53.1693,28.35327 9.6611,9.66112 15.842,18.14027 13.7352,18.84253 -2.1067,0.70215 -12.8895,-1.77171 -23.9615,-5.49757 -40.0012,-13.46071 -117.5124,-16.88158 -192.8012,-8.50902 l -18.0401,2.00613 0,21.9395 0,21.93951 -59.2748,0.42124 c -32.6011,0.23192 -75.511,1.39122 -95.3551,2.57718 l -36.0803,2.15607 11.5625,6.30568 c 7.0252,3.83133 12.8011,5.06722 14.719,3.14942 1.9178,-1.91776 10.8649,-0.50743 22.7996,3.59575 13.6032,4.6759 32.8509,7.31005 62.596,8.56629 38.4444,1.62369 41.8686,2.26292 32.623,6.08856 -17.3446,7.17683 -95.9656,19.02587 -127.9058,19.2766 -16.5765,0.13002 -36.7313,-1.56139 -44.7883,-3.75914 -17.3051,-4.72034 -36.0523,-20.15658 -42.042,-34.61691 -3.5599,-8.59405 -6.2223,-10.3244 -15.8864,-10.3244 -6.3853,0 -11.6099,0.71463 -11.6099,1.58929 0,0.87429 3.254,10.28615 7.2312,20.91581 5.6866,15.1991 6.7344,23.29952 4.9069,37.92751 -1.2781,10.23018 -3.6536,18.60048 -5.2789,18.60048 -1.6252,0 -6.2272,-4.59528 -10.2265,-10.21201 -8.6622,-12.16472 -40.4135,-27.737 -73.9476,-36.26697 -24.5728,-6.25057 -49.8253,-17.84559 -49.8253,-22.87827 0,-3.80943 2.4792,-3.54056 22.0225,2.38818 9.2775,2.81435 21.3689,5.11714 26.8697,5.11714 8.4066,0 9.8265,-1.23301 8.9035,-7.73161 -1.0283,-7.23774 -3.4372,-7.92689 -37.7328,-10.79302 -20.1491,-1.68397 -39.0913,-2.11908 -42.0937,-0.96719 -3.8764,1.48756 -5.4589,6.60867 -5.4589,17.66559 l 0,15.57083 -15.8925,0 c -17.7444,0 -16.9678,-2.93931 -8.4907,32.1314 3.6302,15.01841 3.015,15.11127 -26.8613,4.05441 -13.4543,-4.97931 -15.7431,-5.03301 -20.2995,-0.47699 -4.5565,4.55641 -4.4987,6.80398 0.512,19.9345 3.1063,8.13935 6.5862,22.5305 7.7335,31.98011 l 2.0863,17.18112 -9.2128,-11.23574 c -10.1968,-12.43616 -25.1978,-21.40842 -35.7933,-21.40842 -8.765,0 -18.1136,10.02119 -28.3428,30.38137 -9.3119,18.53528 -26.2151,41.77922 -30.382,41.77922 -1.5748,0 -5.5467,-7.02601 -8.8261,-15.61351 z M 1053.8632,79.116359 c 2.6003,-6.77594 0.178,-9.15863 -6.6471,-6.53936 -8.5838,3.2938 -10.2151,11.8419 -2.26,11.8419 3.7799,0 7.788,-2.38609 8.9071,-5.30254 z"
         id="path4170"
         inkscape:connector-curvature="0" />
    </clipPath>
    <clipPath
       clipPathUnits="userSpaceOnUse"
       id="clipPath4199">
      <path
         sodipodi:nodetypes="cscccccssscsccccssccsscsscccsscsssscccccccscsscsscsscscscscsscssssscsscscccssssssssscsccsscscssccsssscscsscsssscsscsssssssssscsscsscssscsssssscsssscsscccsscsscsssscsscsscsssscscscsssccccsscsccccsc"
         style="fill:#000000"
         d="m 1251.9118,576.2742 c -3.5284,-9.23899 -11.2516,-19.80602 -19.583,-26.79374 l -13.7567,-11.53814 c 9.7319,-18.67985 -7.7217,-25.01234 -11.7162,-20.26153 14.59,6.04348 12.5586,18.392 -3.3938,20.63047 -6.7016,0.94053 -9.4089,4.3894 -13.4297,17.10803 -2.77,8.7617 -6.6613,15.93819 -8.6477,15.94796 -9.2736,0.044 -23.3059,-22.57739 -33.3096,-53.70151 -6.9676,-21.67769 -10.5111,-26.85939 -18.3672,-26.85939 -9.2499,0 -17.1589,11.5183 -19.9538,29.05986 l -2.5914,16.2656 -4.3533,-10.07224 c -6.8533,-15.85709 -6.2827,-52.21245 0.9937,-63.32136 4.8028,-7.33253 5.251,-10.33634 2.107,-14.12454 -5.7452,-6.92245 -11.338,-5.98134 -23.0579,3.88063 -11.9357,10.04312 -13.0889,6.68669 -5.2938,-15.40695 2.7698,-7.85067 5.036,-14.83937 5.036,-15.53055 0,-0.69049 -25.3066,-1.19603 -56.2369,-1.12216 -54.00783,0.12926 -55.83773,0.35272 -46.16473,5.63838 5.53971,3.02726 17.278,5.52358 26.08463,5.54742 17.6647,0.044 18.6657,3.10992 4.4639,13.65614 -8.2343,6.1149 -12.89313,6.74726 -40.07753,5.44024 -50.1007,-2.40907 -100.59619,-2.06534 -110.69763,0.75351 -5.18723,1.44744 -16.18178,8.85413 -24.43222,16.45916 -15.80246,14.56608 -17.0288,9.93115 -2.55496,-9.656 6.92496,-9.37129 24.72817,-19.75219 58.24195,-33.96027 6.60441,-2.80009 0.14902,-3.60686 -30.27857,-3.78576 l -38.67179,-0.22658 -16.72556,13.84979 c -31.02201,25.68799 -80.38632,56.22743 -84.39956,52.21411 -0.85424,-0.85426 2.58923,-8.97284 7.65234,-18.04114 15.97838,-28.61891 10.39175,-31.30605 -50.77364,-24.42239 -40.94476,4.60797 -60.31012,10.66913 -84.9324,26.58338 -11.45477,7.40356 -20.82688,12.25501 -20.82688,10.7812 0,-6.67027 26.84518,-32.93942 50.85364,-49.76263 l 26.36736,-18.47613 0,-23.22245 0,-23.22264 -10.91176,-0.51462 c -17.1249,-0.80775 -50.57433,0.79016 -57.36569,2.73873 -5.22347,1.49912 -6.06165,4.92512 -5.48924,22.43522 0.37199,11.36627 0.50242,22.44714 0.28995,24.62444 -0.28575,2.92702 -29.91003,4.27889 -113.6995,5.18825 -95.58232,1.03677 -115.54616,2.10207 -127.58243,6.80413 -15.33507,5.99082 -17.04181,4.16242 -9.56023,-10.24215 6.62324,-12.75185 18.21175,-20.47042 68.77373,-45.80706 24.37114,-12.21251 45.20947,-24.54501 46.30716,-27.40577 4.10848,-10.70675 -7.03549,-15.20304 -46.31841,-18.68864 -65.72352,-5.83146 -115.00747,2.56667 -129.32183,22.03667 -5.14548,6.99866 -5.17844,6.98362 -2.87795,-1.31387 4.43072,-15.97961 22.48307,-29.64933 62.07904,-47.00729 37.83277,-16.58501 56.60911,-29.54703 52.47961,-36.22873 -1.29557,-2.09621 -11.84782,-0.1748 -28.11286,5.12053 -20.36642,6.62973 -31.52409,8.26642 -51.21941,7.51339 -44.64316,-1.70704 -62.00375,-1.47166 -67.14866,0.90956 -3.65891,1.69394 -6.87264,-1.54202 -11.75096,-11.83175 -3.69321,-7.7897 -10.49216,-16.13311 -15.10845,-18.54081 -13.13337,-6.84976 -48.76703,-2.58123 -87.87878,10.52677 -19.067115,6.39024 -35.422975,10.86933 -36.346275,9.95362 -3.77863,-3.74795 26.434275,-25.33429 55.052315,-39.33376 30.19532,-14.77068 104.70494,-45.59631 110.21267,-45.59631 1.56356,0 1.24428,2.98701 -0.70931,6.63783 -2.8216,5.27228 -2.15511,8.03534 3.23932,13.42975 13.41444,13.41441 54.41198,6.84722 72.94358,-11.6844 13.5413,-13.54124 13.8385,-19.56019 1.57166,-31.82703 -18.71569,-18.7158 -76.06862,-26.08468 -158.67395,-20.38718 -45.75601,3.15584 -115.664926,12.65513 -139.033414,18.89177 -6.119085,1.63308 -6.032439,1.19731 0.977081,-4.91046 9.736174,-8.48401 39.635708,-19.80504 67.850308,-25.69053 58.699165,-12.24466 77.440845,-13.14132 280.345525,-13.41246 193.13189,-0.25784 202.34667,-0.55224 223.26923,-7.13252 12.00282,-3.77462 33.53221,-7.903721 47.84341,-9.175581 l 26.0201,-2.31243 0,10.327931 0,10.32794 17.62648,-2.03817 c 49.05252,-5.672 75.10284,-14.855781 85.00445,-29.967561 5.36686,-8.19069 4.02914,-21.94444 -2.1342,-21.94444 -1.72213,0 -3.13122,-1.33155 -3.13122,-2.95896 0,-1.62731 7.17655,-4.76205 15.9479,-6.96622 8.77125,-2.20418 33.32255,-9.415749 54.55824,-16.025636 33.87847,-10.545434 43.13672,-12.057647 75.54222,-12.339044 43.21737,-0.375097 56.14187,3.258924 77.58137,21.81458 8.3361,7.2148 16.57533,13.11777 18.30973,13.11777 4.2376,0 3.9912,-8.94802 -0.4771,-17.29543 -5.0812,-9.494105 -1.4777,-11.482738 8.7107,-4.806996 11.8024,7.733129 14.1125,15.440076 16.4151,54.760946 1.091,18.636561 2.8587,36.163851 3.9276,38.949581 2.6597,6.93095 34.2253,14.45518 39.3102,9.37031 2.1681,-2.16812 15.5452,-3.75743 31.6241,-3.75743 l 27.8669,0 0,15.47242 c 0,15.19111 0.1684,15.43108 9.2329,13.20228 13.795,-3.39171 23.3554,-10.58471 34.4804,-25.94212 11.5949,-16.00639 12.7872,-29.39138 3.3767,-37.907831 -6.1261,-5.5441 -7.2483,-5.59315 -14.7976,-0.64614 -7.3295,4.802411 -8.3734,4.819601 -10.1584,0.16816 -1.0944,-2.85149 -1.9894,-7.43219 -1.9894,-10.17923 0,-9.32028 87.8693,-91.82165 97.796,-91.82165 1.5291,0 -3.23,9.299276 -10.576,20.665059 -7.3461,11.36588 -13.3566,22.493452 -13.3566,24.728015 0,2.234566 3.1314,8.043646 6.9585,12.909166 9.9032,12.58986 24.3977,11.93112 37.1186,-1.68672 5.4117,-5.79325 10.5572,-9.815268 11.4345,-8.93805 2.1876,2.18766 -5.2252,22.82859 -8.1987,22.82859 -1.3153,0 -7.2109,4.71182 -13.1012,10.47068 -11.6749,11.41454 -13.5071,19.95971 -5.6734,26.461151 2.7698,2.29866 5.036,8.0667 5.036,12.81761 0,4.83543 4.0387,12.85357 9.1741,18.21378 7.5326,7.8624 8.3074,10.11113 4.3303,12.56915 -7.4298,4.59184 4.0628,15.40235 24.4644,23.01296 l 16.8942,6.30201 12.8665,-19.26785 c 13.158,-19.7042 38.8235,-40.22563 59.0136,-47.1857 6.0015,-2.06876 10.873,-5.50228 10.8257,-7.62986 -0.033,-2.12757 -5.3351,-12.107961 -11.751,-22.178641 -18.7569,-29.44228 -15.2114,-52.333991 10.0031,-64.584121 14.8475,-7.213425 23.6968,-6.452872 15.8791,1.364773 -5.7601,5.760227 -4.8707,21.397179 1.5843,27.852098 11.0103,11.01043 31.3745,15.34188 31.3745,6.6736 0,-7.85595 11.4266,-5.92272 20.2016,3.41799 15.313,16.2998 68.0521,26.21053 167.8146,31.53556 104.9512,5.60185 381.5739,8.00241 443.2381,3.84634 54.9413,-3.703 56.0124,-3.64174 115.7548,6.61556 33.1653,5.694271 76.9541,12.499671 97.3087,15.123211 l 37.0083,4.76996 -67.1487,-2.38308 c -126.0307,-4.47274 -134.3917,-4.03735 -160.5743,8.36364 -17.2138,8.15307 -22.6372,12.3322 -21.785,16.78716 1.0136,5.29651 7.2792,6.15262 58.5204,7.99479 65.4714,2.35386 80.5711,4.09881 114.771,13.26335 26.1159,6.99817 68.6946,26.80077 62.333,28.9899 -2.0962,0.72147 -21.7373,-1.80514 -43.6467,-5.61415 -59.2285,-10.29726 -107.3785,-11.80009 -142.237,-4.43923 -17.9232,3.78469 -28.5381,7.63484 -28.5381,10.3508 0,2.37858 5.926,7.66649 13.1685,11.75114 24.0331,13.55306 17.0383,15.6646 -17.1775,5.18532 -20.4228,-6.25482 -43.9218,-10.77974 -61.8922,-11.91783 -30.646,-1.94066 -60.0025,0.86422 -60.0025,5.73297 0,1.60249 8.6873,4.69346 19.3053,6.869 10.6177,2.17545 35.8662,10.02368 56.1075,17.44053 28.6744,10.50694 43.9942,14.05029 69.3675,16.0442 17.9108,1.40747 34.2352,3.59122 36.2766,4.85272 11.2827,6.97326 -4.2992,10.23228 -112.818,23.59637 -76.7445,9.45121 -102.9381,16.31651 -104.5175,27.39435 -1.8458,12.9458 15.8488,22.1761 79.4596,41.44951 31.4795,9.53808 36.4194,12.17226 51.9502,27.7031 9.4396,9.43968 15.4788,17.72437 13.4203,18.41057 -2.0584,0.686 -12.594,-1.73108 -23.4121,-5.37155 -39.0841,-13.15206 -114.818,-16.49453 -188.3806,-8.3139 l -17.6264,1.9601 0,21.43646 0,21.43646 -57.9157,0.41164 c -31.8536,0.22658 -73.7797,1.3593 -93.1688,2.51801 l -35.253,2.10666 11.2974,6.16112 c 6.8641,3.74345 12.5076,4.95102 14.3815,3.07719 1.8738,-1.87383 10.6158,-0.49577 22.2768,3.51335 13.2913,4.56869 32.0977,7.14239 61.1608,8.36979 37.5629,1.58647 40.9086,2.21111 31.875,5.949 -16.9469,7.01224 -93.7652,18.58966 -124.9731,18.83461 -16.1964,0.12702 -35.8891,-1.5256 -43.7614,-3.67291 -16.9083,-4.61217 -35.2256,-19.69443 -41.078,-33.82318 -3.4783,-8.39705 -6.0796,-10.08768 -15.5221,-10.08768 -6.2389,0 -11.3437,0.69822 -11.3437,1.55277 0,0.85425 3.1793,10.05035 7.0654,20.43632 5.5562,14.85061 6.5799,22.76528 4.7943,37.05788 -1.2487,9.99553 -3.5698,18.17392 -5.1578,18.17392 -1.588,0 -6.0844,-4.48984 -9.992,-9.97786 -8.4636,-11.88578 -39.4869,-27.10103 -72.2521,-35.43535 -24.0094,-6.10728 -48.6829,-17.43642 -48.6829,-22.35373 0,-3.72205 2.4224,-3.45942 21.5176,2.33344 9.0647,2.74978 20.8789,4.99978 26.2536,4.99978 8.2138,0 9.6012,-1.20473 8.6993,-7.55433 -1.0047,-7.07175 -3.3584,-7.74515 -36.8676,-10.54553 -19.6871,-1.64539 -38.195,-2.07051 -41.1286,-0.94502 -3.7875,1.45349 -5.3337,6.45717 -5.3337,17.26055 l 0,15.21378 -15.5281,0 c -17.3375,0 -16.5787,-2.87191 -8.296,31.39467 3.5469,14.67405 2.9459,14.76482 -26.2454,3.96144 -13.1458,-4.86513 -15.3822,-4.9176 -19.8341,-0.46606 -4.452,4.45192 -4.3955,6.64799 0.5003,19.47742 3.0351,7.95278 6.4352,22.01391 7.5562,31.24684 l 2.0384,16.78726 -9.0015,-10.97818 c -9.963,-12.15095 -24.6201,-20.91753 -34.9726,-20.91753 -8.5641,0 -17.6983,9.79143 -27.693,29.6848 -9.0984,18.11031 -25.614,40.82126 -29.6854,40.82126 -1.5387,0 -5.4195,-6.86491 -8.6237,-15.25551 z m -42.892,-500.255061 c 2.5407,-6.62064 0.1739,-8.94871 -6.4947,-6.38947 -8.387,3.21828 -9.9809,11.57039 -2.2082,11.57039 3.6933,0 7.6095,-2.33139 8.7029,-5.18092 z"
         id="path4201"
         inkscape:connector-curvature="0" />
    </clipPath>
  </defs>
  <sodipodi:namedview
     id="base"
     pagecolor="#ffffff"
     bordercolor="#666666"
     borderopacity="1.0"
     inkscape:pageopacity="0.0"
     inkscape:pageshadow="2"
     inkscape:zoom="0.11313708"
     inkscape:cx="6125.2635"
     inkscape:cy="54.682318"
     inkscape:document-units="px"
     inkscape:current-layer="layer1"
     showgrid="false"
     inkscape:window-width="1920"
     inkscape:window-height="1043"
     inkscape:window-x="1920"
     inkscape:window-y="1080"
     inkscape:window-maximized="1"
     fit-margin-top="0"
     fit-margin-left="0"
     fit-margin-right="0"
     fit-margin-bottom="0"
     units="mm" />
  <metadata
     id="metadata7">
    <rdf:RDF>
      <cc:Work
         rdf:about="">
        <dc:format>image/svg+xml</dc:format>
        <dc:type
           rdf:resource="http://purl.org/dc/dcmitype/StillImage" />
        <dc:title />
      </cc:Work>
    </rdf:RDF>
  </metadata>
  <g
     inkscape:label="Capa 1"
     inkscape:groupmode="layer"
     id="layer1"
     transform="translate(731.41591,-35.416016)">
    <path
       style="fill:#000000;stroke:#000000;stroke-width:8.55962181;stroke-miterlimit:4;stroke-dasharray:none;stroke-opacity:1"
       d="m 2100.9219,133.51562 v 150.24024 74.33398 c 8.2943,8.40811 17.6596,15.95652 28.0273,22.42969 V 310.5 143.41016 c -10.9696,-3.04374 -20.3131,-6.33357 -28.0273,-9.89454 z m -824.8067,1.20313 c -34.2326,0.9488 -49.4946,4.50727 -91.6738,18.91602 -7.1516,2.44298 -14.566,4.93561 -21.8848,7.36718 36.1155,-0.0181 69.8981,-0.0488 102.9454,-0.084 -0.2595,-8.99595 3.0662,-16.65223 10.6132,-26.19922 z m 911.9121,20.48633 -0.5058,190.16211 -0.1621,61.23633 c 12.4653,6.03712 20.522,12.26409 25.6679,20.98046 V 343.92969 158.50977 c -8.781,-1.04459 -17.0885,-2.148 -25,-3.30469 z m 81.0567,8.76172 v 44.57226 61.84571 h 148.9726 148.9727 l -0.957,59.33789 -0.9571,59.33789 -148.0156,0.87109 -148.0156,0.87305 v 86.95703 86.95703 l 130.041,-0.23242 c 106.9986,-0.192 131.053,0.60019 135.7539,4.4707 3.1424,2.58741 8.8657,6.43516 12.7188,8.55078 3.854,2.11584 11.7368,2.93232 17.5175,1.81446 5.7801,-1.11787 12.4806,-2.13848 14.8887,-2.26563 2.4084,-0.12704 3.5887,-0.98674 2.6211,-1.91016 -0.9675,-0.9233 0.9236,-4.50855 4.2031,-7.96679 9.2972,-9.8031 7.6144,-27.62154 -3.6699,-38.86133 -7.9683,-7.93824 -11.8718,-9.35936 -22.5898,-8.23242 -7.4584,0.78421 -16.7598,4.83835 -21.9141,9.55078 l -8.9551,8.1875 h -118.0469 -118.0449 v -60.17383 -60.17383 h 150.6426 150.6445 v -85.24804 -85.2461 H 2444.25 2293.6074 V 210.21094 173.4375 h 201.7051 c -71.2425,-1.56459 -135.4384,-3.67962 -178.8496,-6.22266 -16.7296,-0.97984 -32.4935,-2.06362 -47.3789,-3.24804 z m 739.123,5.74804 c -3.403,0 -6.9791,0.0735 -10.6679,0.18555 2.1895,6.04917 6.3431,11.61707 12.1074,15.59766 h 0.012 c 10.5234,7.26752 36.082,4.28977 42.8984,-4.9961 1.9878,-2.70794 3.6097,-4.3751 9.9727,-5.40625 -6.2273,-1.05162 -11.9753,-1.96309 -17.2305,-2.68554 -0.4506,0.79338 -0.9574,1.52834 -1.5273,2.18359 -6.4914,7.46443 -25.9684,6.09716 -33.1524,-2.32813 -0.7157,-0.83935 -1.3416,-1.6897 -1.8867,-2.54687 -0.1745,-3.2e-4 -0.3445,0 -0.5195,0 z m -26.8769,0.91993 c -3.9367,0.22997 -8.1915,0.508 -12.666,0.81445 -0.2808,0.41301 -0.5547,0.82409 -0.8633,1.24414 -8.0918,11.02421 -23.8177,9.70197 -32.1914,1.0625 -4.2396,0.2352 -9.0709,0.44914 -14.2071,0.65234 l 7.7422,7.38672 c 17.0646,16.28384 45.2856,7.58299 52.1856,-11.16015 z m -1885.627,30.50976 c 1.8284,6.34603 1.3368,15.7601 -1.9023,23.40235 h 195.1719 c -1.9438,-5.84481 -4.2604,-11.65805 -6.9844,-17.41016 -1.0025,-2.11616 -1.8926,-4.02974 -2.8106,-5.99219 z m 1836.8399,15.92578 c -7.2637,0.13888 -14.8896,2.70786 -21.709,8.1836 l -10.4102,8.35742 h -131.7441 -131.7461 l -0.4043,111.15429 c -0.2212,61.13505 -0.1201,113.78848 0.2207,117.00586 0.5841,5.47798 -7.6779,5.84631 -130.0957,5.79297 l -130.7188,-0.0586 -8.0097,-8.0625 c -17.1017,-17.21216 -41.196,-12.90753 -52.6621,9.4082 -6.167,12.00171 -0.4204,28.70573 12.5058,36.35352 15.434,9.1312 29.3672,6.53622 44.1993,-8.23242 6.2443,-6.21686 11.1746,-6.46347 107.7246,-5.39649 l 186.1347,1.11719 -0.6465,-116.16797 -0.6464,-116.16992 h 118.7148 118.7168 l 8.2285,8.35742 c 6.2755,6.37344 11.763,8.35742 23.127,8.35742 14.6106,0 24.2754,-6.68961 27.8613,-18.875 -5.2195,-0.72789 -8.789,-1.5733 -11.1543,-2.62695 -0.4134,0.7952 -0.7564,1.46927 -1.1797,2.2793 -3.7326,7.13941 -7.2168,9.14806 -15.5996,8.99414 -11.9001,-0.2191 -23.0566,-8.85615 -23.0566,-17.85157 0,-9.67082 7.1247,-19.39352 12.7128,-17.34765 2.9033,1.0641 4.2309,0.44592 3.0274,-1.41211 -1.1912,-1.83925 1.7228,-3.30469 6.5703,-3.30469 5.2632,0 13.9783,6.09579 18.832,11.77344 2.1428,-1.78155 4.9144,-3.70975 8.3516,-5.83594 -5.0213,-10.11083 -15.6222,-16.01302 -27.1445,-15.79297 z m 50.9336,43.09571 c 1.4726,2.7345 3.4433,5.43748 5.9785,8.04687 8.255,8.49547 10.8517,9.26901 25.4004,7.57813 23.3475,-2.71275 24.5914,-2.9762 24.3515,-5.13086 -0.4353,-3.85494 -0.2957,-6.26659 4.6485,-7.77539 -5.0155,-0.21291 -10.2227,-0.42573 -15.7188,-0.64258 -0.9391,-0.0373 -1.6016,-0.0692 -2.5195,-0.10547 -9.1961,7.27499 -21.4566,5.72183 -28.7168,-1.24414 -4.9077,-0.24022 -9.4079,-0.48166 -13.4238,-0.72656 z M 260.75,277.65234 c -59.88768,2.65323 -88.0974,7.7897 -132.29688,17.90821 -0.66666,0.15264 -1.33801,0.32519 -2.00585,0.48242 -2.54006,2.5536 -5.37468,4.45351 -7.55079,4.85351 -3.72256,0.68406 -5.12896,0.15773 -4.47851,-1.80078 -7.60405,2.07542 -15.157505,4.3972 -22.462892,6.88477 11.396162,8.77355 32.001352,7.65347 42.457032,-2.9668 8.17835,-8.30677 9.08988,-8.4338 54.03516,-7.52148 l 45.71875,0.92773 0.1289,16.89453 c 9.01408,-0.6321 17.8276,-1.15165 26.39453,-1.53906 z m 2890.0273,2.49024 c -7.3329,-0.0171 -15.357,2.701 -23.1074,8.92383 -5.8265,4.6784 -9.4227,10.69305 -10.7441,17.02734 3.699,0.21771 7.4492,0.47644 11.2441,0.77148 1.8148,-15.94048 25.5033,-22.90949 35.6133,-8.18554 3.1479,4.58442 4.8832,8.80045 5.2598,12.61133 3.2156,0.43829 6.4508,0.89172 9.7226,1.37695 1.3154,-18.79371 -11.6085,-32.48635 -27.9883,-32.52539 z m -2303.15816,0.72461 c -7.72619,0.0256 -15.45919,2.90599 -21.54687,8.71484 -12.02859,11.47648 -11.95405,32.35954 0.15625,43.91602 l 8.76171,8.35742 v 123.61914 123.61914 l 58.67774,-0.91602 58.68164,-0.91796 0.91992,-123.25586 0.91797,-123.25782 8.71484,-9.88281 c 11.22827,-12.73323 11.10771,-26.20373 -0.35351,-39.20117 -6.89696,-7.82176 -11.96373,-10.28516 -21.14453,-10.28516 -13.48256,0 -29.34375,8.33899 -29.34375,15.42774 0,2.54624 -1.41082,4.63086 -3.13477,4.63086 -1.80363,0 -1.89406,5.23892 -0.21289,12.35156 1.60544,6.79339 1.97455,13.93875 0.82031,15.87891 -1.15392,1.93994 -0.92326,2.52286 0.51172,1.29492 1.43542,-1.22774 5.62922,0.23453 9.32031,3.25 6.36342,5.1984 6.71094,11.25602 6.71094,116.73047 V 562.1875 h -31.53125 -31.5293 V 450.19727 c 0,-61.59446 1.23701,-111.99024 2.74805,-111.99024 4.69707,0 14.76953,-18.98424 14.76953,-27.83789 0,-4.63179 -4.08226,-13.05018 -9.07031,-18.70703 -6.34016,-7.19008 -15.08748,-10.8249 -23.84375,-10.79492 z m -439.7793,0.0469 c -16.16469,0.2288 -31.78906,12.46452 -31.78906,30.81055 0,1.3488 0.0746,2.66967 0.18555,3.95703 3.92672,0.57664 7.74979,1.19866 11.42969,1.87695 -0.7071,-2.05152 -1.10547,-4.28225 -1.10547,-6.67382 0,-17.12032 24.21189,-26.04809 36.24218,-13.36329 7.65739,8.07403 7.3678,21.58185 -0.60937,28.47071 -0.21301,0.1841 -0.43364,0.3474 -0.65039,0.52148 3.61184,1.33728 7.01803,2.75055 10.16992,4.25391 1.632,-0.99168 3.03161,-1.42396 3.74414,-1.00391 1.32917,0.784 2.75864,-5.73454 3.17774,-14.48633 0.61834,-12.93013 -0.87602,-17.59926 -7.97266,-24.90625 -6.05941,-6.23914 -13.66237,-9.18242 -21.25586,-9.4414 -0.52213,-0.0181 -1.04502,-0.0231 -1.56641,-0.0156 z m 619.23246,0.12891 c -8.3706,-0.0875 -17.1133,3.3494 -24.627,10.51953 -9.22131,8.79925 -10.39226,11.8687 -8.60741,22.56641 1.22283,7.33141 5.71979,15.40866 11.02341,19.80664 l 8.9571,7.42968 -0.2598,122.94922 -0.2598,122.94727 34.3379,1.67187 c 38.0718,1.85323 83.128,-0.30498 87.1817,-4.17773 1.4431,-1.3792 0.7858,-2.50781 -1.4629,-2.50781 -3.0377,0 -4.0879,-30.82094 -4.0879,-120.08985 V 342.06641 l 10.5117,-10.02735 c 14.0444,-13.40341 14.1361,-27.6523 0.2656,-40.88867 -18.1016,-17.27328 -46.6815,-11.45593 -52.9551,10.77734 -3.8906,13.78742 1.6969,29.69855 12.4473,35.43946 4.6005,2.456 5.1803,17.47858 4.3789,112.99219 l -0.9258,110.16015 -32.4062,0.96094 -32.4043,0.96094 V 452.51367 c 0,-104.97728 0.3093,-110.19167 6.875,-115.86133 11.5805,-10.00096 15.4675,-26.42073 9.0547,-38.2539 -6.1274,-11.3072 -16.2747,-17.24368 -27.0371,-17.35547 z m -440.52542,0.10742 c -8.45313,-0.0149 -17.36296,2.84042 -23.22461,8.43359 -12.0704,11.5167 -11.99252,32.57266 0.1582,43.31836 l 8.75781,7.7461 v 110.77148 110.76953 h -33.36523 -33.36524 l 0.0566,-24.16992 c -6.86005,4.43211 -15.0873,9.20269 -24.5,14.24024 -0.0107,19.08714 -0.0139,33.60346 0.0117,34.24804 0.0448,1.42539 26.48727,2.1763 58.76172,1.67188 l 58.68164,-0.91797 0.91992,-123.51953 c 0.90635,-121.71776 1.0301,-123.63283 8.55469,-131.27539 5.544,-5.63136 7.7435,-12.26056 8.02734,-24.19922 0.21472,-9.04373 -0.66604,-15.81998 -1.95703,-15.0586 -1.29098,0.76182 -5.16698,-1.58863 -8.61328,-5.22265 -4.33856,-4.5744 -11.44172,-6.82282 -18.90039,-6.83594 z m 176.37304,0.0586 c -6.76245,0 -13.70357,2.1477 -19.83008,6.7461 -4.81877,3.61717 -9.84281,5.54407 -11.16601,4.28125 -1.3231,-1.26251 -1.26775,0.53685 0.125,4 1.60448,3.99008 1.20934,5.5173 -1.07813,4.16797 -6.65578,-3.92491 1.21097,24.4443 8.96094,32.3164 7.20085,7.31392 7.43836,10.70854 8.31836,118.5 l 0.90625,110.97071 h -32.4043 -32.4082 V 452.39258 342.59375 l 8.75391,-9.71289 c 19.11125,-21.20501 6.25051,-51.61658 -21.73243,-51.39258 -29.00938,0.23157 -42.49592,28.23307 -23.80664,49.42774 l 8.75977,9.93164 v 121.8164 c 0,66.99819 1.08662,122.85208 2.41602,124.1211 1.34101,1.2688 28.21275,1.89551 59.72656,1.39257 l 57.31054,-0.91406 -0.25195,-123.46289 -0.25195,-123.46484 9.71484,-8.74414 c 11.83307,-10.65046 12.84444,-14.37376 7.83399,-28.86133 C 788.0931,289.07404 775.83,281.21712 762.91992,281.21094 Z m -269.49609,0.0625 c -16.11317,0.41611 -31.11058,11.91486 -30.54492,27.16211 0.63872,17.21526 2.05092,25.98865 4.13476,25.66407 1.03211,-0.16096 4.67253,0.8733 8.08789,2.29687 5.7871,2.41237 6.19987,10.94465 6.04883,125.05664 -0.0267,22.48576 -0.0376,39.86834 -0.0547,58.25586 3.19659,-1.03904 6.54063,-2.1833 10.08399,-3.44922 5.26869,-1.88245 10.08861,-3.4768 14.45117,-4.79883 l 0.13867,-59.22265 c 0.24672,-103.84117 0.63539,-110.27631 6.96094,-115.73828 11.41675,-9.85963 15.25487,-26.33076 8.87695,-38.09961 -3.02048,-5.57376 -8.52749,-11.68469 -12.23437,-13.57813 -5.08374,-2.59605 -10.57813,-3.68749 -15.94922,-3.54883 z m -178.48047,0.10743 c -18.46037,0.001 -30.15965,14.08477 -29.82813,29.62109 3.59627,-0.0672 7.14636,-0.11123 10.64844,-0.13086 0.43339,-10.05931 8.38963,-19.46094 20.13086,-19.46094 9.53408,0 21.61914,11.21348 21.61914,20.0586 0,0.12938 -0.011,0.2673 -0.0195,0.40234 3.34475,0.192 6.62444,0.41223 9.84961,0.6582 0.92064,-16.60469 -12.30052,-31.14737 -32.39844,-31.14843 z m 978.26564,0.0234 c -13.091,0.0203 -16.0743,1.45858 -22.9317,11.07032 -10.2427,14.3568 -9.9747,26.13719 0.875,38.4414 l 7.6094,8.62891 c 2.0526,-3.67936 3.9322,-7.44994 5.6426,-11.29688 -1.5605,-0.92874 -3.07,-2.05314 -4.4922,-3.41015 -13.7968,-13.16598 -4.7574,-33.42774 14.9141,-33.42774 0.077,0 0.1499,0.01 0.2265,0.01 0.4811,-3.29472 0.8562,-6.61407 1.1055,-9.95508 -0.9463,-0.0352 -1.9183,-0.0606 -2.9492,-0.0606 z m -90.0059,0.0859 c -6.9441,0.0576 -15.1289,1.93795 -18.1855,4.17774 -15.586,11.41888 -17.7699,36.40768 -4.1016,46.9375 l 7.9082,6.09375 v 70.10351 c 4.2326,-1.69547 8.8572,-3.43159 13.9453,-5.27148 4.8596,-1.75723 9.5534,-3.74168 14.0821,-5.92578 v -55.53516 l 8.7578,-9.93359 c 18.7732,-21.28928 5.6809,-50.88393 -22.4063,-50.64649 z m 2001.2696,5.92383 v 29.46094 c 4.2096,0.74741 8.4498,1.52085 12.7421,2.33984 3.999,0.76288 7.9352,1.48934 11.7813,2.17969 V 307.1582 h 21.043 c -13.8697,-6.97226 -30.5264,-14.31238 -45.5664,-19.74609 z M 585.33594,291.1875 c 16.7649,0.43403 29.71056,19.546 14.92773,33.65234 -3.85376,3.67734 -10.94682,6.68555 -15.76367,6.68555 -8.24267,0 -10.15857,-1.57034 -9.17383,-7.52148 0.22838,-1.38091 -1.55652,-2.1314 -3.96484,-1.67188 -7.34517,1.40192 -7.75908,-21.5173 -0.48047,-26.5957 4.768,-3.32694 9.76089,-4.67043 14.45508,-4.54883 z m 439.25786,0.19531 c 7.9985,-0.0832 16.2462,3.61438 19.748,10.6211 5.5797,11.1648 -0.2445,25.6545 -11.1406,27.71679 -13.0971,2.47883 -19.8814,0.80258 -25.0078,-6.18164 -6.5176,-8.87914 -6.3744,-15.45945 0.5429,-24.88281 3.5662,-4.85867 9.6363,-7.2089 15.8575,-7.27344 z m -530.83403,0.0274 c 20.82485,0 29.65365,27.71238 11.74218,36.85937 -15.94389,8.14261 -32.52539,-0.0896 -32.52539,-16.15039 0,-14.00544 6.72721,-20.70898 20.78321,-20.70898 z m 177.17968,0 c 17.6239,0 27.51325,23.45722 14.28125,33.87695 -9.25685,7.29045 -23.19389,7.4191 -29.96679,0.27734 -12.70219,-13.39274 -3.16704,-34.15429 15.68554,-34.15429 z m 269.75782,0 c 18.80341,0 27.76857,24.7904 12.625,34.91211 -10.36459,6.92714 -21.35762,6.57343 -28.45704,-0.91211 -12.56917,-13.2528 -2.90727,-34 15.83204,-34 z m -92.82032,0.10546 c 18.32299,0.32481 29.84147,19.29265 15.13672,33.32422 -15.61845,14.90368 -37.73671,3.10168 -33.60156,-17.92968 1.24459,-6.33131 4.71325,-12.40901 7.70898,-13.50586 3.73632,-1.36822 7.3629,-1.94873 10.75586,-1.88868 z m 356.46875,0.0215 c 4.9311,0.10976 9.691,1.87338 13.1035,5.72266 7.0659,7.97024 7.2755,21.125 0.4512,28.32031 -12.2001,12.86432 -36.082,2.73392 -36.082,-15.30469 0,-11.21077 11.6791,-18.97945 22.5273,-18.73828 z m -85.4687,0.11719 c 6.1448,0.0427 11.9651,2.28402 15.4355,7.33789 6.3015,9.17738 4.462,22.48261 -3.9219,28.35547 -3.2807,2.29813 -9.3305,4.17773 -13.4433,4.17773 -8.3765,0 -22.7129,-12.85462 -22.7129,-20.36523 0,-11.65942 12.912,-19.588 24.6426,-19.50586 z m -354.59966,0.4707 c 9.08619,0.2464 12.67486,2.42398 16.92969,10.27539 5.00171,9.22944 4.89843,10.60903 -1.41015,18.70899 -8.76215,11.25119 -22.72057,12.95834 -32.17774,3.93359 -14.86965,-14.1888 -5.09401,-33.50816 16.6582,-32.91797 z m 2285.32816,1.33398 c -8.1056,-0.0224 -16.2957,2.89276 -22.4356,8.75196 l -8.8261,8.42383 -156.5489,-0.20508 -156.5469,-0.20313 -0.9687,52.55274 -1.4609,59.83789 61.5566,55.02929 c 5.6307,-2.33792 12.6741,-4.60069 21.2637,-6.83984 3.0628,-1.5968 6.6111,-2.4155 10.2207,-2.48633 6.3005,-1.43616 13.269,-2.87064 20.9746,-4.3164 -5.0367,-4.11862 -11.3672,-6.4043 -18.5176,-6.4043 -10.9396,0 -16.0608,-3.28835 -39.6758,-25.46094 l -27.1172,-25.45898 V 371.8985 337.11725 l 87.0508,0.125 c 16.1591,-2.11104 39.4446,-2.69273 63.3262,-1.03321 3.7812,0.26294 7.7513,0.65597 11.8379,1.14258 l 87.9941,0.12696 c -3.9487,-3.67915 -6.4668,-7.05321 -6.4668,-9.07422 0,-4.22294 15.0406,-10.20895 40.4336,-16.09375 6.2134,-1.4399 12.7262,-2.66023 19.5293,-3.66407 2.9397,-1.78058 6.6463,-2.98331 11.0156,-3.46875 4.4126,-0.49013 8.1067,-0.16985 11.3594,1.03516 5.3649,-0.39616 10.8774,-0.67998 16.5391,-0.84766 -0.7962,-1.04992 -1.6599,-2.0646 -2.6094,-3.02929 -5.8013,-5.89238 -13.8221,-8.85424 -21.9277,-8.87696 z m -542.9414,0.041 c -7.3137,0.11211 -14.6284,2.80876 -20.4336,8.70508 l -8.2891,8.41797 -79.0293,-0.89649 c -63.3694,-0.71904 -78.8401,-1.77424 -78.0683,-5.32422 0.5294,-2.43349 -0.4743,-3.58054 -2.2305,-2.54492 -1.7562,1.03563 -5.1402,-0.35583 -7.5215,-3.09375 -2.4187,-2.78069 -10.0989,-4.97851 -17.4023,-4.97851 -28.6489,0 -41.4852,28.40718 -22.543,49.88867 11.8531,13.44224 30.3162,14.24624 44.2383,1.92773 l 9.4453,-8.35742 h 76.9726 76.9727 l 6.8887,8.35742 c 16.1276,19.56491 53.1757,4.30861 53.1757,-21.89844 0,-18.19135 -16.0855,-30.44952 -32.1757,-30.20312 z m 0.9902,10.30859 v 0.002 c 18.5605,0 27.7757,24.96181 12.8887,34.91211 -9.7261,6.49845 -16.6254,6.57439 -26.0293,0.28906 -15.318,-10.23765 -5.998,-35.20313 13.1406,-35.20313 z m -212.5625,0.15039 c 5.0283,0.15232 9.977,2.0047 13.7363,5.96875 7.6573,8.07403 7.3678,21.58164 -0.6093,28.47071 -13.8886,11.9936 -35.6329,2.77428 -35.6329,-15.10742 0,-11.77046 11.4442,-19.66686 22.5059,-19.33204 z M 46.736328,325.44922 c -6.1536,3.48789 -11.10701,6.90193 -14.410156,10.06055 -9.930667,9.49696 -10.054312,10.17201 -1.384766,7.63281 5.238293,-1.53419 12.273083,-3.20258 20.416016,-4.93164 H 46.736328 Z M 2808.8262,360.64648 c -3.9191,0 -12.1447,4.27969 -18.2793,9.50977 -9.0277,7.69728 -11.0602,11.87441 -10.6641,21.92187 0.2898,7.35617 3.7404,16.26598 8.4707,21.8711 4.39,5.20203 11.1346,9.45707 14.9883,9.42187 13.2565,-0.0683 29.838,-6.44072 33.4316,-12.84765 3.1893,-5.68651 7.6846,-6.41797 39.42,-6.41797 33.3024,0 36.1767,0.52788 40.9082,7.52148 2.7987,4.13686 4.8507,8.37233 4.5605,9.41211 -0.8712,3.12139 29.7747,0.42297 36.9785,-3.25586 3.6768,-1.87733 7.5952,-2.54482 8.709,-1.48242 1.1133,1.0624 2.0648,-0.86932 2.1074,-4.29492 0.025,-1.82635 0.347,-4.88518 0.8203,-8.23633 -3.742,-0.6896 -7.4375,-1.46043 -11.1367,-2.32422 -1.3853,2.02411 -3.2402,3.9683 -5.6269,5.75977 -10.7859,8.09589 -10.884,8.10852 -22.3008,2.625 -7.6046,-3.65206 -11.1971,-12.29116 -10.4004,-20.28711 -5.3552,-1.992 -10.9851,-4.17217 -17.0801,-6.62305 -3.2781,-1.31829 -6.6659,-2.64519 -10.0879,-3.9668 -4.9164,0.27681 -11.0296,0.45396 -18.7812,0.61524 -28.2384,0.58795 -35.5073,-0.23438 -37.1035,-4.20313 -2.4603,-6.11765 -19.3672,-14.71875 -28.9336,-14.71875 z m 1.7285,11.48243 c 2.6141,0.0789 5.3892,0.63899 8.2695,1.77734 17.077,6.74987 17.3274,28.17915 0.4317,36.80859 -9.1961,4.69643 -12.26,4.33597 -20.5821,-2.42968 -16.8183,-13.67211 -6.4176,-36.71124 11.8809,-36.15625 z M 331.01172,386.08008 c -7.29739,2.86634 -17.1417,7.01932 -28.53125,12.01367 v 67.4082 36.86914 c 1.62763,2.82283 3.1143,5.72816 4.34961,8.58789 6.91157,15.99883 11.46454,21.0302 16.64844,18.39649 1.51424,-0.76917 3.83004,-1.38498 7.02929,-1.86914 v -77.28516 c 0,-23.84938 0.18892,-45.90509 0.50391,-64.12109 z m 91.08203,28.61328 c -9.18005,4.104 -19.01842,6.94421 -28.57031,8.37695 0.0267,8.4639 0.043,17.45227 0.043,27.54102 v 76.38281 c 7.64586,0.25771 15.82113,0.55822 25.04492,0.94531 1.38432,0.0576 2.71507,0.0993 4.04297,0.13867 0.0373,-16.84949 -0.0576,-38.05583 -0.26953,-65.02148 -0.15104,-19.2256 -0.24046,-34.58387 -0.29102,-48.36328 z m -161.59766,2.38476 c -8.53024,3.95457 -17.04842,7.96106 -25.3457,11.92383 0.12,19.3312 0.15281,35.96525 0.0918,49.91993 9.25557,-1.28823 17.71971,-1.90031 25.14648,-1.80079 z m 2633.18751,17.00196 c -11.7211,0.29194 -23.3287,7.32057 -30.4004,20.17187 -0.4514,0.82016 -0.8378,1.57822 -1.1738,2.30664 4.3968,-0.65216 8.8256,-1.30673 13.5215,-1.97265 1.0879,-3.75499 2.5721,-6.99228 3.7949,-7.14844 0.5438,-0.0693 6.7909,-0.93145 13.8808,-1.91406 9.737,-1.34891 13.1031,-0.66917 16.9864,4.29883 3.908,-0.53291 8.0135,-1.08825 11.7343,-1.59961 -1.6497,-1.39755 -3.5093,-3.04575 -5.5429,-4.98633 -6.7089,-6.40182 -14.7815,-9.35625 -22.8008,-9.15625 z M 183.36914,455.0293 c -9.53717,5.28213 -19.07986,11.1426 -28.0293,17.06836 v 28.41406 c 1.8559,-0.66763 3.67992,-1.31284 5.58008,-2.01172 7.60032,-2.79552 15.10383,-5.32257 22.44922,-7.5918 z m 2161.03516,5.07226 c 11.0142,0 22.7715,10.8537 22.7715,21.02149 0,3.33994 -4.1535,9.18912 -9.2305,13 -5.0771,3.81056 -11.4537,6.92968 -14.1719,6.92968 -6.4434,0 -22.1406,-15.03487 -22.1406,-21.20703 0,-9.03541 12.3513,-19.74414 22.7715,-19.74414 z M 136.09766,485.63867 c -5.13014,3.8591 -9.76694,7.57254 -13.67969,10.97852 -0.664,1.06133 -1.41591,2.12739 -2.30274,3.20312 -2.2352,2.71158 -4.7184,4.75808 -7.30859,6.17578 -3.26613,3.8064 -4.61478,6.63711 -3.38086,7.98047 0.63659,0.6927 6.50899,-0.62685 15.41992,-3.28125 -0.31445,-1.14496 0.4424,-1.99023 1.99024,-1.99023 1.89109,0 5.15956,-4.97813 7.26367,-11.0625 1.44491,-4.1775 2.09789,-8.19772 1.99805,-12.00391 z m 2565.78124,34.86328 c -8.9896,0.1343 -17.6733,3.37488 -22.8672,9.67578 -11.5475,14.00875 -8.9256,33.85183 5.7578,43.58399 6.2414,4.13675 13.9754,7.52344 17.1875,7.52344 6.279,0 33.0664,-13.365 33.0664,-16.4961 -6e-4,-1.04106 52.0251,-1.47538 115.6114,-0.96679 l 21.7265,0.17382 c -4.3089,-1.5041 -9.0196,-3.10002 -14.2929,-4.85351 -24.3897,-8.11008 -43.9788,-15.06979 -59.5801,-21.31641 h -63.1445 l -8.7579,-8.35742 c -6.4214,-6.12768 -15.7177,-9.10109 -24.707,-8.9668 z m -141.7363,9.0586 c 11.3542,0.1024 24.2422,10.31257 24.2422,21.56836 0,2.04298 -3.8699,7.40685 -8.5996,11.91992 -9.3287,8.90218 -13.6246,9.62366 -25.2832,4.24414 -14.6198,-6.74699 -13.3124,-28.15461 2.2031,-36.07813 2.2798,-1.16448 4.8171,-1.67808 7.4375,-1.65429 z m 143.3515,0.46484 c 19.7329,0 28.2394,20.96988 14.0137,34.54492 -12.8782,12.28864 -32.8719,5.05206 -34.2656,-12.40234 -1.1045,-13.83403 6.4944,-22.14258 20.2519,-22.14258 z m -490.4668,19.87891 c -5.2188,8.93322 -13.4033,15.2153 -26.1054,21.27343 l -0.168,63.59375 h 189.4453 189.4453 l 7.6485,7.76954 c 4.2071,4.27328 6.9778,8.41109 6.1562,9.19531 -4.2601,4.06549 32.0833,-1.67713 37.0196,-5.84961 4.2068,-3.55616 7.2774,-7.56541 9.1816,-11.87891 v -21.39648 l 0.4004,-0.0488 c -0.2889,-0.80779 -0.6094,-1.61806 -0.9649,-2.42969 C 2622.1637,603.45932 2618.0236,598 2615.8848,598 c -2.1358,0 -3.0818,-1.24842 -2.0938,-2.77344 0.9877,-1.52309 -5.6179,-2.32905 -14.6816,-1.78515 -22.0784,1.3248 -28.2725,2.30352 -28.0742,4.4375 0.9228,10.03797 -1.0252,10.14843 -179.336,10.14843 h -178.6719 z m -1024.2031,19.48828 v 19.54297 h 42.9942 c -8.8912,-5.6736 -18.5912,-10.48994 -29.0489,-14.27149 -5.0881,-1.83989 -9.7127,-3.57612 -13.9453,-5.27148 z m -768.31443,14.32617 c -2.30432,1.36608 -4.51344,2.71963 -6.65039,4.06641 2.47423,-0.17504 4.28655,-0.36144 4.82031,-0.55664 0.71754,-0.26272 1.3233,-1.31244 1.83008,-3.50977 z m 2472.67383,14.07227 c -8.9105,0.10453 -17.6247,3.07115 -22.1543,8.5664 -1.2524,1.51904 -2.2799,2.75442 -3.4941,3.77149 4.2636,0.69728 8.3996,1.44585 12.4238,2.23828 3.7942,-2.65942 8.5107,-4.33985 13.3262,-4.33985 8.7491,0 15.4453,5.49987 18.4804,12.46094 1.9696,0.65088 3.8928,1.31673 5.7481,2.00195 1.5645,0.57782 3.1163,1.12132 4.6601,1.65625 0.2827,-10.02538 0.112,-18.74361 -0.7304,-17.93945 -0.9142,0.87211 -4.9589,-0.61743 -8.9883,-3.31055 -5.2926,-3.53728 -12.3411,-5.18706 -19.2715,-5.10546 z m -764.2344,0.0234 c -9.7519,6.59872 -18.4566,14.39479 -26.3066,23.58594 h 26.3066 z m 580.4004,0.17774 c -7.9216,0.13024 -15.8693,2.70541 -21.3144,7.78125 13.6034,-1.10656 27.1481,-1.92128 40.5097,-2.4336 -5.2003,-3.66432 -12.1843,-5.46296 -19.1953,-5.34765 z m -2027.98437,7.45312 c -6.4928,0.0779 -10.04704,2.43599 -17.39648,9.44922 -14.19691,13.54699 -14.68305,26.39909 -1.51953,40.13477 6.49291,6.77472 13.89009,10.52237 22.68945,11.49218 11.10208,1.22326 14.35476,-0.0327 21.72266,-8.38867 l 8.66601,-9.82812 c 54.32544,-1.46389 108.63798,-0.85635 162.9668,-0.28516 v 160.70703 h 37.93359 V 620.76562 l -96.03711,0.71876 -99.72115,0.58239 c 5.89763,9.70961 -11.63052,-4.95228 -14.53666,-8.98474 -1.69568,-2.8912 -9.36677,-6.05993 -17.04687,-7.04297 -3.06699,-0.39253 -5.55644,-0.61999 -7.72071,-0.59375 z m 1915.15627,-3.77539 v 0.002 c 5.6151,0.0341 11.014,2.87172 15.6328,8.4746 8.9475,10.85408 9.0689,14.92325 0.7187,24.10938 -8.857,9.74336 -26.3122,9.62258 -33.5468,-0.23438 -7.4887,-10.20192 -6.8374,-17.82316 2.2129,-25.86914 4.9044,-4.35989 10.0277,-6.51239 14.9824,-6.48242 z M 684.54353,614.94194 c 17.29435,0.74502 19.42154,12.87549 19.50068,23.56201 0.24214,8.78865 -6.0044,15.36605 -18.56747,15.29167 -12.75802,-0.0755 -18.92195,-7.31223 -18.51329,-18.86578 0.30825,-13.72162 7.83276,-20.54116 17.58008,-19.9879 z m 295.38616,12.93108 c -6.90752,-0.0448 -11.81446,1.06045 -11.81446,2.79101 0,1.90955 -3.66697,7.24736 -8.15039,11.86133 -4.4832,4.61387 -7.776,9.86399 -7.31445,11.66602 0.46112,1.80277 1.72142,7.13639 2.80078,11.85351 1.07968,4.71734 5.15832,12.09271 9.06445,16.39063 6.75511,7.43125 7.10352,12.21181 7.10352,97.56445 v 7.69727 c 10.68501,-1.23232 20.0496,-2.18204 28.02539,-2.7461 v -6.96875 c 0,-73.62752 0.93807,-92.29428 4.74417,-94.43945 2.6089,-1.4704 6.5496,-5.95872 8.7578,-9.97461 11.2045,-20.37909 -4.592,-44.27797 -30.14259,-45.60352 -1.06006,-0.0555 -2.08724,-0.0854 -3.07422,-0.0918 z m 152.16801,0.76953 c -8.0088,0.19178 -15.6745,3.76539 -21.7852,10.69531 -11.4797,13.01579 -11.5854,26.46643 -0.3125,39.25 8.7153,9.90261 8.7578,10.14327 8.7578,79.93164 0,11.83829 0.1118,22.95238 0.293,32.92774 7.0543,-5.81835 13.8529,-11.65849 20.1133,-17.34766 l 7.623,-6.92773 v -19.3125 c 0,-55.69004 0.3514,-58.68456 7.6445,-65.16797 4.4349,-3.94304 8.5453,-12.76872 9.7911,-21.02344 1.9283,-12.7776 1.0846,-15.16577 -8.2754,-23.42188 -7.4876,-6.60448 -15.8407,-9.79519 -23.8496,-9.60351 z m -76.5411,0.61328 c -5.272,0.0523 -10.9054,1.61896 -17.1035,4.67773 -16.5961,8.18902 -19.6708,34.13474 -5.5273,46.64258 l 8.7597,7.7461 v 90.71289 67.82031 c 8.0045,-4.65152 17.6599,-10.91093 28.0254,-18.08789 v -57.4707 c 0,-68.00513 0.9526,-85.61674 4.7442,-87.75391 15.2649,-8.60309 16.5555,-31.33835 2.5351,-44.7168 -6.7931,-6.48192 -13.7284,-9.64615 -21.4336,-9.57031 z m 76.8711,9.82617 c 17.671,0 27.3836,21.54297 15.4063,34.17188 -11.5884,12.21877 -36.082,3.53165 -36.082,-12.79688 0,-11.01109 10.0245,-21.375 20.6757,-21.375 z m -145.31051,0.14453 c 5.02816,0.15243 9.97699,2.00481 13.73631,5.96875 7.6575,8.0736 7.3677,21.58185 -0.6094,28.47071 -13.88845,11.9937 -35.63277,2.77613 -35.63277,-15.10547 0,-11.77056 11.4442,-19.66903 22.50586,-19.33399 z m 70.06641,0 c 5.0279,0.15243 9.9769,2.00481 13.7363,5.96875 7.6572,8.0736 7.3679,21.58185 -0.6094,28.47071 -13.8887,11.9937 -35.6328,2.77613 -35.6328,-15.10547 0,-11.77056 11.444,-19.66903 22.5059,-19.33399 z m 222.4668,1.04883 -70.2734,0.47852 0.3457,82.73828 0.123,29.375 7.8047,0.0508 c 7.4682,0.048 13.8513,0.12638 19.3613,0.24414 l 0.053,-4.64063 0.9355,-82.78515 52.4355,0.39648 c -2.7256,-8.96778 -6.3374,-17.62883 -10.7851,-25.85742 z m -912.11329,2.15039 c -1.69589,7.03595 -1.103,6.73003 3.44922,0 z m 198.6875,29.0332 c -3.34336,1.89568 -6.7393,3.80211 -10.20703,5.70899 -6.07062,3.33856 -11.60892,6.41424 -16.91602,9.38086 l 0.64649,69.35156 c 7.75168,-0.28043 16.54791,-0.52961 26.28711,-0.76172 0.2785,-33.41952 0.32726,-63.22582 0.18945,-83.67969 z m 1897.31059,10.10743 c -13.6562,9.6e-4 -24.1161,0.0117 -38.5157,0.0117 h -356.2812 c -0.015,0.0363 -0.028,0.0703 -0.043,0.10743 3.0223,0.23573 6.0745,0.48601 9.166,0.76953 47.4749,4.35392 50.811,5.4026 52.2344,16.39844 0.6268,4.84298 0.4629,7.7528 -1.2305,9.46875 h 103.7559 c -3.791,-11.464 -6.5332,-20.38065 -6.5332,-21.41211 0,-1.32854 7.2314,-2.41591 16.0703,-2.41602 13.378,0 17.0642,2.63129 21.9922,15.6875 1.0197,2.70176 2.3085,5.42692 3.8262,8.14063 h 162.1308 3.3965 c -1.3367,-0.44939 -2.644,-0.91177 -3.9082,-1.38868 -16.5211,-6.2336 -28.9056,-8.37833 -31.5605,-5.46484 -2.6551,2.91349 -10.6522,1.0376 -20.377,-4.7832 l -16.0039,-9.57813 49.9453,-3.27539 c 12.2702,-0.8048 31.0439,-1.59484 51.9375,-2.26172 z m -400.8848,15.57226 c -1.4413,3.936 -2.7119,7.65692 -3.791,11.17969 h 42.3125 c -6.7529,-1.4096 -14.165,-3.35575 -20.5996,-5.49805 -7.7696,-2.58677 -13.5711,-4.45625 -17.9219,-5.68164 z m -1426.61329,5.05664 v 55.79297 h 167.37695 v -55.79297 z m -170.53516,34.89063 c -2.36864,3.02741 -4.27915,6.07726 -5.9375,9.31054 1.00875,-0.21674 2.04262,-0.33995 3.09766,-0.33984 9.80331,0 17.36744,6.81934 20.19336,14.86328 3.23488,-0.73525 6.96328,-1.38773 11.45117,-1.96875 -0.54827,-6.79061 -1.58437,-11.66761 -2.36133,-10.92969 -0.80725,0.7663 -4.15809,-0.92931 -7.44726,-3.76953 -3.28928,-2.84117 -11.38852,-6.00213 -17.9961,-7.02539 -0.3441,-0.0533 -0.66826,-0.0949 -1,-0.14062 z m 1694.70705,11.3457 c 16.8459,7.20757 31.8404,15.34517 43.1211,23.40234 h 7.5781 32.4434 c 0.8246,-8.77952 0.9149,-16.07925 0.1015,-23.40234 h -45.5664 z m 151.1543,0 c 3.6609,1.77749 7.3445,3.24719 10.9824,4.33594 11.1531,3.33888 39.0532,5.90827 62,5.71094 21.2711,-0.18336 57.4837,-4.45957 92.0273,-10.04688 z m -1074.5449,21.85938 c -10.3359,5.23786 -19.2421,10.12853 -26.8379,14.74218 l 0.076,18.90821 c 2.3989,-1.37856 4.527,-2.39713 6.209,-2.91211 3.5347,-1.08278 10.5841,-1.93061 20.2305,-2.53711 z m -54.5235,35.9414 c -1.6536,1.81942 -3.0729,3.6074 -4.2617,5.37305 -6.0769,9.02517 -10.1851,15.9918 -12.3965,20.76172 3.3022,-0.0181 6.6919,-0.0518 10.166,-0.0977 1.7759,-1.63659 3.6869,-3.4607 5.8496,-5.64844 7.6996,-7.78912 17.0728,-15.42739 24.6836,-20.38867 z"
       transform="matrix(0.93750003,0,0,0.93750003,-731.41591,35.416016)"
       id="path4790-5"
       inkscape:connector-curvature="0"
       sodipodi:nodetypes="ccccccccccccccccccccccccccccccccccccccsccccccccccccccccccccccccccccccccccccccccccccccccccccccccccccccsccccsccsccccccccccccccccccccccccccccccccccscccccccccsssccccscccssscccsccsccccccccccccccccccsscccccccccscccccccccccccccccccccccccccccccccccccccscccccccccccccscccccccccccsscccccsccccsccccccccccccccccccccccsccccscccccscsssccsscscccccccccsccccssccccccccccccccccccccccccccscccccccccccccccccccccscccccccccscccccccscccccsccccccccccccccsccccccccscccscccsccccccccccccccccccccccccccssccssccccccscccccscccccccscsccccscccccccccccccccscccscccccccccccscccscscccccccccccccccccccccccccscccccccccccccccccccccsccccccccscccsccccsccccccscccsssscccscccsccccccccccccccccccccccsccccccscccccccccccccccsccccccccccccccccccccccccccccccccccccccccccccccccccccc" />
    <path
       style="fill:#000000;stroke-width:1.0666666"
       d="M 1701.5215 0 C 1648.1477 0 1640.637 5.0226822 1623.6074 52.117188 C 1597.2031 125.13767 1515.9067 157.92975 1444.7871 124.24805 C 1397.1039 101.66586 1393.9161 102.27528 1354.6836 141.50781 C 1315.4513 180.74013 1314.8414 183.93008 1337.4238 231.61328 C 1371.1055 302.73307 1338.3128 384.02943 1265.293 410.43359 C 1218.1987 427.46325 1213.1738 434.9739 1213.1738 488.34766 C 1213.1738 541.72152 1218.1987 549.23033 1265.293 566.25977 C 1338.3134 592.66414 1371.1055 673.9642 1337.4238 745.08398 C 1314.8414 792.76708 1315.4513 795.95323 1354.6836 835.18555 C 1393.9124 874.41424 1397.1063 875.02418 1444.7695 852.45117 C 1489.2992 831.36264 1499.733 831.41926 1550.2891 853.00977 C 1589.3914 869.70886 1611.8569 892.08092 1624.4238 926.83398 C 1640.5571 971.44966 1648.6693 976.69531 1701.5215 976.69531 C 1754.8953 976.69531 1762.4061 971.67046 1779.4355 924.57617 C 1805.8397 851.55719 1887.1381 818.7635 1958.2578 852.44531 C 2005.9411 875.02761 2009.1269 874.41808 2048.3594 835.18555 C 2087.588 795.95685 2088.2018 792.76101 2065.6289 745.09766 C 2044.5403 700.56806 2044.5931 690.13624 2066.1836 639.58008 C 2082.8828 600.47768 2105.2551 578.01203 2140.0078 565.44531 C 2184.6236 549.31198 2189.8691 541.19992 2189.8691 488.34766 C 2189.8691 434.97379 2184.8445 427.46325 2137.75 410.43359 C 2064.731 384.02943 2031.9375 302.73317 2065.6191 231.61328 C 2088.2015 183.93008 2087.5919 180.74013 2048.3594 141.50781 C 2009.1305 102.27891 2005.937 101.66928 1958.2734 124.24219 C 1913.7439 145.33083 1903.3119 145.27399 1852.7559 123.68359 C 1813.6535 106.9845 1791.1862 84.61624 1778.6191 49.863281 C 1762.486 5.2474959 1754.3737 -1.9895197e-13 1701.5215 0 z M 1701.5215 144.66406 A 343.6829 343.6829 0 0 1 2045.2051 488.34766 A 343.6829 343.6829 0 0 1 1701.5215 832.03125 A 343.6829 343.6829 0 0 1 1357.8398 488.34766 A 343.6829 343.6829 0 0 1 1701.5215 144.66406 z "
       id="path4147-7"
       transform="matrix(0.93750003,0,0,0.93750003,-731.41591,35.416016)" />
    <g
       transform="matrix(0.9590119,0,0,1.0291224,529.59721,258.9735)"
       id="layer1-3-5"
       inkscape:label="Capa 1"
       style="fill:#000000;fill-opacity:1">
      <path
         sodipodi:nodetypes="ssssssssssssssscsssssssscssssssscssssssssssssscsssssssssscsssssssssssssssssssscsssscscsssssssssssssssscsssssssssssscsssssssssssscsssscssssssscssssssscssssssssssscsssssssssccsssssssscsscscssscssssssssssssssssssscsssssssssssscssssssscssssssssssscscssssssssssssssssssssssssssssssssssssssssscssscsssssssssscssssssssssssssssccssssssscssscssssscsssssssssssssssscsssssssssssssssssssssscsssssssscssssssssscsssssssssssssssscssssssssscsscsssssssssssssscssscsssssssssscsssssscssssssssssssssscsssssssssssssssssscssssssssscssssssssscsssssssssssssssssscsssssssssssssscss"
         inkscape:connector-curvature="0"
         id="path4147-5-3"
         d="m 269.53497,416.14642 c -11.53359,-1.84452 -26.62123,-6.28113 -33.3941,-9.81973 -3.85,-2.0115 -14.15694,-19.86885 -17.31944,-22.92839 -4.64386,-4.49266 -5.75,-6.17856 -5.75,-8.76372 0,-1.76052 0.45949,-3.20094 1.02108,-3.20094 0.5616,0 4.34348,0.97746 8.40418,2.17214 5.91855,1.74127 8.04678,1.96755 10.72892,1.14072 2.93452,-0.90463 3.09996,-1.12343 1.34582,-1.7799 -10.27718,-3.84615 -23.62484,-14.11826 -28.35998,-21.82532 -3.58982,-5.84291 -6.53267,-16.75416 -6.52898,-24.20764 0.007,-14.42651 3.92047,-20.36833 26.37615,-40.04837 27.01458,-23.67543 32.6331,-26.71432 49.51281,-26.78 11.17207,-0.0435 18.09247,1.46899 18.94001,4.13936 0.30834,0.9715 -0.14991,4.44897 -1.01835,7.72769 -6.98544,26.37305 -7.02345,27.66326 -1.24246,42.17718 3.15069,7.91021 3.92775,10.89746 3.1575,12.13828 -0.56194,0.90522 -4.13008,3.35731 -7.9292,5.44907 -7.61971,4.19535 -11.85299,7.7936 -13.99678,11.89713 -2.58407,4.94631 -1.4595,5.11897 3.44724,0.52929 6.23075,-5.82813 12.04018,-8.76041 18.72252,-9.45009 5.21108,-0.53783 5.43405,-0.45181 10.39857,4.01171 4.36402,3.92364 10.30185,6.76119 11.54564,5.5174 0.20992,-0.20992 -1.71924,-1.94025 -4.28703,-3.84516 -10.04246,-7.45002 -11.36771,-13.43769 -4.75917,-21.50255 4.15341,-5.06869 7.46811,-11.89216 7.49955,-15.43819 0.0171,-1.92571 -0.81294,-1.0569 -3.72804,3.90233 -2.0625,3.50877 -5.08497,7.1979 -6.7166,8.19808 -2.89508,1.77466 -3.01884,1.76942 -5.13352,-0.21722 -1.1918,-1.11964 -2.95481,-4.54064 -3.9178,-7.60222 -4.55977,-14.49669 2.92757,-36.92498 15.28058,-45.77292 2.32729,-1.66694 11.54527,-8.59769 20.48439,-15.40167 19.97716,-15.20554 30.2668,-22.04704 40.38758,-26.85338 l 7.78547,-3.6973 13.11542,0.15772 c 19.22014,0.23113 28.98878,1.66217 33.71788,4.93943 3.95751,2.74256 8.7466,9.67561 8.7466,12.66226 0,2.44698 1.69314,2.02258 2.34527,-0.58786 1.30112,-5.20834 -1.811,-12.06574 -8.25389,-18.18709 -1.70026,-1.6154 -3.09138,-3.57178 -3.09138,-4.34752 0,-0.77573 4.20919,-5.75473 9.35376,-11.06445 5.14456,-5.30972 9.63969,-10.55494 9.98917,-11.65606 0.34948,-1.10112 1.02784,-5.87356 1.50746,-10.60543 1.02212,-10.0841 4.15094,-17.7247 10.23301,-24.98906 2.25656,-2.69521 3.82699,-4.90039 3.48985,-4.90039 -0.33715,0 -2.42655,1.14485 -4.64312,2.5441 -5.14735,3.24939 -9.16182,9.61193 -12.52157,19.84549 -8.94446,27.2442 -17.68332,35.85607 -36.37068,35.84214 -4.69583,-0.004 -10.49117,-0.53539 -12.87852,-1.18199 -5.88539,-1.59403 -12.47066,-7.90536 -16.2423,-15.56664 -2.77332,-5.63342 -3.04938,-7.02633 -2.74993,-13.87517 0.36256,-8.29211 -0.53233,-9.2218 -3.41558,-3.54838 -2.29798,4.52178 -2.20772,9.06553 0.38334,19.29826 1.26812,5.0081 1.86336,9.51302 1.46611,11.09579 -1.07977,4.30214 -7.86431,10.77264 -16.27265,15.51943 -4.30559,2.43064 -12.98588,7.75333 -19.28952,11.8282 -6.30365,4.07487 -12.45629,7.78719 -13.67254,8.24961 -5.21012,1.98088 -5.59516,-5.71887 -0.76285,-15.25498 l 2.55338,-5.03885 -2.96646,-3.1285 c -4.24162,-4.47334 -6.12787,-8.73721 -6.82787,-15.4345 -1.14917,-10.99466 4.27212,-29.74818 13.24196,-45.80705 8.42642,-15.08598 12.36436,-18.06057 28.39555,-21.44906 13.01748,-2.75149 17.79899,-4.40044 20.72153,-7.14602 3.59069,-3.37328 2.81667,-5.5428 -4.37152,-12.25287 -6.07619,-5.67203 -6.58723,-6.45924 -5.92266,-9.12334 1.12503,-4.509895 9.42721,-11.753945 18.7124,-16.327465 7.29991,-3.59564 11.94909,-4.94133 26.56645,-7.68954 1.60414,-0.30159 2.38563,-1.37123 2.8637,-3.9196 0.78735,-4.19691 4.00671,-6.73887 12.14142,-9.58669 11.14694,-3.90234 30.78552,-2.2351 38.51659,3.26991 4.02991,2.86955 3.54907,5.28317 -1.54363,7.74851 -6.41423,3.10507 -11.91883,2.72043 -20.10965,-1.40518 -3.80895,-1.91852 -7.07775,-3.33583 -7.264,-3.14958 -0.89192,0.89192 4.67745,6.32621 10.02694,9.78375 7.63361,4.93384 10.30523,4.90971 18.71078,-0.169 8.02157,-4.84671 12.47697,-6.29519 15.07938,-4.90243 2.29714,1.22939 2.31276,0.67096 -0.25527,9.12563 -2.39388,7.88133 -2.17335,13.58022 0.80721,20.860015 l 1.82033,4.446 0.56509,-7.26385 c 0.61932,-7.960885 2.59593,-11.746665 7.34956,-14.076525 2.26345,-1.10937 3.27915,-1.11489 5.89346,-0.032 3.75728,1.55632 14.56431,11.274595 23.94189,21.529875 5.43852,5.94753 6.74702,8.00941 6.73469,10.61213 -0.008,1.77671 -0.35508,3.76472 -0.77035,4.41781 -1.25832,1.97894 -6.02983,3.31015 -12.02944,3.35611 -3.12669,0.0239 -7.67984,0.42861 -10.1181,0.89923 -4.43293,0.85562 -4.43353,0.85535 -9.58422,-4.50527 -5.80546,-6.04207 -8.6398,-7.43751 -15.1067,-7.43751 -4.8387,0 -5.19831,1.38551 -0.59839,2.3055 4.02295,0.80459 8.04258,5.19558 11.62087,12.6945 3.0809,6.45653 3.10119,6.60701 3.03427,22.5 -0.11063,26.27577 -4.48677,48.74655 -13.37054,68.65549 -10.52468,23.5863 -18.93734,33.22671 -37.55166,43.03192 -8.77916,4.62448 -7.12251,5.73386 5.18715,3.47358 4.74097,-0.87053 8.9985,-1.34882 9.46118,-1.06287 1.46133,0.90315 0.86951,7.74382 -1.02969,11.90188 -1.00486,2.2 -3.31985,5.45219 -5.14443,7.22708 -4.06155,3.95094 -17.28718,10.57478 -25.73464,12.88877 -3.4375,0.94163 -6.25,2.08827 -6.25,2.5481 0,0.45983 2.65991,0.83605 5.91091,0.83605 6.36159,0 12.69672,-1.79858 26.08909,-7.40685 4.675,-1.95773 9.97946,-3.56708 11.7877,-3.57633 1.80823,-0.009 7.37856,1.56307 12.37849,3.49405 10.36315,4.00225 21.01827,5.95632 28.35157,5.19945 7.17477,-0.7405 10.33703,0.10064 11.89355,3.1636 1.9574,3.85182 3.58869,14.65304 3.58869,23.76165 0,6.56772 -0.45509,8.88498 -2.5839,13.15695 -2.81522,5.64941 6.9727,29.58669 6.78475,36.08967 -0.31324,10.83739 -37.1893,16.14644 -48.70045,0.0438 -2.74064,-3.83382 -34.06759,-25.19979 -40.24161,-28.29617 -6.93275,-3.47691 -12.5033,-5.62979 -14.56698,-5.62979 -1.83783,0 -3.89518,6.68899 -7.96713,8.07395 -11.24333,3.8241 -19.60329,-1.35268 -25.1479,-4.03678 -5.3161,-2.57348 -6.45574,-5.29213 -4.80732,-11.46796 0.5948,-2.2284 0.87928,-4.25381 0.63218,-4.5009 -0.76842,-0.76843 -4.90419,5.67565 -4.29123,11.96219 1.28732,13.2028 -6.15885,7.6855 -13.71396,7.70476 -7.08663,0.0181 -14.14662,-5.46121 -17.69314,-9.67601 -2.98298,-3.54507 -3.59568,-9.20096 -1.61289,-14.88878 1.6836,-4.8296 0.54548,-5.93545 -1.95114,-1.89583 -1.23348,1.99581 -2.70263,6.46299 -3.26477,9.92705 -1.67081,10.29595 16.12476,15.13036 14.04762,17.07647 -17.57264,16.46408 -17.57264,16.46408 -45.28153,6.74936 -6.48344,-2.27309 -11.329,3.26492 -14.43866,5.37103 -6.52902,4.42198 -6.33785,5.67505 0.51246,3.359 7.99315,-2.70244 13.79877,-1.98602 17.50316,2.15991 3.79957,4.25246 3.72752,9.58148 -0.24303,17.97452 -1.66315,3.51559 1.71295,20.26773 1.91756,20.47234 0.20462,0.20461 1.5379,-0.54506 2.96285,-1.66593 3.67619,-2.89169 17.06147,-22.13957 17.79845,-29.16793 0.34603,-3.3 1.10928,-7.2547 1.6961,-8.78822 1.79643,-4.69453 10.35995,-8.65733 23.03966,-10.66174 l 4.85638,-0.7677 2.05874,4.03546 c 2.4781,4.85748 29.79164,30.23484 34.50509,33.14791 1.87535,1.15903 3.03929,2.45427 2.58653,2.8783 -1.76823,1.65606 -37.19645,7.61359 -49.85496,11.82534 -19.70354,6.55578 -45.45546,5.59639 -64.97149,6.03699 -9.075,0.20488 -19.02265,-0.0309 -22.1059,-0.52402 z m -7.72871,-25.71278 3.83117,-5.5 10.967,-0.50663 c 8.22296,-0.37987 10.21637,-0.71447 7.967,-1.33729 -1.65,-0.45686 -5.475,-1.49509 -8.5,-2.30718 -14.56034,-3.90888 -24.45895,-16.95053 -25.6913,-33.8489 -0.55409,-7.59789 2.62797,-30.07262 5.06712,-35.78873 0.75366,-1.7662 5.03089,-7.19677 9.50496,-12.06794 8.33626,-9.07616 9.54283,-11.27882 8.9137,-16.2725 l -0.36168,-2.87083 -1.76708,4 c -2.23528,5.05981 -6.57381,9.61151 -14.01965,14.70845 -6.61474,4.52803 -8.1487,7.25812 -11.68215,20.79155 -2.96201,11.34475 -3.20947,11.5658 -11.17522,9.98246 -6.89167,-1.36985 -13.69977,-0.78381 -17.7887,1.53123 -2.34687,1.32874 -2.08411,1.41761 4.28984,1.45087 11.645,0.0608 16.92406,4.0437 20.65137,15.58098 1.14821,3.5541 5.11866,12.37416 8.82322,19.60014 5.72033,11.15787 6.73557,13.90807 6.73557,18.24623 0,2.80945 4.21231,20.09796 3.77582,21.66429 -1.1663,4.18527 -3.96905,-10.6993 0.45901,-17.0562 z m 211.36876,-55.5348 c -1.70697,-1.94413 -3.10359,-3.93699 -3.10359,-4.42857 0,-1.77623 3.1747,-4.00627 7.29467,-5.12408 7.15248,-1.94056 7.40056,-2.14504 3.70533,-3.05396 -4.86421,-1.19645 -10.47926,-0.2699 -22.51503,3.71524 -11.23788,3.72095 -15.82437,4.11677 -21.98497,1.89733 -4.95091,-1.78362 -5.00522,-1.78485 -3.59096,-0.0808 0.63466,0.76472 3.50226,2.41949 6.37245,3.67727 4.33929,1.90157 6.81909,2.26457 14.71851,2.15451 7.96632,-0.11099 10.38792,0.24992 15,2.23559 7.39265,3.18281 7.70359,3.1076 4.10359,-0.99257 z M 364.06658,324.27029 c 2.4951,-11.33478 3.45612,-13.50153 6.742,-15.20073 4.13201,-2.13674 13.68045,-0.0347 24.18479,5.32426 6.16154,3.14338 7.23229,1.94215 2.41129,-2.70511 -2.77,-2.67018 -6.625,-4.92424 -11.5,-6.72419 -11.41387,-4.21424 -19.72507,-8.46027 -20.91602,-10.68558 -1.92665,-3.59997 -0.26505,-6.63534 5.12836,-9.36839 6.48197,-3.28466 20.59409,-6.96639 34.42138,-8.98022 6.03181,-0.87849 11.1322,-1.76251 11.33419,-1.96449 0.20198,-0.20199 -2.1749,-0.68487 -5.28197,-1.07307 -9.00136,-1.12465 -27.11899,0.0654 -38.59662,2.53517 l -10.57746,2.27608 -10.42254,-3.09647 c -13.16111,-3.91008 -27.98489,-7.4449 -28.60803,-6.82177 -0.26219,0.2622 4.17228,2.85175 9.85438,5.75456 11.8962,6.0774 21.84923,15.07282 25.88362,23.3933 2.18713,4.51073 2.46034,6.54713 2.79202,20.81057 0.20221,8.69581 0.58092,15.5973 0.84157,15.33665 0.26066,-0.26065 1.29972,-4.22541 2.30904,-8.81057 z m 35.925,-151.23948 c -2.69877,-10.71779 1.02103,-21.09713 11.68766,-32.61198 3.81359,-4.11686 10.15145,-11.82608 14.08414,-17.13161 8.15274,-10.99875 8.76497,-11.33073 22.80805,-12.36752 7.69867,-0.56838 17.5,-3.26424 17.5,-4.81339 0,-0.98717 -26.91028,0.62421 -32.14434,1.9248 -7.97505,1.98167 -10.15508,1.78497 -16.67093,-1.50422 -3.16703,-1.59871 -7.9917,-3.22629 -10.72148,-3.61685 -5.88068,-0.84137 -5.14807,0.38933 1.74015,2.92323 6.48928,2.38715 11.19764,7.82956 10.37688,11.99466 -1.66744,8.46178 -10.54211,20.99926 -17.32898,24.48113 -2.91303,1.49447 -4.39249,1.64211 -8.63338,0.86152 -8.67507,-1.59677 -19.33844,-0.46042 -25.61792,2.72999 -5.8415,2.96788 -13,8.18557 -13,9.47546 0,0.42588 3.93267,-0.80472 8.73926,-2.73467 9.85647,-3.95758 19.70005,-5.20793 25.61971,-3.25426 4.17033,1.37633 4.25403,1.60351 5.52893,15.00688 0.80842,8.49918 1.17635,9.69817 3.62136,11.80128 1.49683,1.28752 2.91485,2.14761 3.15115,1.9113 0.2363,-0.2363 -0.0968,-2.52039 -0.74026,-5.07575 z m 10.38472,219.80596 c -8.00887,-5.80159 -31.4993,-31.1886 -27.90714,-34.16983 2.79988,-2.32369 6.72791,-2.27093 16.84096,0.22621 14.37053,3.54839 17.31487,3.39199 26.90345,-1.42905 4.37558,-2.2 -4.8222,-7.03046 -3.15467,-7.03046 3.80172,0 43.90467,25.59824 43.90467,28.31762 0,3.63857 3.11905,13.77377 -6.98804,15.59941 -3.14616,0.56829 -15.75641,-1.15045 -24.83141,-0.62806 -9.075,0.52238 -17.40966,1.22538 -18.52146,1.56222 -1.35989,0.41201 -3.40416,-0.38918 -6.24636,-2.44806 z m 122.87621,-38.27042 c 0,0 -6.08278,-15.136 -5.69231,-16.97336 0.60056,-2.82587 1.04136,-3.24444 2.86059,-2.71635 18.06113,5.24287 34.92534,-0.071 45.85031,-14.44743 1.46471,-1.92744 3.16059,-4.81293 3.76863,-6.4122 0.91509,-2.40685 -0.17218,-1.69406 -6.31157,4.13775 -9.3113,8.84483 -15.53459,11.51564 -27.15673,11.65469 -6.49743,0.0777 -8.90189,-0.34568 -12.80184,-2.25435 -6.92603,-3.38966 -8.15652,-5.79466 -8.17921,-15.98639 l -0.019,-8.51073 6.24048,-3.56217 c 3.43226,-1.95919 7.14476,-4.34527 8.25,-5.30238 3.6104,-3.12655 2.11659,-3.69816 -3.24719,-1.24254 -6.49605,2.97399 -21.57157,4.89238 -33.5615,4.27076 -6.74838,-0.34987 -11.46551,-1.38945 -21.18179,-4.6681 -16.51635,-5.57326 -17,-5.91842 -17,-12.13224 0,-6.92239 2.73123,-13.39525 9.76008,-23.13086 3.31838,-4.59624 8.33398,-12.96931 11.14578,-18.60681 3.86143,-7.74192 5.58898,-10.25 7.06016,-10.25 1.20579,0 4.09724,2.66035 7.59032,6.98366 9.06924,11.22477 21.19121,18.01634 32.1566,18.01634 2.98767,0 4.53429,0.48058 4.93877,1.53461 1.02022,2.65867 -1.61727,9.72631 -6.14098,16.45589 -2.39966,3.56978 -4.12881,6.71978 -3.84255,7 1.01566,0.99429 10.88062,-10.64744 14.01722,-16.54184 3.64974,-6.85873 9.08421,-12.69635 13.53625,-14.54045 2.81614,-1.16648 3.22864,-1.07162 5.04731,1.16074 1.75249,2.15114 1.9112,3.40974 1.3784,10.93105 -0.85072,12.00931 -3.83708,22.70247 -12.14859,43.5 -0.55967,1.40044 0.31985,0.95078 2.93392,-1.5 4.82151,-4.52032 11.86935,-19.12077 14.24008,-29.5 2.76339,-12.09836 2.48599,-32.35781 -0.59318,-43.32123 -1.28539,-4.57668 -2.66795,-7.95168 -3.07235,-7.5 -0.4044,0.45168 -1.26816,3.01921 -1.91947,5.70562 -2.68174,11.06124 -7.67251,17.56827 -15.80956,20.61273 -6.88691,2.57672 -12.77973,2.53544 -19.92944,-0.13961 -7.64792,-2.86145 -17.86729,-13.10012 -22.52172,-22.56425 -3.25595,-6.62053 -3.32489,-7.03224 -3.22803,-19.27913 0.0663,-8.37838 0.9537,-17.63666 2.68526,-28.01413 1.42245,-8.525 2.81458,-20.675 3.0936,-27 0.47906,-10.85947 0.65287,-11.62532 3.12051,-13.75 3.61696,-3.11427 7.57187,-2.89977 24.59295,1.33383 16.38934,4.07646 21.8754,6.68191 29.15254,13.84517 6.2571,6.15918 17.75617,20.56048 17.75617,22.23761 0,2.35451 -4.38928,4.33339 -9.61172,4.33339 -7.06366,0 -8.85796,1.76861 -12.68157,12.5 -3.05011,8.56049 -3.42647,9.11201 -7.70671,11.29366 -5.71781,2.91439 -10.40249,2.30519 -14.25,-1.85309 -5.21308,-5.63415 -3.86809,-9.01574 7.03853,-17.69632 5.09515,-4.05523 6.23663,-9.2073 3.85456,-17.39761 -1.65916,-5.70475 -5.42078,-11.88002 -4.17057,-6.84664 0.34153,1.375 0.85591,4.975 1.14307,8 0.78438,8.26268 -3.51488,14.81639 -10.86559,16.56328 -2.40396,0.5713 -2.75276,0.35678 -2.77196,-1.70487 -0.0351,-3.76966 -3.4221,-10.21283 -6.91247,-13.14978 -3.26158,-2.74444 -6.06557,-3.53431 -6.06557,-1.70863 0,0.55 0.59214,1 1.31586,1 0.72372,0 2.34015,1.82248 3.59206,4.04996 1.74954,3.11288 2.60727,7.20756 3.70706,17.69685 1.57063,14.98001 2.82256,18.28363 8.33697,21.99979 2.42782,1.63611 4.80044,2.2534 8.66114,2.2534 6.39866,0 9.22489,-2.14339 19.10069,-14.48585 6.43622,-8.04379 12.4656,-12.51415 16.8784,-12.51415 12.75967,0 20.84306,17.07722 15.68433,33.13517 -1.23998,3.85978 -3.28677,6.97701 -7.29585,11.11153 l -5.57236,5.74669 3.70248,2.9754 c 2.20696,1.77356 4.41,4.82799 5.45408,7.56188 2.05517,5.38139 1.2009,10.86068 -3.116,19.98584 l -2.56408,5.42003 2.55761,3.76387 c 2.16756,3.18985 2.55761,4.87982 2.55761,11.08138 0,4.67517 -0.56358,8.40738 -1.56074,10.33566 -2.34389,4.5326 -1.17893,5.72329 1.77501,1.81421 2.92841,-3.8753 5.78573,-12.60694 5.78573,-17.68055 0,-3.05333 0.22099,-3.3167 2.25,-2.6815 4.02656,1.26055 10.75935,6.48593 13.20777,10.25067 3.5996,5.53478 4.83517,11.56111 4.06202,19.81182 -0.37093,3.95841 -1.25936,7.99706 -1.97427,8.97476 -1.21997,1.6684 -1.50712,1.60269 -4.67268,-1.06923 -3.60684,-3.04438 -10.40862,-6.48374 -12.87284,-6.50921 -0.825,-0.009 0.65296,1.82981 3.28435,4.0852 5.71731,4.90037 8.99013,10.85287 9.12029,16.58774 0.0816,3.59491 -0.46583,4.77613 -3.79248,8.18332 -4.62897,4.74104 -11.0835,6.75053 -16.54962,5.15241 -3.06695,-0.89668 -3.98047,-0.65655 -8.47553,2.22793 -4.53594,2.9107 -5.78804,3.23302 -12.56254,3.23395 -4.13846,5.7e-4 -9.04327,-0.38459 -10.89958,-0.8559 -4.72213,-1.19894 -3.27732,0.73926 2.87511,3.85693 2.67215,1.35408 5.16954,2.96531 5.54975,3.5805 0.39745,0.64309 12.3669,6.44449 9.03056,9.54947 -6.41243,5.96779 -5.54342,7.00773 2.46481,2.94965 4.80842,-2.43661 -4.04512,-10.64883 -4.04512,-12.9235 0,-1.49985 14.60051,-5.55025 18.59501,-6.66591 20.75007,-5.79548 14.94525,2.28707 14.07084,5.77099 -0.80658,3.21371 -3.14098,15.68084 -8.06718,18.79703 -7.44346,4.70854 -7.63951,9.01348 -20.3666,8.93652 -27.33151,7.13516 -50.03122,-3.61256 -43.05099,-28.36204 z M 148.42349,340.64227 c -12.33346,-3.43527 -14.13819,-4.89414 -10.25,-8.28572 4.19248,-3.65702 5.64436,-3.79564 12.16579,-1.16151 4.81092,1.94322 8.97024,2.69047 18.1782,3.26584 12.35554,0.77205 15.24913,1.7889 12.95539,4.55268 -3.23463,3.89749 -21.6463,4.80483 -33.04938,1.62871 z m -35.16392,-13.0128 c -2.01516,-0.39247 -4.78096,-1.4455 -6.14622,-2.34005 -2.20428,-1.4443 -9.686793,-9.79733 -9.691793,-10.81935 -0.001,-0.21836 6.186423,-0.17201 13.749993,0.10299 12.70999,0.46212 14.13078,0.71171 18.75194,3.29424 2.75,1.53683 6.53156,4.05661 8.40346,5.59949 l 3.40347,2.80525 -8.97119,1.15051 c -9.78226,1.25453 -13.89659,1.29818 -19.49966,0.20692 z m 50.66392,-2.43275 c -9.79327,-3.1994 -22.90991,-9.12159 -28.07771,-12.67713 -6.73691,-4.63512 -9.83268,-9.33739 -10.44699,-15.86824 l -0.52471,-5.57829 -3.77376,7.32128 c -2.98968,5.80014 -4.48421,7.61812 -7.19318,8.75 -4.62765,1.93356 -9.89327,1.04381 -14.983643,-0.46132 -8.481634,-2.50787 -10.674413,-8.22746 -10.30633,-38.66068 0.18266,-15.10237 0.06401,-23.65232 4.555647,-24.77965 1.919523,-0.48177 2.17267,-0.9281 1.373411,-2.42153 -1.5983,-2.98645 -0.616119,-30.51502 1.517071,-38.85571 2.824452,-11.04351 8.382244,-21.98946 14.393194,-28.34708 9.45756,-10.00302 27.37555,-22.18473 32.63135,-22.18473 3.06025,0 7.02039,2.34358 10.98359,6.5 4.44272,4.65932 7.96842,6.5 12.45034,6.5 1.95231,0 3.54966,0.33893 3.54966,0.75318 0,0.41425 -0.9,3.90032 -2,7.74682 -2.25749,7.89401 -2.4276,9.5 -1.00628,9.5 2.55172,0 6.83544,-8.32763 8.91666,-17.33415 2.85337,-12.34804 5.75127,-15.15615 16.79352,-16.27324 4.7528,-0.48082 7.75153,-0.006 16.65958,2.63871 11.4677,3.40444 17.6133,3.62646 24.13652,0.87199 2.83313,-1.19631 2.51283,-1.30769 -5.75812,-2.00239 -7.18619,-0.60358 -10.10107,-1.39917 -16.24034,-4.43264 -9.45598,-4.67229 -17.15548,-5.50371 -27.4974,-2.96929 -6.69663,1.64109 -7.28637,1.64722 -8.83973,0.0919 -4.18063,-4.18585 0.0467,-18.802 7.63172,-26.38703 7.1839,-7.18389 18.74837,-12.20386 28.11397,-12.20386 5.16564,0 2.63146,-1.77054 -4.45175,-3.11028 -8.96894,-1.696415 -11.66231,-6.027055 -7.58985,-12.203625 3.06892,-4.65454 8.72453,-7.76924 17.10524,-9.42033 9.46064,-1.86384 14.3107,-1.13518 18.17672,2.73085 2.37099,2.37098 2.84954,3.68719 2.84954,7.83737 0,2.7433 -0.89419,7.84042 -1.9871,11.326925 -3.15558,10.06671 -2.87734,11.36735 3.07731,14.3848 8.22689,4.16888 13.34094,9.76081 21.80855,23.84641 7.59804,12.63911 8.45526,14.8161 8.21193,20.855 -0.1533,3.80467 -5.86143,9.80838 -12.88439,13.55158 -3.19571,1.7033 -10.20571,6.03557 -15.57777,9.62728 -11.48246,7.67705 -17.83224,9.8798 -34.89588,12.10545 -16.52758,2.15573 -19.19666,3.47101 -26.1651,12.89374 -5.97524,8.07972 -10.3897,28.57801 -16.05384,29.64797 -4.67019,0.88219 -11.60803,-1.06169 -16.89864,-4.73477 -2.39792,-1.66478 -4.57926,-2.80747 -4.84743,-2.53929 -1.14508,1.14508 3.33739,6.57061 7.89187,9.55223 6.10001,3.99341 5.96765,5.7477 -0.68459,9.07382 -4.47666,2.23833 -6.15136,2.48944 -16,2.39909 -11.32047,-0.10386 -17.90648,-1.647 -21.70648,-5.08596 -2.79888,-2.53294 -3.26876,-0.78929 -0.74313,2.75763 2.67953,3.76305 9.77544,7.2246 19.36624,9.44727 9.86405,2.28601 11.63282,3.46311 19.67845,13.09581 11.34656,13.58477 18.22944,16.76468 35.01881,16.1788 l 8.38611,-0.29264 -10,-3.49659 c -10.35426,-3.62046 -20.51016,-9.56309 -23.10111,-13.51738 -4.89809,-7.47542 -1.72304,-14.98909 10.09162,-23.88152 5.4086,-4.07084 9.3435,-25.06703 12.42423,-29.83514 7.28466,-11.2746 8.76336,-12.03534 32.5275,-16.73425 7.39043,-1.46132 19.69425,-4.86269 27.34182,-7.5586 14.75682,-5.20205 20.70377,-5.99617 25.67031,-3.42787 4.51597,2.3353 9.75602,9.22559 12.67593,16.66793 1.47991,3.77206 2.90716,6.85829 3.17165,6.85829 0.2645,0 0.24459,-2.60619 -0.0443,-5.79153 -0.38826,-4.28176 -1.85824,-8.44802 -5.63889,-15.98183 -2.8125,-5.60467 -5.11368,-10.96425 -5.11368,-11.91018 0,-0.94593 0.97063,-5.67766 2.15696,-10.51496 2.12148,-8.6504 2.1281,-8.93264 0.40245,-17.15566 -1.49117,-7.1057 -1.55226,-8.69016 -0.40696,-10.5565 1.74331,-2.84085 7.61946,-6.40285 21.84755,-13.24356 11.09007,-5.33199 20.58835,-12.33957 23.1088,-17.04907 1.89005,-3.53158 0.0691,-3.1233 -4.66826,1.04672 -4.91642,4.3276 -13.56855,8.15657 -18.431,8.15657 -9.83115,0 -11.90249,-6.69 -7.92335,-25.590705 1.77949,-8.45245 1.91697,-10.67663 0.93516,-15.12859 -0.63307,-2.87062 -1.90936,-6.15579 -2.8362,-7.30038 -1.61966,-2.0002 -1.68673,-1.8168 -1.72584,4.7193 -0.0245,4.10085 -1.18257,11.25081 -2.91719,18.01148 -2.7852,10.855265 -2.83524,11.476365 -1.57654,19.567655 1.01506,6.52508 1.03771,8.84657 0.10337,10.5924 -1.75908,3.28688 -7.02832,6.12083 -11.38854,6.1251 -3.47552,0.003 -4.78171,-0.91046 -14.5,-10.1448 -13.37371,-12.70771 -13.18041,-12.45729 -13.18041,-17.07583 0,-5.110755 3.74157,-12.237535 10.0465,-19.136125 2.8348,-3.10173 4.74713,-5.63951 4.24962,-5.63951 -1.25709,0 -9.90685,5.56114 -10.73569,6.90223 -1.17849,1.90683 -2.56043,1.19141 -2.56043,-1.3255 0,-3.43017 -4.25644,-8.06205 -9.24151,-10.05668 -3.58011,-1.43248 -7.11823,-1.90254 -18.50849,-2.45898 -4.11834,-0.20119 1.23523,-9.19737 7.34872,-12.34885 9.24818,-4.76738 44.27266,-12.69298 56.15128,-12.70632 5.63037,-0.006 6.05457,0.40041 3.78983,3.63378 -1.70406,2.43288 -4.93112,3.80869 -12.50912,5.33307 -7.13306,1.43488 -18.65055,8.74075 -16.75997,10.63132 0.30565,0.30566 1.61464,-0.13809 2.90887,-0.98609 3.90178,-2.55655 10.53377,-4.52636 18.61896,-5.53014 4.33513,-0.53821 7.83062,-1.4754 8.05907,-2.16075 0.22189,-0.66567 1.93288,-2.90322 3.80222,-4.97235 6.82908,-7.55898 18.62491,-10.40455 20.84014,-5.02737 2.30549,5.59627 5.07321,10.49489 6.10662,10.80821 0.7452,0.22593 0.95502,-1.24229 0.64243,-4.49547 -0.40126,-4.17597 -0.0936,-5.2714 2.26917,-8.07939 5.2954,-6.29323 9.267,-7.52244 25.76723,-7.97495 16.18119,-0.44376 28.03755,0.84071 36.30192,3.9328 8.29613,3.10398 9.23059,5.78561 3.24765,9.31982 -7.25544,4.28589 4.12453,4.03858 19.6618,-0.42729 13.19098,-3.79148 28.17859,-1.75986 30.02909,4.07055 1.18484,3.73309 -1.83279,5.12607 -10.23861,4.72629 l -7.21271,-0.34304 1.46271,2.23237 c 3.74528,5.71602 0.0602,8.95059 -16.37577,14.37397 -16.59293,5.47516 -24.84523,9.84372 -31.11204,16.46995 l -5.06147,5.35175 -3.46189,-1.44647 c -5.61244,-2.34502 -7.50152,-1.79379 -3.40118,0.99247 3.96673,2.695465 6.83357,7.832955 7.61278,13.642375 1.13496,8.46177 -1.22493,10.97924 -13.06577,13.93821 -10.4412,2.60921 -16.02525,5.48729 -22.7801,11.74108 -7.01064,6.49062 -11.03926,14.16108 -13.78126,26.2394 -5.66041,24.93381 -5.41957,33.20386 1.34747,46.2694 2.64409,5.10511 4.5416,10.1193 4.54114,12 -9.5e-4,3.90992 -4.61866,13.96094 -8.55888,18.62945 -1.57774,1.86937 -4.63977,4.68187 -6.80451,6.25 l -3.9359,2.85115 h -19.56653 c -15.86037,0 -20.39426,0.31612 -23.93654,1.66892 -3.74054,1.42853 -4.50286,1.46454 -5.29227,0.25 -2.29166,-3.52579 -1.98553,-5.98331 1.75572,-14.09439 3.48967,-7.56565 3.83095,-9.05383 3.74368,-16.32453 -0.0711,-5.92606 -0.71575,-9.55545 -2.48653,-14 l -2.3905,-6 -0.64323,11.5 c -0.6608,11.81407 -2.03314,16.83981 -5.95504,21.80845 -1.16849,1.48035 -3.36523,5.42244 -4.88166,8.76019 -3.43105,7.55201 -6.76676,9.42058 -13.34881,7.47765 -6.28553,-1.85541 -10.39247,-4.65389 -18.94479,-12.90905 -4.26062,-4.11258 -7.98616,-7.23783 -8.27898,-6.94501 -0.68757,0.68756 5.91326,13.13804 9.36679,17.66764 3.89849,5.1132 11.59489,10.85761 17.22736,12.85809 2.71228,0.96331 4.93141,2.2804 4.93141,2.92686 0,0.64646 -3.4875,4.23473 -7.75,7.97394 -4.2625,3.7392 -12.025,10.92872 -17.25,15.9767 -6.9148,6.68054 -13.23645,37.61899 -16.14794,38.42519 -6.67863,1.84934 -18.19489,1.29231 -26,-1.25757 z m -46.37603,-107.0855 c 7.46349,-9.13165 18.97135,-25.20833 28.26691,-27.43927 3.98362,-0.95607 7.24612,-1.96596 7.25,-2.2442 0.004,-0.27824 -1.45544,-1.15162 -3.24294,-1.94085 -4.60794,-2.03453 -13.2277,-10.96687 -14.81256,-15.34971 -0.73657,-2.03695 -1.69882,-3.70355 -2.13833,-3.70355 -1.42117,0 -0.87191,12.95854 0.67615,15.95216 1.12851,2.1823 1.18727,2.96474 0.25,3.32889 -3.42076,1.32906 -16.81405,14.93012 -21.05641,25.62691 -2.06758,5.21324 -3.37526,11.23418 -2.41144,11.23418 0.25711,0 4.1955,-1.76576 7.21862,-5.46456 z M 341.32883,87.551235 c 0.62783,-4.68081 9.3693,-18.70464 14.42741,-23.14572 1.95149,-1.71343 5.07075,-3.8414 6.93168,-4.72882 4.30085,-2.05093 4.37826,-3.61668 0.13351,-2.70048 -5.87009,1.26703 -10.48802,4.31413 -15.80829,10.43098 -4.40548,5.06508 -5.76187,6.02644 -8.50278,6.02644 -2.41393,0 -3.93371,-0.7993 -5.85004,-3.07672 -3.50575,-4.16635 -3.53017,-10.671 -0.0645,-17.18123 3.02715,-5.68649 1.80716,-6.17334 -2.48593,-0.99205 -4.26461,5.14692 -6.58421,13.33751 -5.32975,18.81951 l 0.95974,4.1941 -5.50518,0.64702 c -5.82606,0.68474 -13.40982,3.56127 -14.64099,5.55334 -0.55593,0.89951 0.4516,0.98834 4.12095,0.36332 12.2329,-2.08371 23.83669,0.89694 27.9538,7.18044 2.25221,3.4373 3.05371,3.13291 3.66037,-1.39013 z M 599.57143,272.6792 c -3.85,-1.42953 -7.17842,-2.73552 -7.3965,-2.90219 -0.21807,-0.16667 0.56943,-2.82715 1.75,-5.91219 3.07793,-8.04312 2.9029,-16.52059 -0.4813,-23.3118 l -2.6278,-5.2733 3.83075,-3.92304 c 5.02993,-5.15111 7.9868,-5.2157 10.07411,-0.22005 1.89619,4.53822 5.91897,22.09583 7.43028,32.42981 1.82985,12.51214 0.0494,13.80195 -12.57954,9.11276 z M 82.262659,247.35877 c -2.401229,-18.50564 -1.158767,-45.41487 3.856565,-60.5312 3.49242,-10.52624 4.977094,-12.98209 7.307599,-12.08779 2.301214,0.88305 2.08735,4.81838 -0.860458,15.8333 -4.764675,17.80393 -7.110737,43.45194 -8.380194,52.59982 l -1.274729,9.18587 z m 17.558772,-78.4971 c -6.36263,-3.45179 -1.290237,-14.96032 13.757059,-31.21279 6.4193,-6.93344 16.21415,-13.21524 20.60575,-13.21524 1.06766,0 2.46766,-1.421 3.45973,-3.51162 0.9165,-1.9314 3.07511,-4.6999 4.79691,-6.15223 3.27935,-2.76612 18.12377,-10.33615 20.26863,-10.33615 0.68414,0 1.56449,-0.51876 1.95635,-1.1528 1.12093,-1.8137 -10.54326,-0.40824 -15.70785,1.89269 -2.41262,1.07488 -7.65634,4.6951 -11.65272,8.04494 -3.99637,3.34985 -8.20417,6.38836 -9.35066,6.75224 -5.68422,1.8041 -4.22963,-5.39871 2.18654,-10.82723 2.0866,-1.76541 12.20648,-8.56642 22.48861,-15.113355 10.28214,-6.54693 23.55345,-15.38151 29.4918,-19.63239 10.15558,-7.26971 20.07045,-11.9641 25.26902,-11.9641 1.61389,0 1.83191,0.49458 1.32822,3.01303 -0.67616,3.38081 -6.29799,12.55008 -9.3571,15.26156 -1.10116,0.97603 -4.7955,2.26664 -8.20964,2.86803 l -6.20752,1.09343 1.99682,2.13198 c 2.94685,3.1463 4.34889,7.65194 3.60875,11.59723 -0.51772,2.759675 -3.24379,6.021935 -13.08286,15.656145 -6.83588,6.69354 -13.43394,12.41695 -14.66236,12.71868 -1.22841,0.30174 -6.60901,1.24751 -11.95688,2.10172 -10.20877,1.63063 -17.7766,4.08863 -17.7766,5.77377 0,0.55531 0.77665,0.68256 1.75,0.28672 3.47735,-1.41416 18.86159,-1.78558 22.6174,-0.54605 6.84425,2.2588 12.6326,8.83762 12.6326,14.35774 0,2.53816 -4.37847,7.68602 -6.53728,7.68602 -0.69551,0 -4.10941,-2.1375 -7.58645,-4.75 -5.80983,-4.36526 -6.76959,-4.74536 -11.84908,-4.69275 -3.03996,0.0315 -7.92221,0.86595 -10.84946,1.85437 -6.7679,2.28525 -18.23666,9.97315 -24.64014,16.51711 -2.72932,2.7892 -5.20432,5.05325 -5.5,5.03123 -0.29567,-0.022 -1.77509,-0.71139 -3.287589,-1.53193 z"
         style="fill:#000000;fill-opacity:1" />
    </g>
  </g>
</svg>
