<?xml version="1.0" encoding="UTF-8" standalone="no"?>
<!-- Created with Inkscape (http://www.inkscape.org/) -->

<svg
   xmlns:dc="http://purl.org/dc/elements/1.1/"
   xmlns:cc="http://creativecommons.org/ns#"
   xmlns:rdf="http://www.w3.org/1999/02/22-rdf-syntax-ns#"
   xmlns:svg="http://www.w3.org/2000/svg"
   xmlns="http://www.w3.org/2000/svg"
   xmlns:sodipodi="http://sodipodi.sourceforge.net/DTD/sodipodi-0.dtd"
   xmlns:inkscape="http://www.inkscape.org/namespaces/inkscape"
   width="258.41745mm"
   height="258.41745mm"
   viewBox="0 0 915.65238 915.65238"
   id="svg2"
   version="1.1"
   inkscape:version="0.91 r13725"
   sodipodi:docname="ThinkingMachine2.svg">
  <defs
     id="defs4">
    <filter
       style="color-interpolation-filters:sRGB"
       height="1.4"
       width="1.4"
       y="-0.2"
       x="-0.2"
       inkscape:label="Outline"
       id="filter4594">
      <feGaussianBlur
         in="SourceAlpha"
         stdDeviation="20"
         result="blur1"
         id="feGaussianBlur4596" />
      <feComposite
         in="blur1"
         in2="SourceGraphic"
         operator="out"
         result="composite1"
         id="feComposite4598" />
      <feColorMatrix
         values="1 0 0 0 0 0 1 0 0 0 0 0 1 0 0 0 0 0 100 -12.1 "
         result="colormatrix1"
         id="feColorMatrix4600" />
      <feGaussianBlur
         stdDeviation="3.4"
         result="blur2"
         id="feGaussianBlur4602" />
      <feComposite
         in="SourceGraphic"
         in2="blur2"
         operator="atop"
         result="composite2"
         id="feComposite4604" />
      <feColorMatrix
         values="1 0 0 0 0 0 1 0 0 0 0 0 1 0 0 0 0 0 100 -12.2 "
         result="colormatrix2"
         id="feColorMatrix4606" />
      <feGaussianBlur
         stdDeviation="1"
         result="blur3"
         id="feGaussianBlur4608" />
      <feColorMatrix
         values="1 0 0 0 0 0 1 0 0 0 0 0 1 0 0 0 0 0 5 -1 "
         result="colormatrix3"
         id="feColorMatrix4610" />
      <feFlood
         flood-opacity="1"
         flood-color="rgb(0,0,0)"
         result="flood"
         id="feFlood4612" />
      <feComposite
         in="flood"
         in2="colormatrix3"
         operator="in"
         result="composite3"
         id="feComposite4614" />
      <feComposite
         in="SourceGraphic"
         in2="colormatrix3"
         operator="out"
         result="composite4"
         id="feComposite4616" />
      <feComposite
         in="composite4"
         in2="composite3"
         k2="1"
         k3="1"
         operator="arithmetic"
         result="composite5"
         id="feComposite4618"
         k1="0"
         k4="0" />
    </filter>
  </defs>
  <sodipodi:namedview
     id="base"
     pagecolor="#ffffff"
     bordercolor="#666666"
     borderopacity="1.0"
     inkscape:pageopacity="0.0"
     inkscape:pageshadow="2"
     inkscape:zoom="0.24748737"
     inkscape:cx="-170.31777"
     inkscape:cy="484.60746"
     inkscape:document-units="px"
     inkscape:current-layer="layer1"
     showgrid="false"
     inkscape:window-width="1855"
     inkscape:window-height="1056"
     inkscape:window-x="1985"
     inkscape:window-y="24"
     inkscape:window-maximized="1"
     fit-margin-top="0"
     fit-margin-left="0"
     fit-margin-right="0"
     fit-margin-bottom="0" />
  <metadata
     id="metadata7">
    <rdf:RDF>
      <cc:Work
         rdf:about="">
        <dc:format>image/svg+xml</dc:format>
        <dc:type
           rdf:resource="http://purl.org/dc/dcmitype/StillImage" />
        <dc:title />
      </cc:Work>
    </rdf:RDF>
  </metadata>
  <g
     inkscape:label="Capa 1"
     inkscape:groupmode="layer"
     id="layer1"
     transform="translate(46.613281,-35.416016)">
    <path
       style="fill:#000000"
       d="m 411.21289,35.416016 c -50.03795,0 -57.07967,4.708335 -73.04492,48.859375 -24.75407,68.456729 -100.96987,99.199589 -167.64453,67.623049 -44.703,-21.17088 -47.69023,-20.59882 -84.470706,16.18164 -36.78029,36.78032 -37.35267,39.76965 -16.18164,84.47265 31.576526,66.67476 0.832993,142.89062 -67.6230471,167.64454 -44.1508699,15.96528 -48.8613279,23.00697 -48.8613279,73.04492 0,50.03795 4.710458,57.07785 48.8613279,73.04297 68.4566901,24.75406 99.1995731,100.97168 67.6230471,167.64648 -21.17103,44.70286 -20.59865,47.69042 16.18164,84.4707 36.777026,36.7769 39.770796,37.3497 84.455076,16.1875 41.74658,-19.77047 51.52751,-19.71762 98.92383,0.52344 36.65843,15.6554 57.7205,36.62799 69.50195,69.20899 15.12491,41.8272 22.73036,46.74609 72.2793,46.74609 50.03796,0 57.07982,-4.71043 73.04492,-48.86133 24.7539,-68.4553 100.96983,-99.19976 167.64453,-67.62305 44.7031,21.1709 47.69031,20.59886 84.47071,-16.18164 36.7768,-36.77685 37.35155,-39.7726 16.18945,-84.45703 -19.7706,-41.74644 -19.71962,-51.52751 0.52148,-98.92383 15.6555,-36.65854 36.62829,-57.71869 69.20899,-69.5 41.8273,-15.12498 46.74609,-22.73036 46.74609,-72.27929 0,-50.03798 -4.71023,-57.07966 -48.86133,-73.04492 -68.4553,-24.75392 -99.19954,-100.96973 -67.62304,-167.64454 21.171,-44.703 20.59886,-47.69231 -16.18164,-84.47265 -36.7771,-36.77702 -39.77048,-37.34965 -84.45508,-16.1875 -41.7464,19.77051 -51.52753,19.71762 -98.92383,-0.52344 -36.6584,-15.65536 -57.72045,-36.62611 -69.50195,-69.207031 -15.1248,-41.82727 -22.73032,-46.746093 -72.2793,-46.746093 z M 393.90234,261.03125 c 3.22494,0.003 6.77198,0.1109 11.02344,0.29297 16.99381,0.72779 23.92716,1.94967 50.4375,8.88086 0.83156,0.21741 1.59189,0.42518 2.41016,0.64062 6.54595,1.45333 13.07171,3.22732 19.56054,5.32813 42.26653,11.97837 65.24365,22.06709 94.20704,40.38086 21.96011,13.88541 28.64062,19.65841 42.0664,36.3457 6.34491,7.8861 18.41415,20.64933 26.82031,28.36328 17.32045,15.89404 25.24531,25.66549 36.93165,45.54297 16.34987,27.80944 24.39843,47.72125 32.34374,80.00586 5.54466,22.52963 9.47586,67.49265 7.45118,85.2207 -2.42499,21.23304 -9.40927,57.48847 -12.84375,66.66797 -4.44968,11.89305 -8.41196,25.41963 -20.81278,31.52455 -9.34157,4.59881 -8.79825,7.64915 -24.69977,8.25781 -15.59918,0.5971 -22.84347,5.84774 -40.31111,1.59906 -14.88266,-9.33369 -30.51925,2.57795 -59.99163,6.85072 -4.60437,0.66752 -8.99045,0.13811 -13.1836,0.22656 -61.23016,-1.13003 -129.36585,21.51626 -172.84932,27.62779 -24.62012,2.58299 -36.66511,2.76738 -53.24024,0.8125 -16.582,-1.95568 -37.6343,-7.54163 -48.40039,-12.84179 -13.35633,-6.57524 -27.56453,-33.61567 -37.66937,-48.45954 -9.68618,-14.22893 -17.99253,-23.48353 -23.82812,-26.54883 -2.25306,-1.18337 -12.55769,-3.5711 -22.89844,-5.30664 -34.60649,-5.80822 -59.86786,-16.8083 -76.29687,-33.2207 -18.618513,-18.6 -24.294887,-35.21308 -26.935551,-78.85157 -2.120808,-35.04755 -1.084215,-61.46232 3,-76.44336 3.911227,-14.34632 16.286391,-45.74309 23.257811,-59.00976 13.8735,-26.40107 45.73038,-61.84663 69.57422,-77.41211 16.03097,-10.46509 27.01486,-15.58079 57.68164,-26.85938 34.69551,-12.7602 44.70969,-15.20631 76.80078,-18.76562 15.17061,-1.68263 37.51191,-4.93688 49.64844,-7.23047 14.28492,-2.69956 21.07128,-3.62963 30.74609,-3.61914 z"
       id="path4147"
       inkscape:connector-curvature="0"
       sodipodi:nodetypes="sssssssssssssssssssssssssssscssccsssssssssccccssscsssssssssc" />
    <g
       transform="matrix(1.094225,0,0,1.094225,18.045884,247.28186)"
       id="layer1-3"
       inkscape:label="Capa 1"
       style="fill:#000000;fill-opacity:1">
      <path
         sodipodi:nodetypes="ssssssssssssssscsssssssscssssssscssssssssssssscsssssssssscsssssssssssssssssssscsssscscsssssssssssssssscsssssssssssscsssssssssssscsssscssssssscssssssscssssssssssscsssssssssccsssssssscsscscssscssssssssssssssssssscsssssssssssscssssssscssssssssssscscssssssssssssssssssssssssssssssssssssssssscssscsssssssssscssssssssssssssssccssssssscssscssssscsssssssssssssssscsssssssssssssssssssssscsssssssscssssssssscsssssssssssssssscssssssssscsscsssssssssssssscssscsssssssssscsssssscssssssssssssssscsssssssssssssssssscssssssssscssssssssscsssssssssssssssssscsssssssssssssscss"
         inkscape:connector-curvature="0"
         id="path4147-5"
         d="m 269.53497,416.14642 c -11.53359,-1.84452 -26.62123,-6.28113 -33.3941,-9.81973 -3.85,-2.0115 -14.15694,-19.86885 -17.31944,-22.92839 -4.64386,-4.49266 -5.75,-6.17856 -5.75,-8.76372 0,-1.76052 0.45949,-3.20094 1.02108,-3.20094 0.5616,0 4.34348,0.97746 8.40418,2.17214 5.91855,1.74127 8.04678,1.96755 10.72892,1.14072 2.93452,-0.90463 3.09996,-1.12343 1.34582,-1.7799 -10.27718,-3.84615 -23.62484,-14.11826 -28.35998,-21.82532 -3.58982,-5.84291 -6.53267,-16.75416 -6.52898,-24.20764 0.007,-14.42651 3.92047,-20.36833 26.37615,-40.04837 27.01458,-23.67543 32.6331,-26.71432 49.51281,-26.78 11.17207,-0.0435 18.09247,1.46899 18.94001,4.13936 0.30834,0.9715 -0.14991,4.44897 -1.01835,7.72769 -6.98544,26.37305 -7.02345,27.66326 -1.24246,42.17718 3.15069,7.91021 3.92775,10.89746 3.1575,12.13828 -0.56194,0.90522 -4.13008,3.35731 -7.9292,5.44907 -7.61971,4.19535 -11.85299,7.7936 -13.99678,11.89713 -2.58407,4.94631 -1.4595,5.11897 3.44724,0.52929 6.23075,-5.82813 12.04018,-8.76041 18.72252,-9.45009 5.21108,-0.53783 5.43405,-0.45181 10.39857,4.01171 4.36402,3.92364 10.30185,6.76119 11.54564,5.5174 0.20992,-0.20992 -1.71924,-1.94025 -4.28703,-3.84516 -10.04246,-7.45002 -11.36771,-13.43769 -4.75917,-21.50255 4.15341,-5.06869 7.46811,-11.89216 7.49955,-15.43819 0.0171,-1.92571 -0.81294,-1.0569 -3.72804,3.90233 -2.0625,3.50877 -5.08497,7.1979 -6.7166,8.19808 -2.89508,1.77466 -3.01884,1.76942 -5.13352,-0.21722 -1.1918,-1.11964 -2.95481,-4.54064 -3.9178,-7.60222 -4.55977,-14.49669 2.92757,-36.92498 15.28058,-45.77292 2.32729,-1.66694 11.54527,-8.59769 20.48439,-15.40167 19.97716,-15.20554 30.2668,-22.04704 40.38758,-26.85338 l 7.78547,-3.6973 13.11542,0.15772 c 19.22014,0.23113 28.98878,1.66217 33.71788,4.93943 3.95751,2.74256 8.7466,9.67561 8.7466,12.66226 0,2.44698 1.69314,2.02258 2.34527,-0.58786 1.30112,-5.20834 -1.811,-12.06574 -8.25389,-18.18709 -1.70026,-1.6154 -3.09138,-3.57178 -3.09138,-4.34752 0,-0.77573 4.20919,-5.75473 9.35376,-11.06445 5.14456,-5.30972 9.63969,-10.55494 9.98917,-11.65606 0.34948,-1.10112 1.02784,-5.87356 1.50746,-10.60543 1.02212,-10.0841 4.15094,-17.7247 10.23301,-24.98906 2.25656,-2.69521 3.82699,-4.90039 3.48985,-4.90039 -0.33715,0 -2.42655,1.14485 -4.64312,2.5441 -5.14735,3.24939 -9.16182,9.61193 -12.52157,19.84549 -8.94446,27.2442 -17.68332,35.85607 -36.37068,35.84214 -4.69583,-0.004 -10.49117,-0.53539 -12.87852,-1.18199 -5.88539,-1.59403 -12.47066,-7.90536 -16.2423,-15.56664 -2.77332,-5.63342 -3.04938,-7.02633 -2.74993,-13.87517 0.36256,-8.29211 -0.53233,-9.2218 -3.41558,-3.54838 -2.29798,4.52178 -2.20772,9.06553 0.38334,19.29826 1.26812,5.0081 1.86336,9.51302 1.46611,11.09579 -1.07977,4.30214 -7.86431,10.77264 -16.27265,15.51943 -4.30559,2.43064 -12.98588,7.75333 -19.28952,11.8282 -6.30365,4.07487 -12.45629,7.78719 -13.67254,8.24961 -5.21012,1.98088 -5.59516,-5.71887 -0.76285,-15.25498 l 2.55338,-5.03885 -2.96646,-3.1285 c -4.24162,-4.47334 -6.12787,-8.73721 -6.82787,-15.4345 -1.14917,-10.99466 4.27212,-29.74818 13.24196,-45.80705 8.42642,-15.08598 12.36436,-18.06057 28.39555,-21.44906 13.01748,-2.75149 17.79899,-4.40044 20.72153,-7.14602 3.59069,-3.37328 2.81667,-5.5428 -4.37152,-12.25287 -6.07619,-5.67203 -6.58723,-6.45924 -5.92266,-9.12334 1.12503,-4.509895 9.42721,-11.753945 18.7124,-16.327465 7.29991,-3.59564 11.94909,-4.94133 26.56645,-7.68954 1.60414,-0.30159 2.38563,-1.37123 2.8637,-3.9196 0.78735,-4.19691 4.00671,-6.73887 12.14142,-9.58669 11.14694,-3.90234 30.78552,-2.2351 38.51659,3.26991 4.02991,2.86955 3.54907,5.28317 -1.54363,7.74851 -6.41423,3.10507 -11.91883,2.72043 -20.10965,-1.40518 -3.80895,-1.91852 -7.07775,-3.33583 -7.264,-3.14958 -0.89192,0.89192 4.67745,6.32621 10.02694,9.78375 7.63361,4.93384 10.30523,4.90971 18.71078,-0.169 8.02157,-4.84671 12.47697,-6.29519 15.07938,-4.90243 2.29714,1.22939 2.31276,0.67096 -0.25527,9.12563 -2.39388,7.88133 -2.17335,13.58022 0.80721,20.860015 l 1.82033,4.446 0.56509,-7.26385 c 0.61932,-7.960885 2.59593,-11.746665 7.34956,-14.076525 2.26345,-1.10937 3.27915,-1.11489 5.89346,-0.032 3.75728,1.55632 14.56431,11.274595 23.94189,21.529875 5.43852,5.94753 6.74702,8.00941 6.73469,10.61213 -0.008,1.77671 -0.35508,3.76472 -0.77035,4.41781 -1.25832,1.97894 -6.02983,3.31015 -12.02944,3.35611 -3.12669,0.0239 -7.67984,0.42861 -10.1181,0.89923 -4.43293,0.85562 -4.43353,0.85535 -9.58422,-4.50527 -5.80546,-6.04207 -8.6398,-7.43751 -15.1067,-7.43751 -4.8387,0 -5.19831,1.38551 -0.59839,2.3055 4.02295,0.80459 8.04258,5.19558 11.62087,12.6945 3.0809,6.45653 3.10119,6.60701 3.03427,22.5 -0.11063,26.27577 -4.48677,48.74655 -13.37054,68.65549 -10.52468,23.5863 -18.93734,33.22671 -37.55166,43.03192 -8.77916,4.62448 -7.12251,5.73386 5.18715,3.47358 4.74097,-0.87053 8.9985,-1.34882 9.46118,-1.06287 1.46133,0.90315 0.86951,7.74382 -1.02969,11.90188 -1.00486,2.2 -3.31985,5.45219 -5.14443,7.22708 -4.06155,3.95094 -17.28718,10.57478 -25.73464,12.88877 -3.4375,0.94163 -6.25,2.08827 -6.25,2.5481 0,0.45983 2.65991,0.83605 5.91091,0.83605 6.36159,0 12.69672,-1.79858 26.08909,-7.40685 4.675,-1.95773 9.97946,-3.56708 11.7877,-3.57633 1.80823,-0.009 7.37856,1.56307 12.37849,3.49405 10.36315,4.00225 21.01827,5.95632 28.35157,5.19945 7.17477,-0.7405 10.33703,0.10064 11.89355,3.1636 1.9574,3.85182 3.58869,14.65304 3.58869,23.76165 0,6.56772 -0.45509,8.88498 -2.5839,13.15695 -2.81522,5.64941 6.9727,29.58669 6.78475,36.08967 -0.31324,10.83739 -37.1893,16.14644 -48.70045,0.0438 -2.74064,-3.83382 -34.06759,-25.19979 -40.24161,-28.29617 -6.93275,-3.47691 -12.5033,-5.62979 -14.56698,-5.62979 -1.83783,0 -3.89518,6.68899 -7.96713,8.07395 -11.24333,3.8241 -19.60329,-1.35268 -25.1479,-4.03678 -5.3161,-2.57348 -6.45574,-5.29213 -4.80732,-11.46796 0.5948,-2.2284 0.87928,-4.25381 0.63218,-4.5009 -0.76842,-0.76843 -4.90419,5.67565 -4.29123,11.96219 1.28732,13.2028 -6.15885,7.6855 -13.71396,7.70476 -7.08663,0.0181 -14.14662,-5.46121 -17.69314,-9.67601 -2.98298,-3.54507 -3.59568,-9.20096 -1.61289,-14.88878 1.6836,-4.8296 0.54548,-5.93545 -1.95114,-1.89583 -1.23348,1.99581 -2.70263,6.46299 -3.26477,9.92705 -1.67081,10.29595 16.12476,15.13036 14.04762,17.07647 -17.57264,16.46408 -17.57264,16.46408 -45.28153,6.74936 -6.48344,-2.27309 -11.329,3.26492 -14.43866,5.37103 -6.52902,4.42198 -6.33785,5.67505 0.51246,3.359 7.99315,-2.70244 13.79877,-1.98602 17.50316,2.15991 3.79957,4.25246 3.72752,9.58148 -0.24303,17.97452 -1.66315,3.51559 1.71295,20.26773 1.91756,20.47234 0.20462,0.20461 1.5379,-0.54506 2.96285,-1.66593 3.67619,-2.89169 17.06147,-22.13957 17.79845,-29.16793 0.34603,-3.3 1.10928,-7.2547 1.6961,-8.78822 1.79643,-4.69453 10.35995,-8.65733 23.03966,-10.66174 l 4.85638,-0.7677 2.05874,4.03546 c 2.4781,4.85748 29.79164,30.23484 34.50509,33.14791 1.87535,1.15903 3.03929,2.45427 2.58653,2.8783 -1.76823,1.65606 -37.19645,7.61359 -49.85496,11.82534 -19.70354,6.55578 -45.45546,5.59639 -64.97149,6.03699 -9.075,0.20488 -19.02265,-0.0309 -22.1059,-0.52402 z m -7.72871,-25.71278 3.83117,-5.5 10.967,-0.50663 c 8.22296,-0.37987 10.21637,-0.71447 7.967,-1.33729 -1.65,-0.45686 -5.475,-1.49509 -8.5,-2.30718 -14.56034,-3.90888 -24.45895,-16.95053 -25.6913,-33.8489 -0.55409,-7.59789 2.62797,-30.07262 5.06712,-35.78873 0.75366,-1.7662 5.03089,-7.19677 9.50496,-12.06794 8.33626,-9.07616 9.54283,-11.27882 8.9137,-16.2725 l -0.36168,-2.87083 -1.76708,4 c -2.23528,5.05981 -6.57381,9.61151 -14.01965,14.70845 -6.61474,4.52803 -8.1487,7.25812 -11.68215,20.79155 -2.96201,11.34475 -3.20947,11.5658 -11.17522,9.98246 -6.89167,-1.36985 -13.69977,-0.78381 -17.7887,1.53123 -2.34687,1.32874 -2.08411,1.41761 4.28984,1.45087 11.645,0.0608 16.92406,4.0437 20.65137,15.58098 1.14821,3.5541 5.11866,12.37416 8.82322,19.60014 5.72033,11.15787 6.73557,13.90807 6.73557,18.24623 0,2.80945 4.21231,20.09796 3.77582,21.66429 -1.1663,4.18527 -3.96905,-10.6993 0.45901,-17.0562 z m 211.36876,-55.5348 c -1.70697,-1.94413 -3.10359,-3.93699 -3.10359,-4.42857 0,-1.77623 3.1747,-4.00627 7.29467,-5.12408 7.15248,-1.94056 7.40056,-2.14504 3.70533,-3.05396 -4.86421,-1.19645 -10.47926,-0.2699 -22.51503,3.71524 -11.23788,3.72095 -15.82437,4.11677 -21.98497,1.89733 -4.95091,-1.78362 -5.00522,-1.78485 -3.59096,-0.0808 0.63466,0.76472 3.50226,2.41949 6.37245,3.67727 4.33929,1.90157 6.81909,2.26457 14.71851,2.15451 7.96632,-0.11099 10.38792,0.24992 15,2.23559 7.39265,3.18281 7.70359,3.1076 4.10359,-0.99257 z M 364.06658,324.27029 c 2.4951,-11.33478 3.45612,-13.50153 6.742,-15.20073 4.13201,-2.13674 13.68045,-0.0347 24.18479,5.32426 6.16154,3.14338 7.23229,1.94215 2.41129,-2.70511 -2.77,-2.67018 -6.625,-4.92424 -11.5,-6.72419 -11.41387,-4.21424 -19.72507,-8.46027 -20.91602,-10.68558 -1.92665,-3.59997 -0.26505,-6.63534 5.12836,-9.36839 6.48197,-3.28466 20.59409,-6.96639 34.42138,-8.98022 6.03181,-0.87849 11.1322,-1.76251 11.33419,-1.96449 0.20198,-0.20199 -2.1749,-0.68487 -5.28197,-1.07307 -9.00136,-1.12465 -27.11899,0.0654 -38.59662,2.53517 l -10.57746,2.27608 -10.42254,-3.09647 c -13.16111,-3.91008 -27.98489,-7.4449 -28.60803,-6.82177 -0.26219,0.2622 4.17228,2.85175 9.85438,5.75456 11.8962,6.0774 21.84923,15.07282 25.88362,23.3933 2.18713,4.51073 2.46034,6.54713 2.79202,20.81057 0.20221,8.69581 0.58092,15.5973 0.84157,15.33665 0.26066,-0.26065 1.29972,-4.22541 2.30904,-8.81057 z m 35.925,-151.23948 c -2.69877,-10.71779 1.02103,-21.09713 11.68766,-32.61198 3.81359,-4.11686 10.15145,-11.82608 14.08414,-17.13161 8.15274,-10.99875 8.76497,-11.33073 22.80805,-12.36752 7.69867,-0.56838 17.5,-3.26424 17.5,-4.81339 0,-0.98717 -26.91028,0.62421 -32.14434,1.9248 -7.97505,1.98167 -10.15508,1.78497 -16.67093,-1.50422 -3.16703,-1.59871 -7.9917,-3.22629 -10.72148,-3.61685 -5.88068,-0.84137 -5.14807,0.38933 1.74015,2.92323 6.48928,2.38715 11.19764,7.82956 10.37688,11.99466 -1.66744,8.46178 -10.54211,20.99926 -17.32898,24.48113 -2.91303,1.49447 -4.39249,1.64211 -8.63338,0.86152 -8.67507,-1.59677 -19.33844,-0.46042 -25.61792,2.72999 -5.8415,2.96788 -13,8.18557 -13,9.47546 0,0.42588 3.93267,-0.80472 8.73926,-2.73467 9.85647,-3.95758 19.70005,-5.20793 25.61971,-3.25426 4.17033,1.37633 4.25403,1.60351 5.52893,15.00688 0.80842,8.49918 1.17635,9.69817 3.62136,11.80128 1.49683,1.28752 2.91485,2.14761 3.15115,1.9113 0.2363,-0.2363 -0.0968,-2.52039 -0.74026,-5.07575 z m 10.38472,219.80596 c -8.00887,-5.80159 -31.4993,-31.1886 -27.90714,-34.16983 2.79988,-2.32369 6.72791,-2.27093 16.84096,0.22621 14.37053,3.54839 17.31487,3.39199 26.90345,-1.42905 4.37558,-2.2 -4.8222,-7.03046 -3.15467,-7.03046 3.80172,0 43.90467,25.59824 43.90467,28.31762 0,3.63857 3.11905,13.77377 -6.98804,15.59941 -3.14616,0.56829 -15.75641,-1.15045 -24.83141,-0.62806 -9.075,0.52238 -17.40966,1.22538 -18.52146,1.56222 -1.35989,0.41201 -3.40416,-0.38918 -6.24636,-2.44806 z m 122.87621,-38.27042 c 0,0 -6.08278,-15.136 -5.69231,-16.97336 0.60056,-2.82587 1.04136,-3.24444 2.86059,-2.71635 18.06113,5.24287 34.92534,-0.071 45.85031,-14.44743 1.46471,-1.92744 3.16059,-4.81293 3.76863,-6.4122 0.91509,-2.40685 -0.17218,-1.69406 -6.31157,4.13775 -9.3113,8.84483 -15.53459,11.51564 -27.15673,11.65469 -6.49743,0.0777 -8.90189,-0.34568 -12.80184,-2.25435 -6.92603,-3.38966 -8.15652,-5.79466 -8.17921,-15.98639 l -0.019,-8.51073 6.24048,-3.56217 c 3.43226,-1.95919 7.14476,-4.34527 8.25,-5.30238 3.6104,-3.12655 2.11659,-3.69816 -3.24719,-1.24254 -6.49605,2.97399 -21.57157,4.89238 -33.5615,4.27076 -6.74838,-0.34987 -11.46551,-1.38945 -21.18179,-4.6681 -16.51635,-5.57326 -17,-5.91842 -17,-12.13224 0,-6.92239 2.73123,-13.39525 9.76008,-23.13086 3.31838,-4.59624 8.33398,-12.96931 11.14578,-18.60681 3.86143,-7.74192 5.58898,-10.25 7.06016,-10.25 1.20579,0 4.09724,2.66035 7.59032,6.98366 9.06924,11.22477 21.19121,18.01634 32.1566,18.01634 2.98767,0 4.53429,0.48058 4.93877,1.53461 1.02022,2.65867 -1.61727,9.72631 -6.14098,16.45589 -2.39966,3.56978 -4.12881,6.71978 -3.84255,7 1.01566,0.99429 10.88062,-10.64744 14.01722,-16.54184 3.64974,-6.85873 9.08421,-12.69635 13.53625,-14.54045 2.81614,-1.16648 3.22864,-1.07162 5.04731,1.16074 1.75249,2.15114 1.9112,3.40974 1.3784,10.93105 -0.85072,12.00931 -3.83708,22.70247 -12.14859,43.5 -0.55967,1.40044 0.31985,0.95078 2.93392,-1.5 4.82151,-4.52032 11.86935,-19.12077 14.24008,-29.5 2.76339,-12.09836 2.48599,-32.35781 -0.59318,-43.32123 -1.28539,-4.57668 -2.66795,-7.95168 -3.07235,-7.5 -0.4044,0.45168 -1.26816,3.01921 -1.91947,5.70562 -2.68174,11.06124 -7.67251,17.56827 -15.80956,20.61273 -6.88691,2.57672 -12.77973,2.53544 -19.92944,-0.13961 -7.64792,-2.86145 -17.86729,-13.10012 -22.52172,-22.56425 -3.25595,-6.62053 -3.32489,-7.03224 -3.22803,-19.27913 0.0663,-8.37838 0.9537,-17.63666 2.68526,-28.01413 1.42245,-8.525 2.81458,-20.675 3.0936,-27 0.47906,-10.85947 0.65287,-11.62532 3.12051,-13.75 3.61696,-3.11427 7.57187,-2.89977 24.59295,1.33383 16.38934,4.07646 21.8754,6.68191 29.15254,13.84517 6.2571,6.15918 17.75617,20.56048 17.75617,22.23761 0,2.35451 -4.38928,4.33339 -9.61172,4.33339 -7.06366,0 -8.85796,1.76861 -12.68157,12.5 -3.05011,8.56049 -3.42647,9.11201 -7.70671,11.29366 -5.71781,2.91439 -10.40249,2.30519 -14.25,-1.85309 -5.21308,-5.63415 -3.86809,-9.01574 7.03853,-17.69632 5.09515,-4.05523 6.23663,-9.2073 3.85456,-17.39761 -1.65916,-5.70475 -5.42078,-11.88002 -4.17057,-6.84664 0.34153,1.375 0.85591,4.975 1.14307,8 0.78438,8.26268 -3.51488,14.81639 -10.86559,16.56328 -2.40396,0.5713 -2.75276,0.35678 -2.77196,-1.70487 -0.0351,-3.76966 -3.4221,-10.21283 -6.91247,-13.14978 -3.26158,-2.74444 -6.06557,-3.53431 -6.06557,-1.70863 0,0.55 0.59214,1 1.31586,1 0.72372,0 2.34015,1.82248 3.59206,4.04996 1.74954,3.11288 2.60727,7.20756 3.70706,17.69685 1.57063,14.98001 2.82256,18.28363 8.33697,21.99979 2.42782,1.63611 4.80044,2.2534 8.66114,2.2534 6.39866,0 9.22489,-2.14339 19.10069,-14.48585 6.43622,-8.04379 12.4656,-12.51415 16.8784,-12.51415 12.75967,0 20.84306,17.07722 15.68433,33.13517 -1.23998,3.85978 -3.28677,6.97701 -7.29585,11.11153 l -5.57236,5.74669 3.70248,2.9754 c 2.20696,1.77356 4.41,4.82799 5.45408,7.56188 2.05517,5.38139 1.2009,10.86068 -3.116,19.98584 l -2.56408,5.42003 2.55761,3.76387 c 2.16756,3.18985 2.55761,4.87982 2.55761,11.08138 0,4.67517 -0.56358,8.40738 -1.56074,10.33566 -2.34389,4.5326 -1.17893,5.72329 1.77501,1.81421 2.92841,-3.8753 5.78573,-12.60694 5.78573,-17.68055 0,-3.05333 0.22099,-3.3167 2.25,-2.6815 4.02656,1.26055 10.75935,6.48593 13.20777,10.25067 3.5996,5.53478 4.83517,11.56111 4.06202,19.81182 -0.37093,3.95841 -1.25936,7.99706 -1.97427,8.97476 -1.21997,1.6684 -1.50712,1.60269 -4.67268,-1.06923 -3.60684,-3.04438 -10.40862,-6.48374 -12.87284,-6.50921 -0.825,-0.009 0.65296,1.82981 3.28435,4.0852 5.71731,4.90037 8.99013,10.85287 9.12029,16.58774 0.0816,3.59491 -0.46583,4.77613 -3.79248,8.18332 -4.62897,4.74104 -11.0835,6.75053 -16.54962,5.15241 -3.06695,-0.89668 -3.98047,-0.65655 -8.47553,2.22793 -4.53594,2.9107 -5.78804,3.23302 -12.56254,3.23395 -4.13846,5.7e-4 -9.04327,-0.38459 -10.89958,-0.8559 -4.72213,-1.19894 -3.27732,0.73926 2.87511,3.85693 2.67215,1.35408 5.16954,2.96531 5.54975,3.5805 0.39745,0.64309 12.3669,6.44449 9.03056,9.54947 -6.41243,5.96779 -5.54342,7.00773 2.46481,2.94965 4.80842,-2.43661 -4.04512,-10.64883 -4.04512,-12.9235 0,-1.49985 14.60051,-5.55025 18.59501,-6.66591 20.75007,-5.79548 14.94525,2.28707 14.07084,5.77099 -0.80658,3.21371 -3.14098,15.68084 -8.06718,18.79703 -7.44346,4.70854 -7.63951,9.01348 -20.3666,8.93652 -27.33151,7.13516 -50.03122,-3.61256 -43.05099,-28.36204 z M 148.42349,340.64227 c -12.33346,-3.43527 -14.13819,-4.89414 -10.25,-8.28572 4.19248,-3.65702 5.64436,-3.79564 12.16579,-1.16151 4.81092,1.94322 8.97024,2.69047 18.1782,3.26584 12.35554,0.77205 15.24913,1.7889 12.95539,4.55268 -3.23463,3.89749 -21.6463,4.80483 -33.04938,1.62871 z m -35.16392,-13.0128 c -2.01516,-0.39247 -4.78096,-1.4455 -6.14622,-2.34005 -2.20428,-1.4443 -9.686793,-9.79733 -9.691793,-10.81935 -0.001,-0.21836 6.186423,-0.17201 13.749993,0.10299 12.70999,0.46212 14.13078,0.71171 18.75194,3.29424 2.75,1.53683 6.53156,4.05661 8.40346,5.59949 l 3.40347,2.80525 -8.97119,1.15051 c -9.78226,1.25453 -13.89659,1.29818 -19.49966,0.20692 z m 50.66392,-2.43275 c -9.79327,-3.1994 -22.90991,-9.12159 -28.07771,-12.67713 -6.73691,-4.63512 -9.83268,-9.33739 -10.44699,-15.86824 l -0.52471,-5.57829 -3.77376,7.32128 c -2.98968,5.80014 -4.48421,7.61812 -7.19318,8.75 -4.62765,1.93356 -9.89327,1.04381 -14.983643,-0.46132 -8.481634,-2.50787 -10.674413,-8.22746 -10.30633,-38.66068 0.18266,-15.10237 0.06401,-23.65232 4.555647,-24.77965 1.919523,-0.48177 2.17267,-0.9281 1.373411,-2.42153 -1.5983,-2.98645 -0.616119,-30.51502 1.517071,-38.85571 2.824452,-11.04351 8.382244,-21.98946 14.393194,-28.34708 9.45756,-10.00302 27.37555,-22.18473 32.63135,-22.18473 3.06025,0 7.02039,2.34358 10.98359,6.5 4.44272,4.65932 7.96842,6.5 12.45034,6.5 1.95231,0 3.54966,0.33893 3.54966,0.75318 0,0.41425 -0.9,3.90032 -2,7.74682 -2.25749,7.89401 -2.4276,9.5 -1.00628,9.5 2.55172,0 6.83544,-8.32763 8.91666,-17.33415 2.85337,-12.34804 5.75127,-15.15615 16.79352,-16.27324 4.7528,-0.48082 7.75153,-0.006 16.65958,2.63871 11.4677,3.40444 17.6133,3.62646 24.13652,0.87199 2.83313,-1.19631 2.51283,-1.30769 -5.75812,-2.00239 -7.18619,-0.60358 -10.10107,-1.39917 -16.24034,-4.43264 -9.45598,-4.67229 -17.15548,-5.50371 -27.4974,-2.96929 -6.69663,1.64109 -7.28637,1.64722 -8.83973,0.0919 -4.18063,-4.18585 0.0467,-18.802 7.63172,-26.38703 7.1839,-7.18389 18.74837,-12.20386 28.11397,-12.20386 5.16564,0 2.63146,-1.77054 -4.45175,-3.11028 -8.96894,-1.696415 -11.66231,-6.027055 -7.58985,-12.203625 3.06892,-4.65454 8.72453,-7.76924 17.10524,-9.42033 9.46064,-1.86384 14.3107,-1.13518 18.17672,2.73085 2.37099,2.37098 2.84954,3.68719 2.84954,7.83737 0,2.7433 -0.89419,7.84042 -1.9871,11.326925 -3.15558,10.06671 -2.87734,11.36735 3.07731,14.3848 8.22689,4.16888 13.34094,9.76081 21.80855,23.84641 7.59804,12.63911 8.45526,14.8161 8.21193,20.855 -0.1533,3.80467 -5.86143,9.80838 -12.88439,13.55158 -3.19571,1.7033 -10.20571,6.03557 -15.57777,9.62728 -11.48246,7.67705 -17.83224,9.8798 -34.89588,12.10545 -16.52758,2.15573 -19.19666,3.47101 -26.1651,12.89374 -5.97524,8.07972 -10.3897,28.57801 -16.05384,29.64797 -4.67019,0.88219 -11.60803,-1.06169 -16.89864,-4.73477 -2.39792,-1.66478 -4.57926,-2.80747 -4.84743,-2.53929 -1.14508,1.14508 3.33739,6.57061 7.89187,9.55223 6.10001,3.99341 5.96765,5.7477 -0.68459,9.07382 -4.47666,2.23833 -6.15136,2.48944 -16,2.39909 -11.32047,-0.10386 -17.90648,-1.647 -21.70648,-5.08596 -2.79888,-2.53294 -3.26876,-0.78929 -0.74313,2.75763 2.67953,3.76305 9.77544,7.2246 19.36624,9.44727 9.86405,2.28601 11.63282,3.46311 19.67845,13.09581 11.34656,13.58477 18.22944,16.76468 35.01881,16.1788 l 8.38611,-0.29264 -10,-3.49659 c -10.35426,-3.62046 -20.51016,-9.56309 -23.10111,-13.51738 -4.89809,-7.47542 -1.72304,-14.98909 10.09162,-23.88152 5.4086,-4.07084 9.3435,-25.06703 12.42423,-29.83514 7.28466,-11.2746 8.76336,-12.03534 32.5275,-16.73425 7.39043,-1.46132 19.69425,-4.86269 27.34182,-7.5586 14.75682,-5.20205 20.70377,-5.99617 25.67031,-3.42787 4.51597,2.3353 9.75602,9.22559 12.67593,16.66793 1.47991,3.77206 2.90716,6.85829 3.17165,6.85829 0.2645,0 0.24459,-2.60619 -0.0443,-5.79153 -0.38826,-4.28176 -1.85824,-8.44802 -5.63889,-15.98183 -2.8125,-5.60467 -5.11368,-10.96425 -5.11368,-11.91018 0,-0.94593 0.97063,-5.67766 2.15696,-10.51496 2.12148,-8.6504 2.1281,-8.93264 0.40245,-17.15566 -1.49117,-7.1057 -1.55226,-8.69016 -0.40696,-10.5565 1.74331,-2.84085 7.61946,-6.40285 21.84755,-13.24356 11.09007,-5.33199 20.58835,-12.33957 23.1088,-17.04907 1.89005,-3.53158 0.0691,-3.1233 -4.66826,1.04672 -4.91642,4.3276 -13.56855,8.15657 -18.431,8.15657 -9.83115,0 -11.90249,-6.69 -7.92335,-25.590705 1.77949,-8.45245 1.91697,-10.67663 0.93516,-15.12859 -0.63307,-2.87062 -1.90936,-6.15579 -2.8362,-7.30038 -1.61966,-2.0002 -1.68673,-1.8168 -1.72584,4.7193 -0.0245,4.10085 -1.18257,11.25081 -2.91719,18.01148 -2.7852,10.855265 -2.83524,11.476365 -1.57654,19.567655 1.01506,6.52508 1.03771,8.84657 0.10337,10.5924 -1.75908,3.28688 -7.02832,6.12083 -11.38854,6.1251 -3.47552,0.003 -4.78171,-0.91046 -14.5,-10.1448 -13.37371,-12.70771 -13.18041,-12.45729 -13.18041,-17.07583 0,-5.110755 3.74157,-12.237535 10.0465,-19.136125 2.8348,-3.10173 4.74713,-5.63951 4.24962,-5.63951 -1.25709,0 -9.90685,5.56114 -10.73569,6.90223 -1.17849,1.90683 -2.56043,1.19141 -2.56043,-1.3255 0,-3.43017 -4.25644,-8.06205 -9.24151,-10.05668 -3.58011,-1.43248 -7.11823,-1.90254 -18.50849,-2.45898 -4.11834,-0.20119 1.23523,-9.19737 7.34872,-12.34885 9.24818,-4.76738 44.27266,-12.69298 56.15128,-12.70632 5.63037,-0.006 6.05457,0.40041 3.78983,3.63378 -1.70406,2.43288 -4.93112,3.80869 -12.50912,5.33307 -7.13306,1.43488 -18.65055,8.74075 -16.75997,10.63132 0.30565,0.30566 1.61464,-0.13809 2.90887,-0.98609 3.90178,-2.55655 10.53377,-4.52636 18.61896,-5.53014 4.33513,-0.53821 7.83062,-1.4754 8.05907,-2.16075 0.22189,-0.66567 1.93288,-2.90322 3.80222,-4.97235 6.82908,-7.55898 18.62491,-10.40455 20.84014,-5.02737 2.30549,5.59627 5.07321,10.49489 6.10662,10.80821 0.7452,0.22593 0.95502,-1.24229 0.64243,-4.49547 -0.40126,-4.17597 -0.0936,-5.2714 2.26917,-8.07939 5.2954,-6.29323 9.267,-7.52244 25.76723,-7.97495 16.18119,-0.44376 28.03755,0.84071 36.30192,3.9328 8.29613,3.10398 9.23059,5.78561 3.24765,9.31982 -7.25544,4.28589 4.12453,4.03858 19.6618,-0.42729 13.19098,-3.79148 28.17859,-1.75986 30.02909,4.07055 1.18484,3.73309 -1.83279,5.12607 -10.23861,4.72629 l -7.21271,-0.34304 1.46271,2.23237 c 3.74528,5.71602 0.0602,8.95059 -16.37577,14.37397 -16.59293,5.47516 -24.84523,9.84372 -31.11204,16.46995 l -5.06147,5.35175 -3.46189,-1.44647 c -5.61244,-2.34502 -7.50152,-1.79379 -3.40118,0.99247 3.96673,2.695465 6.83357,7.832955 7.61278,13.642375 1.13496,8.46177 -1.22493,10.97924 -13.06577,13.93821 -10.4412,2.60921 -16.02525,5.48729 -22.7801,11.74108 -7.01064,6.49062 -11.03926,14.16108 -13.78126,26.2394 -5.66041,24.93381 -5.41957,33.20386 1.34747,46.2694 2.64409,5.10511 4.5416,10.1193 4.54114,12 -9.5e-4,3.90992 -4.61866,13.96094 -8.55888,18.62945 -1.57774,1.86937 -4.63977,4.68187 -6.80451,6.25 l -3.9359,2.85115 -19.56653,0 c -15.86037,0 -20.39426,0.31612 -23.93654,1.66892 -3.74054,1.42853 -4.50286,1.46454 -5.29227,0.25 -2.29166,-3.52579 -1.98553,-5.98331 1.75572,-14.09439 3.48967,-7.56565 3.83095,-9.05383 3.74368,-16.32453 -0.0711,-5.92606 -0.71575,-9.55545 -2.48653,-14 l -2.3905,-6 -0.64323,11.5 c -0.6608,11.81407 -2.03314,16.83981 -5.95504,21.80845 -1.16849,1.48035 -3.36523,5.42244 -4.88166,8.76019 -3.43105,7.55201 -6.76676,9.42058 -13.34881,7.47765 -6.28553,-1.85541 -10.39247,-4.65389 -18.94479,-12.90905 -4.26062,-4.11258 -7.98616,-7.23783 -8.27898,-6.94501 -0.68757,0.68756 5.91326,13.13804 9.36679,17.66764 3.89849,5.1132 11.59489,10.85761 17.22736,12.85809 2.71228,0.96331 4.93141,2.2804 4.93141,2.92686 0,0.64646 -3.4875,4.23473 -7.75,7.97394 -4.2625,3.7392 -12.025,10.92872 -17.25,15.9767 -6.9148,6.68054 -13.23645,37.61899 -16.14794,38.42519 -6.67863,1.84934 -18.19489,1.29231 -26,-1.25757 z m -46.37603,-107.0855 c 7.46349,-9.13165 18.97135,-25.20833 28.26691,-27.43927 3.98362,-0.95607 7.24612,-1.96596 7.25,-2.2442 0.004,-0.27824 -1.45544,-1.15162 -3.24294,-1.94085 -4.60794,-2.03453 -13.2277,-10.96687 -14.81256,-15.34971 -0.73657,-2.03695 -1.69882,-3.70355 -2.13833,-3.70355 -1.42117,0 -0.87191,12.95854 0.67615,15.95216 1.12851,2.1823 1.18727,2.96474 0.25,3.32889 -3.42076,1.32906 -16.81405,14.93012 -21.05641,25.62691 -2.06758,5.21324 -3.37526,11.23418 -2.41144,11.23418 0.25711,0 4.1955,-1.76576 7.21862,-5.46456 z M 341.32883,87.551235 c 0.62783,-4.68081 9.3693,-18.70464 14.42741,-23.14572 1.95149,-1.71343 5.07075,-3.8414 6.93168,-4.72882 4.30085,-2.05093 4.37826,-3.61668 0.13351,-2.70048 -5.87009,1.26703 -10.48802,4.31413 -15.80829,10.43098 -4.40548,5.06508 -5.76187,6.02644 -8.50278,6.02644 -2.41393,0 -3.93371,-0.7993 -5.85004,-3.07672 -3.50575,-4.16635 -3.53017,-10.671 -0.0645,-17.18123 3.02715,-5.68649 1.80716,-6.17334 -2.48593,-0.99205 -4.26461,5.14692 -6.58421,13.33751 -5.32975,18.81951 l 0.95974,4.1941 -5.50518,0.64702 c -5.82606,0.68474 -13.40982,3.56127 -14.64099,5.55334 -0.55593,0.89951 0.4516,0.98834 4.12095,0.36332 12.2329,-2.08371 23.83669,0.89694 27.9538,7.18044 2.25221,3.4373 3.05371,3.13291 3.66037,-1.39013 z M 599.57143,272.6792 c -3.85,-1.42953 -7.17842,-2.73552 -7.3965,-2.90219 -0.21807,-0.16667 0.56943,-2.82715 1.75,-5.91219 3.07793,-8.04312 2.9029,-16.52059 -0.4813,-23.3118 l -2.6278,-5.2733 3.83075,-3.92304 c 5.02993,-5.15111 7.9868,-5.2157 10.07411,-0.22005 1.89619,4.53822 5.91897,22.09583 7.43028,32.42981 1.82985,12.51214 0.0494,13.80195 -12.57954,9.11276 z M 82.262659,247.35877 c -2.401229,-18.50564 -1.158767,-45.41487 3.856565,-60.5312 3.49242,-10.52624 4.977094,-12.98209 7.307599,-12.08779 2.301214,0.88305 2.08735,4.81838 -0.860458,15.8333 -4.764675,17.80393 -7.110737,43.45194 -8.380194,52.59982 l -1.274729,9.18587 z m 17.558772,-78.4971 c -6.36263,-3.45179 -1.290237,-14.96032 13.757059,-31.21279 6.4193,-6.93344 16.21415,-13.21524 20.60575,-13.21524 1.06766,0 2.46766,-1.421 3.45973,-3.51162 0.9165,-1.9314 3.07511,-4.6999 4.79691,-6.15223 3.27935,-2.76612 18.12377,-10.33615 20.26863,-10.33615 0.68414,0 1.56449,-0.51876 1.95635,-1.1528 1.12093,-1.8137 -10.54326,-0.40824 -15.70785,1.89269 -2.41262,1.07488 -7.65634,4.6951 -11.65272,8.04494 -3.99637,3.34985 -8.20417,6.38836 -9.35066,6.75224 -5.68422,1.8041 -4.22963,-5.39871 2.18654,-10.82723 2.0866,-1.76541 12.20648,-8.56642 22.48861,-15.113355 10.28214,-6.54693 23.55345,-15.38151 29.4918,-19.63239 10.15558,-7.26971 20.07045,-11.9641 25.26902,-11.9641 1.61389,0 1.83191,0.49458 1.32822,3.01303 -0.67616,3.38081 -6.29799,12.55008 -9.3571,15.26156 -1.10116,0.97603 -4.7955,2.26664 -8.20964,2.86803 l -6.20752,1.09343 1.99682,2.13198 c 2.94685,3.1463 4.34889,7.65194 3.60875,11.59723 -0.51772,2.759675 -3.24379,6.021935 -13.08286,15.656145 -6.83588,6.69354 -13.43394,12.41695 -14.66236,12.71868 -1.22841,0.30174 -6.60901,1.24751 -11.95688,2.10172 -10.20877,1.63063 -17.7766,4.08863 -17.7766,5.77377 0,0.55531 0.77665,0.68256 1.75,0.28672 3.47735,-1.41416 18.86159,-1.78558 22.6174,-0.54605 6.84425,2.2588 12.6326,8.83762 12.6326,14.35774 0,2.53816 -4.37847,7.68602 -6.53728,7.68602 -0.69551,0 -4.10941,-2.1375 -7.58645,-4.75 -5.80983,-4.36526 -6.76959,-4.74536 -11.84908,-4.69275 -3.03996,0.0315 -7.92221,0.86595 -10.84946,1.85437 -6.7679,2.28525 -18.23666,9.97315 -24.64014,16.51711 -2.72932,2.7892 -5.20432,5.05325 -5.5,5.03123 -0.29567,-0.022 -1.77509,-0.71139 -3.287589,-1.53193 z"
         style="fill:#000000;fill-opacity:1" />
    </g>
  </g>
</svg>
